<svg version="1.1" id="Layer_1" xmlns="http://www.w3.org/2000/svg" xmlns:xlink="http://www.w3.org/1999/xlink" x="0px" y="0px"
   viewBox="0 0 1063.7 1283" xml:space="preserve">
<g id="upper_half">
  <path d="M1049.4,505.4c-1.5-1.3-3.7-1.7-5.5-2.6c0.5,1.8,0.7,3.9,1.7,5.5c8.1,12.3,7.7,27.4-1.3,39.2c-3.3,4.4-6.6,8.8-9.7,13.3
    c-8.5,12.4-11,13.3-23,4.4c-23.6-17.4-47.1-35-69.9-53.4c-20.1-16.2-38.8-34-55.6-53.8c-3.4-4-7.8-7.3-12.2-10.1
    c-8.9-5.7-19.1-5.2-26.7,2c-3,2.8-5.7,7.4-5.9,11.4c-0.3,5.6,1,11.6,2.8,17.1c5.7,17.2,11.1,34.6,18.1,51.4
    c10.6,25.5,22.2,50.6,33.6,75.8c2.2,4.8,5.5,9.2,7.6,14c0.9,2,0.8,5.7-0.5,7.2c-2.9,3.3-6.5,6.7-10.5,8.1c-7.8,2.6-16,4.7-24.2,5.4
    c-22.6,2-35.6-5.2-40.2-28.6c-3.3-16.8-7.4-33.5-10.1-50.4c-3.4-21.2-7.2-42.4-5.1-64.1c0.1-1.5,0.4-3.2-0.1-4.4
    c-0.6-1.3-1.9-2.8-3.2-3.1c-0.9-0.2-2.6,1.1-3.4,2.2c-0.7,1-0.9,2.5-0.9,3.8c0,9,0.1,18,0.1,26.9c0,1.4,0,2.7,0,4.3
    c-1-0.3-1.3-0.3-1.6-0.5c-21.8-16.9-46.3-24.2-73.8-21c-4.9,0.6-9.7,2.2-14.6,3c-10,1.7-18.4,6.3-24.8,13.8
    c-11.3,13.3-22.2,27-33.3,40.6c-12.3,14.9-18.2,32.1-17.2,51.4c1,19.3,1.5,38.6,3.6,57.8c2.9,27.4,4.6,54.8,3.4,82.2
    c2.1,0.1,4.2,0.3,6.2,0.4c0.4-8.9,0.5-17.8,0.4-26.6c-0.3-25.4-3.3-50.8-5-76.3c-0.9-13.8-1.8-27.6-2-41.4
    c-0.3-13.1,2.6-25.6,10.8-36.2c10.2-13.1,20.5-26.2,30.9-39.2c3.4-4.3,7.1-8.4,11.2-12.1c6-5.4,13.9-6.6,21.5-8.6
    c26.8-7.1,50.8-0.5,73,14.2c8.1,5.3,13.1,13.4,15.1,23.3c4.4,22.4,8.4,44.9,13.9,67c3,12.2,10.2,22.5,23.5,26.4
    c18.2,5.3,35.8,2.1,52.4-5.6c6.8-3.2,13.4-8.5,12.8-18.1c-0.1-1,1.8-2,2.7-3c3.5-4.1,7.5-8,10.3-12.5c2.5-4,0.6-6.1-4.2-6
    c-5.5,0.1-11,0.2-16.5-0.1c-1.7-0.1-3.9-1.3-4.8-2.7c-2.7-4.6-4.9-9.5-7.3-14.2c-1.3-2.6-0.4-3.9,1.7-5.7
    c3.9-3.3,7.5-7.1,10.4-11.2c2.5-3.5,0.6-6.5-3.8-6.7c-2.7-0.2-5.4,0-7.5,0c0.2-3.5,1.5-7.3,0.3-8.8c-1.6-1.8-5.3-1.8-8.3-2.7
    c0.3-0.9,0.5-1.5,0.8-2.1c4.7-8.8,4-10.1-5.8-10.5c-5.7-0.3-9.8-2.5-11.6-8.4c-0.9-3.2-2.3-6.3-3.8-9.2c-1.7-3.4-2-6.2,0.6-9.6
    c3-3.9,1.7-5.9-3-7.4c-2-0.6-4.4-2.5-5.1-4.3c-3.5-9.9-6.7-19.9-9.6-30c-1.3-4.5,0.6-8.6,4.2-11.5c3.7-3,8.2-5.5,12.9-2.8
    c5.3,3,10.7,6.4,14.8,10.8c8.7,9.4,10.3,7.6,3.1,20.7c-2.4,4.3-1,7,4,7.7c3.1,0.4,6.2,0.5,9.2,0.7c1.4,3.5-4.2,7.7,1,9.9
    c3.2,1.3,7.1,0.9,11.5,1.4c-1.2,1.6-2.1,2.8-3,3.8c-2,2.5-1.5,4.7,1.4,5.3c6.3,1.3,12.6,3.4,18.9-0.3c1-0.6,3.2-0.3,4.2,0.5
    c6.6,5.3,13.2,10.7,19.5,16.4c0.9,0.8,1.3,3.3,0.7,4.4c-3.4,6.1-2.5,7.9,4.7,8.7c0.9,0.1,1.8,0.3,3.7,0.7c-1.5,1.7-3,2.8-3.4,4.1
    c-0.4,1.4-0.4,3.8,0.5,4.6c4.2,3.5,18.1,3.2,23.2-0.5c2.4,1.9,4.6,3.8,6.9,5.3c2.9,2,3.3,4,0.6,6.4c-7.1,6.2-14.3,12.4-21.3,18.7
    c-1.5,1.4-2.5,3.5-3.7,5.2c1.9,1,3.9,2.8,5.8,2.8c7.5-0.3,15-0.6,22.3-2.2c8-1.7,16.4-3.3,22.6-9.8c0.7-0.7,2.8-0.5,4,0
    c9.9,3.4,15.5,1.9,21.8-6.5c5.5-7.3,10.9-14.8,16-22.3C1062.5,535.3,1060.6,515.3,1049.4,505.4z M917.8,605.8
    c0.4,0.6,0.7,1.1,1.1,1.7c-2.8,2.6-5.6,5.2-9.1,8.5c-2.2-3.7-4-6.7-6.2-10.2C908.8,605.8,913.3,605.8,917.8,605.8z M898.2,565.5
    c0.3,0.4,0.7,0.9,1,1.3c-3.1,2.9-6.2,5.8-10.1,9.5c-1.9-4.6-3.4-8-5.1-12.1C889.2,564.6,893.7,565,898.2,565.5z M888.6,554.2
    c-2.7,3.3-7.3,3.2-8.9,0.1c-0.4-0.7-0.5-2.3-0.1-2.6c0.7-0.6,2.2-1,3-0.7C884.6,551.8,886.4,553,888.6,554.2z M882.5,540.7
    c-1.9,2.8-3.3,4.7-5.3,7.6c-1.4-3.4-2.4-5.7-3.7-8.8C876.6,539.9,879,540.2,882.5,540.7z M898.4,485.4c-3.3,0-6.6,0-10.6,0
    c0.7-3.2,1.4-6,2.1-9.2c3.4,3,6.2,5.5,9.1,8.1C898.7,484.7,898.6,485,898.4,485.4z M907.4,499.7c-2.8-2.7-8.5,1.2-7.7-4.9
    c0.2-1.9,2.7-3.5,4.2-5.2c2.2,2.2,4.5,4.4,6.6,6.8C910.6,496.5,908.6,498.5,907.4,499.7z M923.2,508.8c-3.8,0-7.6,0-12.2,0
    c1.2-3.6,2.1-6.2,3.3-9.7c3.5,3.1,6.4,5.8,9.3,8.4C923.4,507.9,923.3,508.4,923.2,508.8z M973,549.3c-3.7-0.3-7.3-0.6-11.5-1
    c0.6-2.9,1.1-5.1,1.8-8.5c3.9,2.9,7.1,5.3,10.4,7.7C973.4,548.1,973.2,548.7,973,549.3z M975.4,582.9c6.2-7.1,11.7-13.3,17.8-20.3
    c4.1,2.8,8.8,6.1,14.6,10.2C997.8,580,987.3,581.9,975.4,582.9z"/>
  <path d="M636.5,707.7c-0.5-13.8-1.3-27.6-2.3-41.4c-1.4-18.3-3.8-36.5-4.4-54.7c-0.7-21.1,4.9-40.3,20.2-56.1
    c8.4-8.7,15.8-18.5,22.9-28.4c13.7-19.1,31.4-30.6,55.4-32.2c14.3-0.9,28.2,0.3,42.1,3.7c4.1,1,9.5,2.5,12.5,0.7
    c7.5-4.4,14-10.5,20.7-16.1c0.8-0.7,0.7-2.6,1-4c-1.5-0.1-3.4-0.8-4.5-0.2c-2.9,1.5-6,3.2-8.2,5.6c-8,8.2-16.7,8.1-27.2,5.3
    c-22.2-5.9-44.4-2.8-66.1,3.3c-10.8,3-17.7,11.6-24.5,19.7c-12,14.3-23.2,29.2-35.6,43.2c-13.8,15.5-17.2,34.2-17,53.5
    c0.2,19.8,3.4,39.5,4.7,59.2c1.2,18.1,1.5,36.3,2.2,54.4c0.4,9.9,0.8,19.7,1,29.6c2.8,0.3,5.5,0.5,8.3,0.7
    C636.7,738.2,637,722.9,636.5,707.7z"/>
  <path d="M645.3,775.7c-2.5,24.2-5.6,48.2-8.5,72.4c-2.8,0-4.8,0-7.5,0c1.3-10.7,2.4-21,3.7-31.2c2.6-20.7,5.5-41.3,4.4-62.2
    c0-0.4,0-0.8,0-1.1c-2.8-0.2-5.5-0.5-8.3-0.7c0.3,13.9,0,27.8-1.7,41.8c-2,16.7-3.9,33.4-6.1,50.1c-0.2,1.5-2,3.9-3.2,3.9
    c-5.3,0.1-10.6-0.4-16.4-0.7c0.3-2.3,0.4-3.9,0.7-5.4c5.5-23.6,7.1-47.8,8.9-71.9c0.4-5.6-0.8-7.1-6.5-7.4
    c-2.1-0.1-4.3,0.2-6.5,0.4c-8.6,0.5-17.3,1.8-25.9,1.3c-24.4-1.4-48.8-3.4-73.2-5.2c-9-0.7-13.7,3.6-14.5,12.4
    c-2.1,24.4-4.4,48.7-6.8,73.1c-0.8,8.6,1,11.6,9.3,13.7c24,5.8,47.9,11.8,72,17.1c10,2.2,20.4,3.1,30.6,4.4
    c7.4,1,14.8,1.7,22.5,2.6c-1.7,10-2,19.9-5,28.9c-10.8,32.6-16.3,66.2-20.9,100.1c0,0.3-0.1,0.7-0.1,1c2.4,1.1,4.9,2.1,7.4,3
    c2-13.3,4.1-26.6,6.6-39.8c3.5-19.3,9.2-38.1,13.7-57.3c2.3-9.9,3.9-19.9,5.8-29.8c1.4-6.8,1.7-7,9.3-5.6
    c-6.4,27.8-12.8,55.3-19,82.9c-1.4,6.3-2.1,12.8-3.1,19.2c-1.7,11.1-3.4,22.2-5.1,33.3c2,0.7,4,1.3,5.9,1.9
    c1.3-8.9,2.6-17.8,3.9-26.7c1.4-9.7,3.1-19.4,5-29.1c3.4-17.8,7-35.6,10.6-53.3c1.7-8.5,3.5-16.9,5.4-25.4c0.3-1.1,1.2-2.1,1.8-3.2
    c0.5,0.2,1,0.3,1.6,0.5c0,6.8-0.2,13.6,0.1,20.4c0.2,6.1,1.6,7.3,7.7,7c12.8-0.5,25.6-1.3,38.4-2.1c6.1-0.4,6.6-1.2,6.5-7.3
    c-0.1-13.7-0.2-27.3-0.3-41c0-2.1-0.2-4.3-0.6-6.4c-0.6-3.8-2.7-5.8-6.8-5.8c-11.3,0.2-22.6,0.3-34,0.3c-1.7,0-3.4-0.2-5-0.3
    c1.6-10.5,2.9-20.4,4.5-30.3c3.3-21.1,5.5-42.2,6.4-63.5c-2.1-0.1-4.2-0.3-6.2-0.4C646.6,761.3,646.1,768.5,645.3,775.7z
     M664.2,854.9c5.8,0,11.6,0,17.6,0c0.2,1.1,0.5,1.9,0.5,2.7c-0.1,13.3-0.4,26.7-0.2,40c0.1,4.2-1.3,5.5-5.3,5.6
    c-10.2,0.2-20.3,0.5-30.5,1c-3.2,0.2-3.7-1.6-3.6-4c0.3-5.6,0.8-11.3,1.2-17.1c5.3-0.5,10.3-0.9,16.4-1.4c0,3.6-0.4,6.7,0.2,9.7
    c0.3,1.5,2.1,2.8,3.2,4.2c1-1.4,2.6-2.7,2.7-4.1c0.3-4.3,0.1-8.6-0.2-13c-0.2-3.5-3-3.6-5.5-3.5c-9.1,0.3-18.3,0.9-27.4,1.3
    c-20.3,0.9-40.2-2-59.9-6.1c-19.7-4.1-39.4-8.4-59.1-12.7c-8.6-1.9-17.1-4.4-25.7-6.3c-3.6-0.8-3.3-3-3-5.6c2-18.9,4.1-37.7,6-56.6
    c0.6-5.6,0.5-11.3,0.6-17c0-3.9,1.6-5.2,5.5-4.7c15.2,1.8,30.4,3.8,45.7,4.9c19.1,1.3,38.3,2.3,57.3-0.6c0.5-0.1,1,0.1,1.7,0.2
    c0.1,0.9,0.5,1.9,0.4,2.8c-2.9,22.8-5.8,45.6-8.7,68.3c-0.3,2.5-0.7,4.5-4.2,4c-16.3-2.2-32.8-3.8-49-6.5
    c-9.5-1.6-18.7-4.8-27.9-7.5c-1.1-0.3-2.5-2.6-2.4-3.9c1-12.1,2.3-24.2,3.4-35.7c16.6,1.8,33,3.7,49.3,5.4c3.3,0.3,6.7,0.4,10,0.1
    c3.7-0.3,4.8,1.4,4.4,4.7c-0.6,4.3-1.3,8.6-1.7,12.9c-0.3,3.5-2.1,4.6-5.3,4.2c-8.7-1.2-17.5-2.5-26.2-3.6
    c-5.6-0.7-11.3-1.2-16.9-1.5c-1.1-0.1-2.3,1-3.4,1.5c0.8,1.1,1.5,2.5,2.5,3.2c1.2,0.8,2.7,1.4,4.2,1.6c14.2,1.9,28.4,3.8,42.6,5.4
    c4.6,0.5,7.7-1.6,8.3-6.6c0.8-6.6,2.2-13.2,2.4-19.8c0.3-7.2-2.3-9.3-9.3-9c-20.3,0.9-40.2-2.1-60.1-5.4c-4-0.7-6-0.5-6.4,4.4
    c-1.4,13.7-3.4,27.4-5.1,41.1c-0.6,4.6,2.8,6.3,6.2,7.2c9.7,2.8,19.5,6.4,29.4,7.7c26.7,3.4,53.5,6.4,80.4,8.4
    C634.2,856.2,649.2,855,664.2,854.9z"/>
  <path d="M594.2,1070.3c-1,6.7-1.6,7.1-9.2,5.6c0.7-4.8,1.3-9.7,2.1-14.6c2.3-15.2,4.5-30.3,6.8-45.5c-2.5-0.9-5-1.9-7.4-3
    c-2.8,20.5-6.4,40.8-9.7,61.2c-0.2,1.2-1.3,3.2-2.2,3.3c-4.3,0.6-8.8,0.7-13.6,1c0.3-2.6,0.4-4.3,0.6-5.9
    c1.9-13.2,3.8-26.4,5.7-39.6c1.7-11.9,1-13.2-10.7-16.7c-10.9-3.2-21.9-5.8-32.7-9.2c-18.4-5.8-36.7-12.1-55.1-18
    c-2.6-0.8-5.6-1.4-8.3-1c-1.6,0.2-3.8,2.3-4.1,3.8c-2.8,15.1-5.6,30.2-7.6,45.3c-1.9,13.7-3.4,27.5-4,41.3
    c-0.4,9.3,3.3,16.7,14,17.9c4.9,0.6,9.7,2.4,14.5,3.6c16.8,4.1,33.7,8.4,51.2,8.2c13.5-0.1,27-0.4,40.4-0.8
    c10.9-0.4,10.4-2.3,10,9.6c-0.6,21.4-0.2,42.6,5.7,63.5c0.3,1,0.5,1.9,0.8,2.9c2.7-0.1,5.4-0.4,8.1-0.7c-5.4-21-8-42.5-6.4-65
    c0.1-1.5,0.1-3,0.1-4.5c0-6.5,0-6.5,7.3-6.3c1.1,18.4,2.1,36.4,3.2,54.5c0.2,2.8,0.5,5.7,1.3,8.4c1.1,3.7,2.3,7.4,3.4,11.2
    c1.9-0.5,3.9-1.1,5.7-1.8c-5.2-23.8-6.9-48.3-7.3-73.2c2.9-0.3,6.2-0.7,10.1-1.1c0.4,7.5,0.7,14.2,1.1,20.8
    c0.3,5.7,2.6,8.3,7.6,7.6c10.7-1.4,21.4-3,32.1-5c6.4-1.2,7.5-3.1,7.3-9.8c-0.3-12.3-0.7-24.6-1.1-37c-0.3-9.3-3.8-12-13-10.4
    c-11.2,1.9-22.4,3.4-33.6,5c-2.1,0.3-4.2,0-6.5,0c0-2.1-0.2-3.6,0-5c2.4-16.8,4.8-33.6,7.2-50.4c-2-0.6-4-1.2-5.9-1.9
    C599.4,1035.9,596.8,1053.1,594.2,1070.3z M631.2,1080.2c4.6-0.7,9.2-1.6,13.8-2.3c0.4-0.1,0.9,0.2,3,0.7c0,13.2,0.1,26.3-0.1,39.4
    c0,1.1-1.3,3-2.2,3.2c-9.9,1.8-19.9,3.3-30.4,5c-0.5-7.3-1-13.6-1.2-19.8c0-0.8,1.4-2.2,2.4-2.4c2.9-0.7,5.9-1,9.4-1.6
    c0,2.6-0.4,5.1,0.1,7.4c0.4,1.8,2,3.2,3.1,4.8c1.1-1.6,3.1-3.2,3.2-4.8c0.2-3.8-0.2-7.7-0.8-11.4c-0.6-3.6-3.2-4-6.5-3.6
    c-18.7,2.2-37.3,5.3-56,6.1c-33.5,1.5-66.9-0.3-99.4-10.1c-4.1-1.3-8.4-2.1-12.7-2.9c-3.4-0.6-4.9-2.2-4.6-5.7
    c1.3-13.6,2-27.2,3.7-40.8c1.8-14.2,4.6-28.3,7-42.4c0.2-0.9,0.6-1.8,1.1-3.4c3.5,1.2,6.8,2.1,10,3.4
    c26.6,10.4,53.9,18.4,81.6,24.9c3.6,0.8,4.5,2.2,4,5.8c-2.3,14.8-4.3,29.7-6.3,44.5c-0.4,2.6-1,4.3-4.2,4.3
    c-24.9-0.5-49.5-3.2-73.9-8.1c-0.3-0.1-0.6-0.3-1.7-1c2.3-14.7,4.7-29.7,7.2-45.2c16.3,6.1,31.7,11.8,47.4,17.7
    c-1.1,4.6-2.1,9.6-3.6,14.5c-0.3,1-2.6,2.1-3.9,2c-8.1-0.5-16.2-1.4-24.7-2.2c0.4-3.3,1-6.1,0.8-8.8c-0.1-1.4-1.7-2.7-2.7-4.1
    c-1.2,1-3,1.8-3.4,3c-1,3.3-1.6,6.8-2,10.3c-0.4,3.4,1.5,5.5,4.8,5.8c10.1,1,20.2,1.8,30.3,2.7c3.8,0.3,6-1.7,6.8-5.2
    c1.3-5.3,2.6-10.7,3.6-16.1c0.9-5.5-0.8-7.9-6.2-9.8c-13.3-4.8-26.6-9.5-40-14.3c-0.9-0.3-1.9-0.7-2.8-1c-7.9-2.4-9.6-1.7-10.9,6.3
    c-2.3,14.6-4.2,29.3-6.3,43.9c-0.5,3.7,1.4,6,4.7,7.3c2.2,0.8,4.4,1.7,6.6,2.2c21,3.7,42.1,6.7,63.5,6.5
    C572.5,1084.7,602,1084.5,631.2,1080.2z"/>
  <path d="M405.7,1076.1L422,973.6c-3.3,18.5-6.7,37-9.7,55.6C409.8,1044.7,406.9,1060.4,405.7,1076.1z"/>
  <path d="M455.8,819.3c-2.5,38.7-5.8,77.4-13.1,115.6c-0.1,0.6-0.4,1.2-0.6,2c-4.3,0.2-5.2-1.4-4.7-5.7c3.3-29.1,7.2-58.2,9.1-87.4
    c2.1-32,2.2-64.2,3.1-96.4c0-1.4,0.1-2.7,0.1-4.1c-1.9-0.2-3.8-0.5-5.7-0.7c2.6,41.1-6.7,177.1-14.4,190.4
    c-2.4-0.9-4.9-1.7-7.4-2.7c-8.6-3.2-17.1-6.6-25.7-9.7c-7.1-2.5-13.3-0.3-15.6,5.5c-4.1,10.4-8.2,20.7-12.2,31.2
    c-2.5,6.4-1.1,9,5.5,11.3c7.5,2.6,15,5.3,22.5,8.1c6.1,2.3,8.5,1.5,11-4.5c2.3-5.3,4.3-10.7,6.6-16.4c2.7,1,5.1,2,7.6,2.7
    c3,0.8,3.3,2.3,2.4,5.2c-0.8,2.2-1.2,4.5-1.6,6.8c2,1,3.9,2,5.9,3c0.6-3.7,1.3-7.5,1.9-11.2c7.5,1.5,7.4,1.5,6.1,8.7
    c-0.3,1.9-0.7,3.9-1.1,5.8c2.3,1,4.6,2,6.9,3c0.5-2.8,1-5.7,1.5-8.5c0.3-1.7,0.8-3.4,1.4-5.4c6.4,1.9,12.2,3.3,17.8,5.3
    c20.9,7.3,41.5,15.4,62.6,22.1c11.8,3.7,24.3,5.5,36.6,7.7c6.9,1.2,9.6-0.7,10.8-6.5c5.8-28.4,11.5-56.8,17.1-85.3
    c1.2-6.2-0.3-8.5-6.2-10.5c-2-0.7-4.2-1.2-6.3-1.6c-5.9-1.2-11.9-1.8-17.6-3.4c-24.1-6.7-48-13.7-72.1-20.5
    c-10.3-2.9-12.6-1.1-14.3,9.4c-3,18.6-6.3,37.1-9.5,55.6c-0.3,1.6-1.5,4.3-1.9,4.3c-3.7-0.6-7.4-1.5-10.9-2.9
    c-0.9-0.4-1.3-3.2-1.1-4.8c1.9-13.7,4.6-27.3,5.9-41c2.9-29.5,5.7-59,7.2-88.6c1-19.9-0.1-39.8-0.3-59.8c-2.3-0.3-4.7-0.6-7-1
    C456.1,769.4,457.4,794.4,455.8,819.3z M523.4,969.1c7.3,1.7,14.6,3.4,21.8,5.4c5.2,1.4,7.5-1.2,8.7-5.6c1-3.5,1.6-7.2,2.3-10.7
    c2.1-9.8,4.1-19.5,6.3-29.3c1.7-7.3,1.3-8.2-5.8-10.4c-16.6-5-33.1-10-49.7-15c-2.7-0.8-5.5-1.4-8.3-1.8c-4.8-0.7-7.2,1.1-8.2,5.9
    c-1.5,7.3-2.8,14.7-4.6,22c-1.1,4.6,0.2,7.4,4.8,8.8c11.3,3.4,22.6,6.8,33.9,10.3c3,0.9,6,2.1,9,3c3.9,1.1,6.6-0.3,7.7-4.2
    c1-3.5,1.8-7.1,2.5-10.7c0.6-3-0.4-5.3-3.6-6.1c-9.5-2.6-18.9-5.1-28.4-7.7c-0.5-0.1-1-0.5-1.4-0.4c-1.6,0.4-3.1,1-4.7,1.6
    c1,1.5,1.7,3.8,3.1,4.2c8,2.8,16.2,5.1,24.3,7.6c1.1,0.3,2.2,0.7,3.7,1.1c-0.6,2.7-1.2,5.2-1.9,8.3c-6.8-2.1-13.1-4-19.4-5.9
    c-6.5-2-13.1-3.9-19.6-5.8c-2.3-0.7-3.9-1.6-3.2-4.5c1.6-6.8,2.9-13.6,4.5-21c19.9,5.2,39.4,10.3,59.2,15.4
    c-3,14.5-6.1,29.6-9.4,45.2c-16.9-4.8-33.4-9.3-49.8-14.1c-7.7-2.2-15.2-5-22.8-7.3c-2.4-0.8-4.1-1.2-3.5-4.6
    c3.6-19.5,6.9-39,10.4-58.5c0.2-1.3,0.5-2.5,0.9-4.3c11.5,3,22.8,5.7,33.9,9c13.4,4,26.6,8.8,40,12.7c6.7,1.9,13.7,2.6,20.6,3.7
    c3.5,0.6,5.9,1.4,5,6c-5.5,26.6-10.7,53.2-16.1,79.9c-0.1,0.6-0.5,1.2-1.1,2.5c-12.4-2.8-25-5-37.3-8.5
    c-28.6-8.4-57.1-17.2-85.4-26.5c-12.7-4.2-24.9-10-37.2-15.4c-6.6-2.9-9.2-2.6-12.5,3.8c-1.3,2.5-2.6,5.1-3.1,7.8
    c-0.3,1.6,1,3.4,1.5,5.2c1.7-0.7,3.5-1.3,4.9-2.3c0.8-0.6,1.2-2,1.5-3.1c1.1-3.7,3.3-3.8,6.6-2.8c3.7,1.1,3.1,3.4,2.2,5.8
    c-1.6,4.2-3.3,8.3-5.3,13.4c-8.8-3.2-17.3-6.3-26.4-9.6c1.3-3.3,2.4-6.1,3.5-9c2.8-7.1,5.9-14.2,8.2-21.4c1.2-3.6,3.1-4.6,6.2-3.6
    c6.7,2.1,13.4,4,19.8,6.7C448.1,949.3,485.4,960.2,523.4,969.1z"/>
  <path d="M612.9,705.7c-1.6-35.6-2.9-71.3-12.9-105.9c-0.6-2.2-1.4-4.3-2.1-6.5c-10.5,5.2-20.6,10.2-30.7,15.2
    c-4.9,2.4-9.8,5-14.8,7.3c-21.6,9.8-43.9,17.6-67.2,22.4c-10.6,2.2-12.2,5.5-10.6,16.4c0.2,1.3,0.7,2.6,1,3.9
    c1.8,7.8,4.1,15.5,5.4,23.4c1.6,9.1,2.4,18.3,3.6,28.1c-5.9-1-10.9-1.9-16-2.8c-3.2-0.5-4.3-2.2-4.4-5.5
    c-0.7-20.7-6.7-40.4-12.3-60.1c-4.9-17.2-14.5-32.4-23.3-47.9c-16-28.3-41.4-43.7-70.7-53.3c-22-7.3-44.7-6.2-67.1,0
    c-4.9,1.4-8.8,0.7-12.8-2.9c-4.2-3.8-9.1-6.7-13.9-9.7c-1.1-0.7-3.1-0.1-4.6-0.1c0.3,1.5,0.2,3.2,1,4.3c1.4,2,3.1,3.9,5,5.5
    c16,12.4,15.9,12,36,8.2c35.5-6.8,67.6,1.2,96.6,22.8c17.3,12.9,26.5,31.5,36.5,49.4c12.8,22.9,16.9,48.6,21.8,74
    c0.8,4.1,0.5,8.4,0.8,13.2c-3.4-0.8-5.8-1-7.8-2c-1.1-0.5-2.3-2.2-2.4-3.4c-1.1-8.2-1-16.7-3-24.7c-5.8-23.8-15.2-46.2-28.1-67
    c-5.5-8.9-11-18.4-18.7-25c-9.7-8.4-21.6-14.3-32.7-20.9c-2.7-1.6-6.3-2.3-9.5-2.5c-14.3-0.9-28.6-2.4-42.8-1.9
    c-10.1,0.3-20.1,3.4-30.1,5.2c-0.6,0.1-1.2,0.6-1.8,0.9c-7.2,4-14.3,7.9-21.5,11.9c0-0.8,0-2.1,0-3.4c0.1-9.1,0.2-18.3,0.2-27.4
    c0-3-0.2-6.7-4.4-6.5c-3.9,0.2-3.4,3.8-3.3,6.6c0.2,7,1,14,0.4,21c-2.6,33.8-8.2,67.1-16.8,99.9c-2.5,9.5-7.3,18.2-18.2,21.3
    c-16.7,4.8-32.8,2.1-48-4.9c-10.3-4.8-10.6-9.4-5.3-19.2c6.3-11.5,12.8-23.1,17.9-35.2c15.7-37.4,34.4-73.7,41.3-114.3
    c1-5.6-0.4-9.9-4-13.6c-7.2-7.5-18.4-8.8-27.6-3.8c-9.1,4.9-14.7,13.3-21.6,20.6c-23.7,25.1-49.6,47.9-77.5,68.4
    c-14.4,10.5-28.6,21.3-43.2,31.5c-7.8,5.5-11.4,4.4-17-3.5c-3.6-5.2-6.8-10.8-11.1-15.4c-9.8-10.4-10.9-27.9-0.9-42
    c0.7-1,0.9-2.4,1.4-3.6c-0.4-0.4-0.9-0.7-1.3-1.1c-1.8,1.2-3.8,2.1-5.4,3.6c-10.8,9.9-12.9,29.2-4.3,42.4
    c5.3,8.1,11.1,15.9,16.9,23.6c5.1,6.7,11.6,9.8,20.2,6.5c1.1-0.4,3.3,0.2,4,1.1c9.8,11.2,22.1,18.1,36.4,21.4
    c1.8,0.4,4.8,0,5.6-1.2c0.8-1.2,0.1-4.2-0.9-5.7c-7.4-10.8-10.3-23-11-35.8c-0.1-1.3,0.2-3.3,1.1-4c6.2-4.9,12.6-9.6,18.9-14.4
    c5.6,8.1,11.1,10.7,19.5,9.7c4.8-0.6,5.6-2.1,5.1-7c-0.5-4.5-0.1-9-0.1-13.2c4.1,0.4,8.4,2.1,11,0.7c2.2-1.2,2.4-6,3.5-9.3
    c9.2,2.7,11.5,2.8,15.5,0.8c3.6-1.8,4.8-4.2,2.6-8c-1.5-2.6-2.3-5.6-3.2-8c4.2-0.5,8.6,0.2,10.8-1.7c2.4-2,2.7-6.4,4.1-10.2
    c2.4,0,5.4,0.2,8.4,0c7.7-0.6,8.8-2.5,6-9.7c-0.5-1.2-0.9-2.5-1-3.9c-0.3-3.5,0.3-7.2-0.8-10.4c-0.9-2.8-0.4-4.6,1.5-6.1
    c5-3.8,9.9-7.9,15.3-11.1c4.6-2.7,9.1-0.3,12.9,2.8c3.6,2.9,5.5,6.9,4.3,11.5c-2.2,8-4.6,16-7.3,23.9c-3.1,9.2-7.7,12.3-17.4,12.2
    c-5.8,0-7.5,1.9-6.3,7.7c0.6,3,1.9,5.8,2.9,8.8c-9.1,0.4-9.4,1.6-4.4,16.8c-3-0.7-5.4-1.4-8-1.9c-4.1-0.9-6.3,1.1-5.4,5.2
    c1.4,6.1,3.5,12,9,15.7c3,2,2.9,3.7,1.6,6.5c-3.6,7.9-7,15.9-10.2,23.9c-1.8,4.6-4.9,6.2-9.4,5.2c-4-0.9-8-2.1-11.9-3.5
    c-4.2-1.4-7.3,0.2-6,3.9c2.5,7,5.6,13.8,9.3,20.1c1.3,2.2,2.3,3.4,1.1,5.9c-2.2,4.3-3.7,9.2,0.1,13.1c4.4,4.4,9.1,9.6,14.6,11.4
    c10.1,3.4,20.9,5.7,31.6,6.5c19.6,1.3,36.3-10.7,40.4-28.7c5.1-22.1,8.8-44.4,13.9-66.5c1.5-6.6,4.6-13.4,8.8-18.6
    c7.1-9,17.3-13.7,28.9-14.8c3.4-0.3,6.8-1.6,10.1-2.5c2.2-0.6,4.5-1.5,6.7-1.5c12.3,0.2,24.6,0.5,36.9,1.1c8,0.4,16,0.9,22.4,6.9
    c0.9,0.9,2.5,1,3.6,1.7c10.6,6.5,21.6,12.3,29.1,23c14.7,21.2,25.7,44.1,33.4,68.5c3.6,11.6,5.2,23.8,8.1,37.2
    c-9.9-2.1-18-3.7-26.1-5.6c-8.5-2.1-9.5-1.8-12.2,6.7c-3.7,11.2-7.1,22.6-10.5,33.9c-2.2,7-1.1,9.7,6.1,12.1
    c6.9,2.3,14.1,3.9,21.2,5.8c6.8,1.9,10,0.9,13.1-5.4c2.4-4.9,3.9-10.3,5.8-15.4c0.4-1,0.9-1.9,1.4-3c1,0.9,1.7,5,2.2,11.5
    c1.9,0.2,3.8,0.4,5.7,0.7c0-3.3,0-6.5,0-9.8c4.8-0.1,6.8,1.6,6.8,7.3c0,1.2,0,2.3,0,3.5c2.3,0.3,4.7,0.7,7,1c0-0.7,0-1.4,0-2.2
    c0-2.2,0.3-4.5,0.5-7.2c5.4,1.2,10.1,2.2,14.7,3.3c14.6,3.6,29.1,7.1,44.3,7.1c9.7,0.1,19.3,1.3,28.9,1.4c14.6,0.2,29.3,0,43.9-0.3
    c3.3-0.1,6.6-0.9,9.8-1.9c6.4-2.1,8-4.2,8-11C613.3,725.1,613.3,715.4,612.9,705.7z M82.5,640.5c-6.4-0.4-19.3-8.3-28-17.7
    c6.5-4.6,13-9.1,19.5-13.7C77,619.8,79.8,630.2,82.5,640.5z M119.3,591.6c-5.9,1.5-9.5-2.5-14-5.9c4.7-3.8,8.9-7.3,14-11.4
    C119.3,580.7,119.3,585.9,119.3,591.6z M134.7,574.4c-2.2-0.4-4.2-0.5-5.9-1.2c-3.7-1.5-4-3.5-1.1-6.1c2-1.8,4.2-3.5,7.7-6.3
    C135.1,566.1,134.9,569.9,134.7,574.4z M137.2,559.2c4.2-3.7,7.8-6.9,11.8-10.5c1.3,5.5,2.4,10.5,3.7,16.1
    C145.9,567.6,142.5,561.9,137.2,559.2z M164,548.3c-4.1,0.5-8.2,0.4-8.1-3.4c0-3,3.1-6,4.9-9.3C167.9,540.1,162,544.4,164,548.3z
     M165.9,534.5c-0.1-0.5-0.2-1-0.3-1.5c3.5-3.7,7.1-7.5,11.2-11.8c0.8,5,1.4,9.2,2.3,15C174.2,535.6,170.1,535,165.9,534.5z
     M192.9,557.4c3.2-0.4,6.5-0.7,10.6-1.1c-1.6,4.1-3,7.6-4.4,11.1c-0.6,0.2-1.1,0.4-1.7,0.5c-2.1-3.1-4.2-6.1-6.3-9.2
    C192.4,557.8,192.6,557.4,192.9,557.4z M197.1,572c-1.4,3.6-2.3,6.5-3.7,9.1c-0.3,0.6-3.5,0.4-4.2-0.4c-1.2-1.4-1.4-3.6-2.3-5.9
    C190.3,573.8,193,573.1,197.1,572z M177.5,589.6c4.3,0,8,0,12.6,0c-1.3,3.4-2.6,6.7-4.2,10.7C181.2,598,178.8,594.6,177.5,589.6z
     M157.5,657.3c-2.2-4.4-4.4-8.8-7.3-14.5c5.8,1.1,9.8,1.9,14.8,2.8c-2.1,4.1-4,7.8-5.9,11.4C158.6,657.1,158.1,657.2,157.5,657.3z
     M598.5,739.1c-18.1,0.2-36.3,0.5-54.4,0.1c-13.6-0.3-27.4-0.7-40.9-2.4c-13.5-1.7-26.8-4.9-40.1-8.1c-12.5-3-24.7-6.7-37.1-10.2
    c-5.2-1.5-8.2,1.5-9.9,5.5c-1.4,3.4-1.7,7.4-2,11.1c-0.1,0.9,1.3,2.9,1.9,2.9c1.2,0,2.4-1.2,3.6-1.9c0.2-0.1,0.3-0.6,0.4-0.9
    c1-2.6,1.6-7.1,3-7.3c3.4-0.5,7.1,0.9,11.5,1.7c-2.2,5.9-4,11.4-6.3,16.6c-0.5,1.1-3,2.3-4.3,2c-6.3-1.3-12.6-3.1-18.9-4.7
    c-3.6-0.9-4.8-2.5-3.6-6.4c3.5-11.3,6.6-22.7,10-34.5c16.7,3.4,32.7,7.4,49,9.9c24.5,3.7,49.1,6.8,73.8,9.2
    c14.1,1.4,28.3,0.9,42.4,1.2c9.4,0.2,9.1-0.1,10.1-9.5c2.4-22.9-2-45.2-5.5-67.5c-1.8-11.2-5.6-12.5-15.7-7.2
    c-17.7,9.2-36.5,15.4-56,19.3c-3.9,0.8-5.1,2.3-4.6,5.9c1.2,9.2,2.2,18.5,3.4,27.8c0.7,5.6,5.2,6.7,9.6,6.9
    c10.8,0.5,21.6,0.7,32.5,0.9c3.7,0.1,7.3-0.1,11-0.3c3.6-0.2,5.6-1.8,5.1-5.7c-0.7-5.8-1.1-11.6-1.9-17.4c-0.6-4.4-3.1-6.4-7.7-5.5
    c-8.8,1.7-17.7,3.1-26.5,5c-1.4,0.3-2.5,2.1-3.7,3.2c1.5,1,3.2,2.9,4.5,2.7c8.8-1.3,17.6-3.1,27.2-4.9c0.6,4.8,1.3,10.1,2.1,16.1
    c-8.4,0-16,0.1-23.6,0c-6.3-0.1-12.7-0.4-19-0.4c-2.7,0-3.8-0.8-4.1-3.6c-0.7-6.8-1.6-13.6-2.7-20.3c-0.5-3.1,0.7-3.9,3.4-4.7
    c14.8-4.6,29.5-9.3,44.1-14.5c4.9-1.7,9.4-4.8,15.1-7.9c4.6,24.6,8.8,49,8,74.6c-1.7,0.1-3.5,0.4-5.2,0.3
    c-26.3-1.4-52.5-2.9-78.8-4.3c-4-0.2-5.8-1.6-6.2-5.8c-1.9-18.1-4.2-36.1-10-53.4c-1.4-4.2-0.7-6.2,4.2-7.1
    c24.4-4.5,47.7-12.3,70.2-22.7c10.9-5,21.4-10.8,32.1-16.3c1.5-0.7,2.9-1.6,4.9-2.7c0.7,2.2,1.3,4,1.8,5.9
    c7.1,27.6,8.5,55.9,9.7,84.3c0.5,12.6,0.7,25.3,0.9,38C605.5,738.7,605.4,739.1,598.5,739.1z"/>
  <path d="M422.3,1052.8c-2.3,17.9-1.6,36.2-1.9,54.3c-0.2,9.3,1.1,18.7,0.3,27.9c-1.3,15.5,3.1,30.1,5.5,45c0.3,2.1,0.6,4.2,1,6.3
    c-7.4,2.4-9.5,1-10.9-5.8c-7.5-36.1-5.5-72.6-4-109c0.6-15,4.6-29.9,7.1-44.8c3-17.6,6-35.2,9-53c-2-1-3.9-1.9-5.9-3
    c-0.2,1-0.3,2-0.5,2.9l-16.3,102.5c-1.3,16.6-0.8,33.3-1,49.9c-0.3,18.4,0.5,36.6,4.5,54.7c0.3,1.6,0.3,3.2,0.5,5
    c-1.6,0.2-2.8,0.4-3.9,0.3c-11-0.9-21.9-1.7-32.9-2.8c-7.1-0.7-10.1,0.3-11.6,7.4c-2.7,13-4.5,26.2-6.4,39.4
    c-0.7,5,2.1,8.2,6.9,9.6c11.7,3.4,23.4,5,35.4,1.6c4.3-1.2,6.1-3.6,6-7.9c-0.1-4.5-0.2-9-0.2-13.5c0-2.3-0.5-5.1,3.2-4.8
    c3.3,0.2,7.4-1.8,9,3.6c1.4,4.9,2.8,9.9,4.2,14.9c1.9-0.5,3.8-1.1,5.7-1.6c-1.9-5.6-3.7-11.4-5.8-17.3c3.5-0.3,6.9-0.9,10.3-0.6
    c1.3,0.1,2.9,2.4,3.4,3.9c0.9,3.5,1.9,7,3,10.5c2.5-0.8,5-1.6,7.5-2.4c-0.6-2-1.2-4.1-1.8-6.1c-0.5-1.8-0.8-3.7-1.2-5.8
    c1.4-0.2,2.2-0.4,3-0.4c32.3-0.1,64.2-3.5,95.8-10c6.3-1.3,12.5-3.6,18.4-6.2c7.6-3.4,8-4.9,6.5-13.3c-2.1-11.6-4.4-23.3-5.8-35
    c-0.9-7.4-0.4-15-0.6-22.5c-0.2-5.7-2.1-8-7.7-8.5c-3.6-0.3-7.3,0.2-11,0.1c-27.7-0.2-55.3-2.4-82.1-9.8c-7-1.9-15.5,0.3-15.8,10.9
    c-0.5,16.1,0.2,31.9,3.1,47.7c1.2,6.6,2.5,13.2,3.8,20.3c-3.9,0-6.9,0.3-9.8-0.2c-1.3-0.2-3.2-1.9-3.4-3.2c-3-17.7-8.4-35-6.3-53.4
    c0.8-7-0.6-14.3-0.5-21.5c0.2-18-0.9-36.1,1.4-53.9c3.2-25.4,8.3-50.5,12.8-75.7c-2.3-1-4.6-1.9-6.9-3
    C430.8,1002.2,425.6,1027.3,422.3,1052.8z M471.2,1193.4c21.5-1.2,42.8-6.3,64.1-9.8c3.5-0.6,5.4-2.3,4.9-6.5
    c-1.2-9.7-1.9-19.6-2.5-29.4c-0.3-4.4-2.2-6.1-6.5-6.2c-9.7-0.2-19.3-0.3-29-1.1c-9.4-0.7-18.8-2-28.2-3.2c-5.5-0.7-7-0.2-7.3,5.2
    c-0.4,7.4-0.2,14.9,0.1,22.4c0.1,3.5,2,5,6,4.8c13-0.5,25.9-0.5,38.9-0.7c1.3,0,2.9,0.1,3.9-0.5c1.4-0.8,2.3-2.3,3.5-3.5
    c-1.4-0.9-2.7-2.7-4.1-2.7c-5.7,0.1-11.3,0.8-17,1c-7.2,0.2-14.3,0.3-21.5,0.2c-1.3,0-3.5-1.3-3.6-2c-0.3-5.8-0.2-11.5-0.2-17.2
    c8.5,0.8,17.1,1.7,25.7,2.2c9.6,0.6,19.3,0.8,29,1.1c2.7,0.1,3.8,0.9,4,3.7c0.8,8.4,1.8,16.8,2.8,25.9c-8.6,1.7-17.3,3.8-26.2,5
    c-16,2.1-32.1,3.7-48.1,5.5c-4.2,0.5-5.5-1.3-5.7-5.3c-0.3-5-1.6-9.8-1.9-14.8c-1.1-15.7-2.2-31.5-2.9-47.2c-0.2-5.5,1-5.5,6.4-4.6
    c20.3,3.3,40.7,6.7,61.1,9.2c9.8,1.2,19.9,0.5,29.9,0.4c3.1,0,3,1.8,3.1,3.9c0.1,6-0.4,12.1,0.4,18c1.7,12.5,3.8,25,6.1,37.4
    c0.8,4.1,0.9,6.6-3.9,7.6c-13.7,2.9-27.2,6.8-40.9,8.9c-16.1,2.4-32.4,4-48.6,4.8c-25.4,1.3-50.9,1.7-76.3,2.4
    c-7.1,0.2-10.6,4.1-9.3,11.1c0.3,1.4,2,2.6,3.1,3.9c1.1-1.2,2.6-2.3,3.2-3.7c0.6-1.4,0.4-3.2,0.6-4.7c0.6-0.3,0.9-0.5,1.2-0.5
    c10.8-0.1,10.8-0.1,10.9,10.8c0.1,10.5-0.1,11.2-10.9,11.1c-6.7-0.1-13.5-1.4-20.2-2.8c-1.5-0.3-3.7-3.3-3.6-4.8
    c1.5-13,3.5-26,5.4-39.2c9.7,0.9,18.9,2.3,28.2,2.6C420.7,1193,446,1194.8,471.2,1193.4z"/>
  <path d="M223.7,369.2c5-1.3,10-2.4,14.9-4c26.6-8.6,54.1-9.2,81.7-7.9c18.3,0.8,36.5,3.1,54.7,5c21,2.2,40.5,9.5,58.9,19.6
    c18.4,10,36.4,20.9,54.6,31.2c15.4,8.7,38.6,4.3,50-9.5c16.3-19.8,33.6-38.6,56.2-51.3c18-10.1,36.4-19.4,55.1-28.2
    c13.9-6.6,29-10.1,44.4-11.1c25.6-1.7,51-5.7,76.8-4.8c32.8,1.2,63.6,8.8,93.3,23.1c10.7,5.1,21.5,10,31.8,16
    c2.3,1.3,4.7,2.7,6.5,4.6c13.1,13.6,29.3,23.1,44.8,33.3c11.5,7.6,19,18.1,24.3,30.4c1.7,3.9,3.2,8.4,3,12.5
    c-0.6,13.2,5.8,22.6,15.6,30.2c6.6,5.1,13.5,9.7,20.1,14.9c3.5,2.8,6.5,6.2,9.7,9.3c-0.4,0.6-0.8,1.1-1.1,1.7
    c-1.3-0.3-2.8-0.3-3.7-1c-11.9-8.5-24-16.7-35.4-25.9c-8.5-6.8-11.4-16.7-12-27.6c-0.8-13.5-7.4-24.9-17.5-33.1
    c-11.2-9.1-23.9-16.3-35.8-24.5c-3.5-2.4-6.5-5.7-10-8.3c-7-5.2-14.2-10.3-21.2-15.3c-6.4,7.8-5.5,14.3,1.8,19.7
    c9.4,6.9,19.2,13.3,28.2,20.7c10.5,8.6,20.9,17.5,30.3,27.3c7.3,7.6,6,15.3-1.2,23c-0.8,0.8-1.1,2.7-0.8,3.8
    c3.4,12.1,1.8,23.5-4.6,34.1c-1.4,2.4-1.2,3.8,0.8,5.4c15.4,12.2,30.8,24.4,46.2,36.6c8.6,6.8,17.3,13.5,26,20.2
    c0.2,0.2,0.2,0.6,0.6,1.8c-1.8,0-3.6,0.5-4.9-0.1c-4.5-2.1-9.1-4.2-13.2-7c-21.2-14.8-42-30-61.1-47.5
    c-12.3-11.2-24.8-22.2-37.3-33.3c-5.6-4.9-8.7-11-10.6-18.2c-3.9-14.2-9.9-27-25.3-32.4c-7.2-2.6-14.3-2.9-21.5-0.4
    c-15.9,5.6-27.3,15.1-30.9,32.8c-2.5,12.2,0.8,22.6,7.7,31.9c2.4,3.2,7,5.6,11,6.5c5.1,1.2,6.6,4.3,7.8,8.5
    c2.5,9.3,4.6,18.8,7.9,27.9c10.9,29.9,22.2,59.6,33.6,89.3c2.3,6,5.7,11.7,8.8,17.4c2,3.7,1.4,5.9-2.2,8.2
    c-9.2,6.1-19.2,9-30.1,9.7c-0.3,0-0.7,0.1-1,0c-2.3-0.9-4.5-1.9-6.7-2.8c2-1.1,3.9-2.7,6.1-3.3c7.5-2.2,15.1-3.8,22.5-6
    c4.3-1.3,4.9-3.9,2.3-8c-3.2-5.2-5.5-11-8-16.3c-6.8,1.8-13.4,3.7-20.1,5.4c-1.9,0.5-4,0.4-5.9-0.1c-1.2-0.3-2-1.8-3-2.8
    c1.1-0.8,2.1-2.1,3.3-2.4c7.1-1.8,14.2-3.4,21.3-5.1c0.6-0.1,1.2-0.5,2.2-1c-3.3-8.9-6.6-17.7-9.6-25.9c-6.5,1.3-12.4,2.9-18.4,3.4
    c-2.7,0.2-5.5-1.7-8.3-2.7c1.5-4.1,5-2.2,7.7-2.6c4.3-0.6,8.6-0.7,12.9-1.3c2.9-0.4,4.6-1.7,3.1-5.1c-3.1-7-5.9-14.2-9.1-21.1
    c-0.5-1-2.8-1.7-4.2-1.6c-4.1,0.4-8.2,1.6-12.3,1.6c-1.6,0-3.3-2-4.9-3.1c1.5-0.9,3-2.4,4.6-2.5c14.7-0.8,14.7-0.8,10.5-14.6
    c-1.1-3.6-2.5-7.2-3.8-11c-3.8,0.4-7.2,1.2-10.6,1.1c-1.8-0.1-3.5-1.7-5.2-2.7c1.6-1.1,3.1-2.3,4.7-3.3c0.5-0.3,1.3-0.1,2-0.2
    c7-0.7,6.4-0.7,5.7-7.5c-1-9.4-3.6-16.2-14.4-18c-5.4-0.9-8.9-5.8-11.5-11c-9.3-18.5-6.8-37.4,5.6-51.7
    c18.6-21.4,43.3-27.3,66.5-9.4c2.7,2.1,4.8,2.8,8.1,1.3c9.7-4.6,18.9-3.1,27.1,3.7c10,8.4,19.8,17.1,29.6,25.6
    c2.7-3.6,3.3-8.1-0.6-12.3c-7.1-7.5-14.4-14.9-22.4-21.3c-11.3-9.1-23.3-17.3-35-25.8c-9-6.5-11.3-12.5-8.3-22.4
    c2.2-7.3,2.1-7.4-6.3-9.9c-4.8,10.6-11.2,20.8-10.6,33.3c0,0.7,0.2,1.5-0.1,2c-1.1,1.7-2.5,3.3-3.7,4.9c-0.9-1.7-2.5-3.4-2.6-5.2
    c-0.6-13.9,4.2-26.1,13-38.1c-5.7-2.8-11.3-5.6-16.9-8.2c-0.7-0.3-2.6,0.6-3.1,1.5c-8.2,14.6-14.9,29.8-16.1,46.9
    c-0.1,1.8-2.1,3.5-3.2,5.3c-1-2-3.1-4-2.9-5.9c1.6-17.7,6.7-34.3,17.6-48.6c0.2-0.3,0.3-0.6,0.7-1.7c-2.9-1-5.8-2.2-8.7-2.7
    c-1-0.2-2.9,1.4-3.3,2.6c-5.8,14.9-11.4,29.9-17.1,44.8c-7.7,20.4-15.1,41-23.2,61.2c-2.6,6.4-6.4,12.5-10.6,18
    c-2.1,2.8-6,5.3-9.4,5.7c-6.5,0.6-13.6,0.9-19.7-1.1c-8-2.7-12.4-9.9-13.2-18.4c-0.6-5.8-0.2-11.6-0.2-17.5
    c0.1-9.7,0.7-19.3,0.2-29c-1.2-24.2,0-48.3,3.3-72.3c0.1-0.6-0.1-1.3-0.2-2.6c-4.9,0.5-9.6,1-14.5,1.6c-1.8,31.7-2.3,63,0.9,94.2
    c0.9,9.3,1.1,19-0.2,28.3c-2.3,15.9-18.7,20-31.5,13.9c-9.3-4.4-15-11.6-18.8-21.4c-11.3-29.2-17.1-59.5-19.3-90.5
    c-0.1-1.8-0.1-3.7-0.1-5.5c0-1.8,0-3.6,0-6.6c-6,2.7-11.3,5.1-16.6,7.6c-0.7,0.3-1.4,1.6-1.4,2.4c-0.6,10.6-1.8,21.2,2.1,31.6
    c2.7,7.3,3.8,15.1,5.9,22.7c6,21.8,15.1,42.3,27,61.5c2.2,3.6,5.8,6.4,9.1,9.2c5.7,4.9,12.2,6.5,19.6,3.9
    c20.4-7.1,41.2-6.1,61.7-2.1c9,1.8,15-1.1,21.2-6.3c1.9-1.6,4-3.5,6.2-3.8c1.7-0.3,4.6,1.2,5.6,2.7c1.6,2.6-1.3,2.7-2.9,3.7
    c-4.3,2.8-8.3,6.1-12.4,9.2c-4.1,3.2-8.6,3.5-13.7,2.9c-11.7-1.5-23.5-3.1-35.2-3.4c-7.7-0.2-15.7,1-23.1,3.3
    c-17.6,5.6-28.7,3.5-42.7-15.1c-6.9-9.2-11.2-20.4-16.5-30.7c-10.2-19.8-13.5-41.8-19.6-62.8c-2-7-1.4-14.8-2-23.4
    c-6.7,3.7-13.4,7.2-19.7,11.2c-0.9,0.6-0.7,3.3-0.5,5c1.4,17.5,8.5,33.5,14,49.9c7.1,21.2,17.6,40.6,31.3,58.3
    c3.9,5.1,6.3,11.3,9.7,16.8c3.2,5.2,2.1,9.8-1,14.5c-12,17.9-24.8,35.1-39.6,50.8c-9.5,10-18.6,20.7-29.7,28.8
    c-12,8.8-25.4,16.2-39.1,21.8c-20,8.3-40.8,14.6-61.3,21.4c-4.5,1.5-9.4,2.3-14.2,2.5c-6.6,0.3-11.8-2.3-14.5-9.1
    c-6.5-16.2-13.7-31.9-26.1-44.6c-6.6-6.8-13.4-13.5-20.8-19.4c-12.9-10.3-11.4-16-4.7-27.2c4.3-7.1,9.5-13.7,14.4-20.4
    c9.6-13.4,16.2-28.4,21.5-43.8c5.8-16.8,12.9-33.2,14.8-51.2c0.4-3.8-0.3-5.9-3.6-7.6c-5.6-2.8-11.1-5.8-16.8-8.8
    c-0.5,1.1-0.9,1.5-0.8,1.9c1.8,12.8-1.3,24.8-5.5,36.7c-1.8,5-1.9,10.5-3.4,15.6c-6.5,21.8-15.4,42.6-27.6,61.9
    c-2.7,4.3-6.7,7.8-10.6,11.2c-8.4,7.4-18.1,9.6-28.9,5.7c-19.1-6.9-38.6-5.7-57.7-1.6c-11.6,2.5-19.2-1.9-27.1-8.5
    c-1.4-1.1-2.9-2.1-4.3-3.2c-0.9-0.7-2.7-1.6-2.6-2.2c0.3-1.3,1.2-3.2,2.2-3.5c1.9-0.5,4.2-0.3,6.1,0.4c1.6,0.6,2.9,2.2,4.3,3.4
    c5.9,4.9,11.6,7.7,20.3,6c20.7-4,41.7-5.2,62.2,2c10.8,3.8,18.4-1.8,25.2-8.9c3.6-3.8,6.8-8.3,9-13.1c6.9-15.3,13.8-30.7,19.5-46.5
    c4.3-11.8,7.4-24.2,9.6-36.6c1.4-7.9,0.8-16.2,0-24.3c-0.2-2-4.6-3.5-7.8-5.8c-1.3,6.4-2.6,11.6-3.4,16.8
    c-3.6,24.2-9.4,47.8-18.7,70.4c-4.3,10.4-10.6,20-16.6,29.6c-5.7,9-14.7,10.9-24.6,9.1c-7.2-1.3-13.8-9.8-13.2-18.5
    c0.7-9.7,2.3-19.5,4.5-29c6.6-27.4,12-55,14.4-83.1c0.9-9.7,0.8-9.8-9-10.4c-1.6-0.1-3.3,0-5.3,0c-1.2,12-2.2,24-3.8,35.8
    c-3.2,24.3-6.7,48.5-10.1,72.8c-0.3,2-0.8,3.9-1.3,5.8c-4.1,14.9-15.7,21.7-31.1,19.5c-12.4-1.8-18.9-8.8-21.4-20.4
    c-0.7-3.4-1.6-6.9-1.6-10.3c-0.2-19.3,0-38.6-0.2-58c-0.1-7.3-0.5-14.6-1.1-21.9c-0.6-8.4-1.5-16.8-2.4-26
    c-5.9,0.7-12.1,1.4-18.5,2.1c10.6,22,9.8,44.4,6.8,67c-0.4,2.9-1.2,6-2.5,8.6c-0.7,1.3-3,1.8-4.6,2.6c-0.5-1.6-1.5-3.3-1.4-4.8
    c1-10.1,2.7-20.1,3.5-30.2c1.1-14.2-2.5-27.7-6.6-41.9c-7.6,2.1-14.9,4-22.4,6.1c2.6,5.5,5.1,10.3,7.1,15.4
    c4.9,12.7,7.3,25.6,3.5,39.1c-0.1,0.5-0.1,1.1-0.4,1.4c-1.5,1.4-3,2.7-4.6,4.1c-0.7-1.8-2-3.7-1.9-5.5c0.3-4.9,1.6-9.8,1.7-14.8
    c0.2-12.5-4.7-23.7-10.2-34.6c-0.5-1.1-2.9-2.2-4-1.8c-5.1,1.9-10.1,4.2-15.6,6.6c6.3,9.7,10.1,19.5,11,30.3c0.2,3,0.4,6-0.2,8.9
    c-0.3,1.3-2.4,2.2-3.7,3.3c-1-1.3-3-2.7-2.9-4c0.7-12.5-3.7-23.5-9.3-35.2c-3.8,2-7.8,4.2-11.8,6.3c0.3,1.2,0.4,1.9,0.6,2.5
    c4.8,13.9,2.7,19-9,27.6c-16.1,11.8-31.8,24.2-47.5,36.5c-2.3,1.8-4.1,4.4-6.1,6.5c-4.6,4.8-5.4,10.1-1.9,16.5
    c1.5-1.9,2.6-3.9,4.2-5.3c9.4-8.2,18.6-16.6,28.4-24.3c7.2-5.7,15.6-5.1,23.7-1.5c2.6,1.2,4.6,1.4,7.2-0.6
    c17.6-13.8,34.1-13.2,54.3-2.7c21.7,11.3,29.8,45.7,18.1,64.5c-4.7,7.5-11.4,10.9-19.3,12.8c-2.8,0.7-3.8,1.6-4.1,4.5
    c-0.6,5.3-1.7,10.4-2.6,16.3c2.3,0.3,4.4,0.3,6.4,0.8c1.2,0.3,2.1,1.3,3.2,2c-1.1,0.8-2.3,1.6-3.5,2.3c-0.4,0.2-1,0.1-1.5-0.2
    c-5.8-3-7.4,0.7-8.7,5.3c-1.3,4.7-2.7,9.3-4.4,13.8c-1.3,3.6-0.1,5.3,3.5,5.8c3.1,0.5,6.2,1.1,9.2,1.9c1.4,0.4,2.6,1.5,3.9,2.3
    c-1.2,1.1-2.5,3.3-3.6,3.2c-3.6-0.3-7.1-1.4-10.5-2.4c-1.5-0.5-2.8-1.6-4.7-2.6c-3.8,9-7.5,17.6-11.3,26.8c8,2.2,14.6,7.2,22.9,5.9
    c0.9-0.1,1.9,0.8,2.9,1.2c-0.6,1.2-1.1,3.4-1.8,3.6c-2.9,0.5-6,0.9-8.7,0.1c-5.5-1.6-10.9-4-16.9-6.4c-3.3,9-6.8,18.3-10.3,28
    c8,3.6,15.7,6.7,24.3,7.4c1.7,0.1,3.2,1.8,4.8,2.8c-1.7,1-3.6,3.1-5,2.8c-8.7-1.8-17.3-4.1-26.8-6.4c-0.9,2-2.3,5.5-3.8,8.9
    c-1,2.3-2,4.6-3.2,6.8c-4.1,7.5-4.2,8.1,3.7,10.9c6.4,2.3,13.2,3.1,19.8,4.9c2.3,0.6,4.3,2.3,6.4,3.6c-2.3,0.9-4.6,2.5-6.9,2.5
    c-11.6-0.2-22.3-3.6-31.9-10.2c-2.7-1.9-3.3-4-1.8-6.8c15.7-27.7,23.9-58.6,36.4-87.6c6-14,9.3-29.2,13.4-43.9
    c1.6-5.8,2.7-10.4,9.9-13.1c13.5-4.9,20.4-21.2,17.8-35.8c-3.3-19-15-29.8-32.6-35.2c-13.6-4.2-29.6,1.8-36.9,14.1
    c-3.1,5.3-6.4,10.8-7.7,16.7c-2.3,10.2-7.7,17.9-15.3,24.5c-20.3,17.5-40.3,35.5-60.9,52.5c-11.5,9.5-24.1,17.8-36.4,26.4
    c-3.1,2.2-6.7,3.6-10.3,5.1c-1.4,0.6-3.2,0.3-5-0.2c24.1-21.6,52.6-37.5,75.1-61c-7.8-12.3-9.9-25.3-5.4-39.2
    c-9.2-9.2-9.9-16.4-1.3-26.4c5.8-6.6,12.3-12.7,19.2-18.1c11.9-9.4,24.3-18.2,36.6-27c8.2-5.9,9.4-10,4.3-20.5
    c-5.6,3.5-11.9,6.1-16.6,10.5c-13.4,12.4-29,21.7-44.2,31.6c-10.7,7-17.4,16.7-22.5,28c-1.3,3-2.3,6.4-2.3,9.6
    c0.2,13.8-5.5,24.7-16,32.9c-9.9,7.6-20.4,14.4-30.6,21.5c-1.2,0.8-2.8,1.1-4.2,1.7c-0.4-0.5-0.8-0.9-1.2-1.4
    c1.8-2.3,3.4-5,5.6-6.8c6.5-5.2,13.3-10,19.9-15.1c7.5-5.7,14.9-11.4,17.8-20.9c0.8-2.7,1.4-5.5,1.5-8.3c0.4-17,8-30.8,20.6-41.1
    c12.3-10.2,26.6-17.9,39-27.9c10.6-8.6,20.7-17.8,33-23.9c4.8-2.4,10-4,15.1-5.9c0.6-0.2,1.3-0.4,1.9-0.7c8.4-4,16.8-8.1,25.2-12.2
    L223.7,369.2z M468.3,409c-0.5,1.8-0.8,2.6-0.9,3.4c-3.1,23.8-12.9,45.4-21.7,67.3c-6.8,16.9-17.9,31.1-28.3,45.8
    c-2.4,3.3-4.5,7.1-5.7,11c-0.6,2,0.3,5.8,1.8,6.8c23,15.6,39.8,36.1,50.2,61.9c5.4,13.4,7.3,14.4,21.4,10.7c0.5-0.1,1-0.2,1.4-0.4
    c20.3-7.1,40.8-13.6,60.7-21.5c17.2-6.8,33.5-16.1,47.1-28.8c22.1-20.7,40.7-44.4,57.4-69.6c1.9-2.9,2.5-5.9,0.7-8.9
    c-3-5.1-5.9-10.5-9.5-15.2C619,440,605.3,404.2,597.2,366c-0.4-1.7-0.8-3.3-1.4-5.6c-2.4,1.5-4.3,2.4-5.8,3.7
    c-10.2,8.8-20.6,17.4-30.3,26.7c-5.6,5.4-10,12-15.1,17.9c-10.3,12-24,16.1-39.2,17.1c-10.9,0.7-20.3-2.5-28.1-10.3
    C474.9,413.1,471.8,411.4,468.3,409z M820.8,322.9c-2.6-0.8-4.9-1.4-7.2-2.2c-3.5-1.3-5.6-0.8-7.5,3c-3.1,6.4-8.5,10.5-15.7,12.1
    c-12.3,2.8-28.2-3.6-30.7-13.7c-1.7-6.7-5-7.4-10.4-6.6c-1.3,0.2-2.7,0.3-4,0.3c-2.7,0-3.7,1.2-3.6,4.1c0.2,4.3-0.2,8.6-0.3,13
    c-0.6,19.3-1.2,38.6-1.7,57.8c-0.2,10.3-0.2,20.6-0.2,30.9c0,5.5-0.1,11,0.3,16.5c0.4,5.7,5.7,12.2,10.3,12.9c4.4,0.6,9,1,13.4,0.5
    c2.7-0.3,6-2,7.4-4.1c3.7-5.3,7.1-11,9.5-16.9c13.4-34.6,26.4-69.4,39.5-104.1C820.4,325.3,820.5,324.3,820.8,322.9z M665.8,326.7
    c-8.6,1.6-8.6,1.6-7.1,9.3c0.3,1.6,0.5,3.3,0.6,5c2.2,31.4,8.3,61.9,20,91.3c3.3,8.2,8.5,13.5,16,16.7c8.9,3.7,19,1.5,21-10.2
    c0.7-4.2,0.9-8.6,0.7-12.9c-1-23.6-2.4-47.2-3.3-70.8c-0.4-11.9-0.1-23.8-0.1-35.9c-7.6-1-8.2-0.6-10.9,6.8
    c-2.6,7.1-6.6,13.2-14.7,14.9C678.1,343,670.3,338,665.8,326.7z M292.5,364.7c-7.3-0.2-7.6-0.2-7.5,6.1c0.1,5.8,0.8,11.6,1.2,17.4
    c0.5,8.5,1.3,16.9,1.3,25.4c0,15.8-0.9,31.6-0.7,47.5c0.1,7.3,1.2,14.6,2.7,21.7c1.2,5.5,4.3,9.8,10.7,11.2
    c14.8,3.3,26.2,0.2,28.7-18.1c3.9-28.2,7.9-56.4,11.8-84.6c1.1-7.8,2-15.7,3.1-24c-4.1,0.6-8.2-3.2-11.4,2.2
    c-4.4,7.6-10.8,12.5-20,11.5C302.6,379.8,295,375.3,292.5,364.7z M378,370.5c-2.1-0.2-4.1-0.5-5.9-0.7c-0.4,0.8-0.6,1.1-0.7,1.4
    c-2.2,31.3-8.8,61.9-15.9,92.4c-2,8.6-3.5,17.3-4.1,26.1c-0.6,8.7,5.2,13.3,13.8,13.2c6.8-0.1,10.6-4.1,13.9-9.2
    c9.6-14.8,17.3-30.5,21.5-47.6c4.1-16.6,7.5-33.5,11.2-50.2c1.1-4.8,2.4-9.5,3.7-14.2c-7.9,9.5-16.2,16.4-28.9,8.6
    C379.6,386,377.2,379.4,378,370.5z M181.2,461c-7-3.9-13.9-5.2-20.5,0.2c-8.3,6.7-16.8,13.2-24.2,20.8
    c-10.4,10.6-11.3,29.6-2.2,42.8c1.2-1.6,2.1-3.3,3.5-4.4c1.5-1.3,3.5-2,4.7-2.7c-5.2-8.4-6.2-14-3.5-19.8c1.7-3.7,4-7.4,6.7-10.4
    c6.8-7.6,14.1-15.4,24.5-16.9C176.4,469.6,179.5,467.2,181.2,461z M881.7,412.9c2.9,3.1,5,7.6,7.5,7.8c13.4,1.2,21.9,9.8,29.9,19
    c7.2,8.2,10.7,17.3,3.9,26.9c2.6,3.1,5,6,7.7,9.3c5.4-13,8.5-25.2,0.8-37.2c-8.3-12.8-20.3-21.9-33.6-29
    C892.9,407,887.7,409.7,881.7,412.9z M890.4,428.5c1.2,18.1,16.1,24.8,27.1,35.3C923.3,451,904.8,427.6,890.4,428.5z M145.9,511.8
    c13.6-5.5,27.7-23.4,27.3-34.5C159.7,476.3,141.7,498.6,145.9,511.8z M764.3,315.1c2.3,9.9,12,15.7,22.7,14.5
    c7.4-0.9,13.1-5.9,13-12C788.3,316.7,776.6,315.9,764.3,315.1z M696.9,319.9c-8.8,1.5-17.1,2.9-25.7,4.3c3.6,8,8.3,11.2,14.3,10.4
    C691.3,333.8,695.9,328.4,696.9,319.9z M406.7,377.7c-7.7-2.2-15.3-4.5-23.3-6.8c0.8,9.9,5,15.4,11.8,16.2
    C399.8,387.6,404.7,383.9,406.7,377.7z M297.5,365c4.9,6,10.6,10.3,18.6,9.2c4.7-0.6,8.2-3.6,10.8-9.2
    C316.5,365,307.2,365,297.5,365z"/>
  <path d="M921.3,332.1c4.7-8.8,9.4-17.5,13.8-26.4c0.6-1.2-0.2-3.8-1.2-4.8c-7.4-7.1-14.4-14.9-22.8-20.8
    c-20.2-14.1-42.8-23.3-67-27.7c-17.3-3.2-34.6-2.2-51.8,3.1c-13.4,4.2-25.3,11.1-37.4,17.7c-9.4,5.2-17.7,12.5-26.3,19.1
    c-1,0.8-1.2,2.8-1.4,4.4c-0.4,1.9,0.1,4.2-0.8,5.8c-0.7,1.3-2.8,2.5-4.2,2.5c-1.1,0-2.8-1.8-3.3-3.1c-2.9-8.6-1.6-12.1,6-17.2
    c5.3-3.5,10.5-6.9,16.4-10.8c-5.4-5.9-9.1-12.8-16.5-15.9c-20.3-8.4-48.5-8.5-67.9,12.2c-3.4,3.6-7,7.2-10.8,10.3
    c-5,4.1-9.4,3.8-13.7-0.8c-4.4-4.7-8.8-9.6-12.6-14.8c-3.8-5.3-3.1-10.7,1.8-14.8c24.3-20.1,52-31.5,83.7-31.8
    c6.5-0.1,13.2,1.7,19.6,3.3c6.1,1.6,12.1,4,18.5,6.2c-5.1-8.2-11.8-14.4-20.6-18.5c-16.3-7.8-33.4-7.1-50-3.4
    c-20.3,4.5-40.3,10.6-59.8,17.5c-9.2,3.2-17.4,9.6-25.6,15.2c-7.4,5.1-12.5,4.7-17.7-2.8c-1.8-2.6-3.3-5.4-4.9-8.1
    c-5.7-9.3-4.2-15.6,5.2-21.2c23.6-14.2,48.5-25,75.9-29.6c11.4-1.9,22.8-4,34.3-6.9c-7.2-0.7-14.3-2.1-21.5-1.9
    c-11.5,0.2-22.9,1.8-34.3,2.2c-13.9,0.5-26.9,4.1-39.7,9.1c-7.2,2.8-11.2,1.2-14.6-5.8c-0.2-0.4-0.4-0.9-0.6-1.4
    c-7.9-17-3.8-24.6,14.8-30.7c2.3-0.8,4.8-1.1,7.8-1.7c-3.9-7.3-5.2-14.4-3.5-22.1c1.3-5.8,4.5-9.3,10.2-10.2
    c4.3-0.7,8.6-0.9,12.9-1.3c21.7-1.6,43.3,0,64.7,3.5c16.4,2.6,32.8,5.8,49.2,8.8c1.1,0.2,2.3,0.3,3.7-0.7c-10-3.5-19.8-7.5-30-10.5
    c-13.6-4-27.4-7.3-41.1-10.6c-4.1-1-8.5-1.1-12.8-1.1c-3.9-0.1-11.8-6.1-12.8-10.4c-0.1-0.5-0.2-1-0.2-1.5
    c-2.6-16.5,4.9-23.2,22.4-19.8c4.4,0.9,6.7,0.9,8.4-4.1c3-8.9,8.6-11.3,17.7-8.9c5.6,1.5,11.2,3.1,16.2,4.5
    c2.7-4.9,5.1-9.4,7.7-13.8c3.1-5.1,7.6-6.9,13.3-5c5.7,1.9,11.2,4.1,16.9,6.2c1.9,0.7,3.7,1.4,5,1.9c4.6-4.9,8.8-9.6,13.2-14
    c5.7-5.8,13.5-7.2,20.6-3.4c25.1,13.2,50.4,25.9,74.9,39.9c16.7,9.6,32.3,21.1,48.4,31.8c2.3,1.6,4.7,3.1,7.8,3.8
    c-4.1-3.8-8-8.1-12.5-11.5c-20.7-15.7-41.1-31.7-64.6-43.4C819,43.5,811,37.2,803,31.3c-5.9-4.4-7-8.7-3.6-15.3
    c2.3-4.6,5.5-9.2,9.2-12.7c4.5-4.3,8.3-4,13.6-0.6c9.1,5.8,18.2,11.8,27.3,17.6c1.6,1,3.3,2,5.1,3.1c1-3.8,1.4-7.1,2.6-10.1
    c3.8-9.4,11.2-13,20.5-8.2c10.6,5.5,20.7,12.2,30,19.6c18.9,15,37.8,30.1,53.5,48.7c17.6,20.7,32,43.1,34.2,71.3
    c1.1,14.6,2.9,29.2,2.7,43.8c-0.2,15.1-5.5,29.4-11.1,43.4c-2.9,7.2-6.8,14.1-10.9,20.7c-6.6,11-13.4,21.9-20.5,32.6
    c-3.3,4.9-7.3,9.3-10.2,12.9c-1.4,5.3-1.8,10.1-3.8,14.2c-5.8,11.4-12.2,22.5-18.6,33.7c-1.2,2.1-3.1,3.9-4.9,5.6
    c-0.7,0.7-2,0.8-3,1.2c-0.4-1.2-1.3-2.5-1-3.5c1.1-4,2.6-7.9,4-11.8c0.2-0.6,0.2-1.2-0.8-1.3c-1.4-2.2-2.8-4.4-4.2-6.5
    c2.3,0.5,4.7,0.9,7,1.4C920.6,331.3,920.9,331.7,921.3,332.1z M990.1,168.3c0.4-0.1,0.7-0.1,1.1-0.2c-2.4-14.8-3.2-30-7.6-44.1
    c-5.9-18.9-17.2-35.3-31.5-49.2c-10.9-10.7-22-21.2-33.6-31.2c-14.1-12.2-28-24.6-45.4-32.3c-4.4-2-6.6-0.2-8.5,3.1
    c-3.5,6.1-1.8,10.8,5.6,16.4c13.2,10.1,26.6,19.9,39.7,30.2c19.8,15.6,37.6,33.3,47.8,56.7c6.5,14.8,10.3,30.8,15.2,46.3
    c0.3,0.9,0.4,2,0.3,3c-1.7,22.6-3.6,45.3-13.7,66.1c-7.3,15.1-15.3,30-23.8,44.5c-3.8,6.4-2.7,10.5,2.2,15.2
    c2.4,2.4,4.2,2.6,6.1,0.1c1.6-2.1,2.9-4.5,4.3-6.7c8-13.3,16.3-26.4,23.8-39.9c12.1-21.8,20.9-44.6,18.1-70.3
    C989.9,173.3,990.1,170.8,990.1,168.3z M925.6,279.5c2.9-5.3,5.4-10.4,8.2-15.2c13.2-22.3,25.2-44.9,28.5-71.3
    c1.9-15.7,4.1-31.1-2.9-46.1c-0.6-1.3-0.9-2.9-1.3-4.3c-3-13.5-9-25.5-17-36.9c-18.5-26.5-43.4-45.9-69.3-64.1
    c-16.4-11.6-34.1-21.4-51.3-32c-5.1-3.1-7.2-2.8-11,1.9c-6.8,8.3-6.3,12.3,2.9,17.9c11.5,7,23.4,13.4,34.8,20.6
    c13,8.4,25.5,17.6,38.4,26.1c27.8,18.4,45.9,44.4,58.5,74.7c0.6,1.5,1.2,3.2,1.2,4.8c0,13.8,1,27.7-0.6,41.3
    c-2.6,22-14.5,40.5-25.4,59.2c-1.3,2.3-2.9,4.5-3.9,6.9c-3.1,7.6-3,7.6,3.9,12.1C921.3,276.5,923.2,277.8,925.6,279.5z
     M905.3,265.9c2-4.2,3.5-7.9,5.3-11.4c6.8-12.8,14.7-25.1,20.3-38.3c8.7-20.7,11.7-42,1-63.3c-0.7-1.5-1.2-3.1-2-4.6
    c-6.8-14.1-14.6-27.8-27.3-37c-18.7-13.5-37.8-26.8-57.8-38.4c-23.8-13.9-48.7-26.1-73.2-38.9c-5.2-2.7-9.7-1.9-14,2.4
    c-1.4,1.4-2.7,3-4.1,4.3c-5.8,5.3-5.6,6.7,1.4,10.5c0.7,0.4,1.5,0.7,2.3,1c21.6,6.6,41.6,16.7,61.8,26.7
    c24.8,12.3,47.9,26.8,68.4,45.4c19.9,18,30,40.2,28.6,66.9c-0.8,16.5-4.8,32.5-13.4,47.1c-3.9,6.5-6.5,13.8-9.9,21.3
    C896.9,261.7,901,263.7,905.3,265.9z M791,247.6c4.2-1,8.3-1.8,12.2-3c1.1-0.3,2.5-1.8,2.7-3c0.5-3.1,1.1-6.4,0.5-9.4
    c-2-9.8-3.4-19.9-7-29c-5.5-13.7-13.2-26.4-27.1-33.4c-9.6-4.8-19.5-9.4-29.6-13.2c-25.4-9.5-51.3-16.7-78.8-15.7
    c-4.5,0.2-9-0.5-13.5-0.6c-22.6-0.5-45.2,0.1-66.7,8.4c-11.8,4.6-13.1,8.7-7.9,20.3c1.8,4,3.6,5.1,8,3.3c13.1-5.5,26.8-9,41.2-9.4
    c2.8-0.1,5.6-0.8,8.4-0.8c12.1-0.4,24.3-1.7,36.3-0.6c23.6,2,46.7,7,69.2,14.7c20.9,7.1,34,21.3,41.5,41.4
    C784,227.4,787.3,237.3,791,247.6z M832.5,242.1c0.1-19.7-1.1-38.5-10.5-55.7c-12-22.1-28.1-40.1-52.8-48.3
    c-13.1-4.4-26.3-8.7-39.8-11.5c-21-4.4-42.3-7.5-63.4-11.1c-20.2-3.4-40.5-3-60.8-1.7c-2.8,0.2-6.1,1.1-8.2,2.9
    c-3.1,2.6-2.5,12.7,0.2,17.2c2.8,4.7,7.2,2.9,10.8,2.1c25.1-5.6,50.5-1.9,75.7-2.2c2.8,0,5.6,0.9,8.4,1.3c23.4,4.1,45.8,11.4,68,20
    c23.9,9.3,40.2,25.5,48.3,49.8c4.1,12.3,7.1,24.9,6,38.4C820.6,242.8,826.2,242.5,832.5,242.1z M764,261.1c5.3-3,10.3-5.9,15.5-8.5
    c2.7-1.4,3.7-2.9,2.7-5.9c-4.1-11.6-7.3-23.6-12.5-34.7c-5.2-11.1-13.8-20.2-25.2-25.5c-23.4-11-48.3-10.5-73.1-7.3
    c-14.8,1.9-29.5,5.3-44,9.1c-20,5.2-38.1,14.8-55.6,25.6c-3,1.9-4,4.5-2.3,7.7c2,3.8,4.3,7.5,6.7,11.1c1.8,2.7,4,3.1,6.7,0.9
    c3.4-2.7,6.9-5.2,10.5-7.7c11.1-7.7,23.9-11.3,36.5-15.7c20.7-7.3,41.7-12.8,63.7-13.5c19.1-0.7,36.3,4.2,49.2,18.6
    c6.3,7,10.7,16,14.8,24.6C760.5,246.3,761.7,253.5,764,261.1z M850.7,244.9c3,0.6,4.5,0.8,5.9,1.3c1.6,0.5,3.1,1.6,4.6,1.7
    c1.4,0.1,3.6-0.4,4.3-1.5c12.9-20.1,18.5-42.3,17.4-66.1c-0.3-5.7-2.3-12-5.3-16.9c-7.8-12.7-17.6-23.7-29.8-32.6
    c-16.4-11.8-33.3-22.7-51.4-31.6c-25.3-12.4-51.5-22.7-78.7-30.3c-3.7-1-7.4-1.8-11.1-2.9c-8.6-2.7-17.1-5.6-25.7-8.2
    c-7.6-2.2-10.2-0.6-12.4,6.9c-0.5,1.8-0.7,3.6-1.1,5.4c-0.7,2.8,0.3,4.5,3.2,5c3.4,0.7,6.8,1.5,10.3,2c33.9,5,66.3,14.7,96.8,30.5
    c23.1,12,46.1,24.3,66,41.2c11.9,10.1,21.4,22.5,22.5,38.7c0.8,12.3-1.7,24.5-6.6,36.1C856.5,230.5,853.8,237.4,850.7,244.9z
     M885.8,255.6c7.5-17.7,18.2-33.9,21.2-53.6c2.9-19.2,0.7-37.1-9.6-53.8c-9.5-15.4-23.8-25.9-37.7-36.7
    c-19.1-14.9-40.8-25.3-62.5-35.5c-24.8-11.7-50.6-21.3-76-31.7c-1.7-0.7-3.5-1.1-5.3-1.4c-3.7-0.5-11,8.4-9.7,11.8
    c0.3,0.8,1.2,1.7,2,2.1c4,2,8,4.2,12.2,5.6c10.8,3.8,21.9,7,32.7,10.8c35.5,12.2,69,28.5,99,51.3c8.5,6.5,16.3,14.3,23.4,22.3
    c8.1,9.3,15.3,19.6,15.5,32.8c0.2,19.9-2.2,39.2-11.4,57.2c-2.4,4.7-4.7,9.4-7.3,14.4C876.8,252.8,881.1,254.1,885.8,255.6z
     M659.9,68.8c-4.4,0.2-8.8,0.4-13.2,0.8c-4.6,0.4-7.9,2.1-7.7,7.7c0.2,7.4,1.8,9.6,8.2,10.9c12.9,2.6,25.8,4.9,38.6,8.1
    c35,8.6,68.1,22,99.3,40c19.4,11.3,34,27.2,44.2,47.1c2.9,5.7,5.8,11.8,6.9,18.1c2.1,11.9,2.9,24,4.2,36.1c0.2,1.9,0.7,3.8,1.1,5.7
    c0.5,0,1,0,1.4,0c1.8-4.9,3.2-10,5.6-14.6c5.4-10.6,8.7-21.7,9.3-33.5c0.3-6-0.2-12.7-2.6-17.9c-4.5-9.4-10.6-17.9-19.3-24.5
    c-19.9-15.1-41.4-27.3-63.3-39c-19.6-10.5-40.2-18.5-61.9-23.6c-13-3-26.1-5.2-39.2-7.9C661.7,80.2,660.8,79,659.9,68.8z
     M704.2,224.7c-30.1,2.8-55.1,12.2-76.8,29.9c-2.9,2.4-3.2,4.9-0.8,7.7c3.1,3.7,6.5,7.1,9.4,10.9c2.7,3.5,5,3,7.8,0.2
    c4-4,8-8.1,12.1-11.9c8.9-8.2,19.2-14,31.4-15.2c22.6-2.2,43.8,0.2,58.4,20.8c0.7,1,3.5,1.9,4.4,1.4c2.3-1.4,6.4-1.7,5.6-5.9
    c-1.2-6.1-1.3-12.6-6.2-17.4c-5.8-5.6-10.4-13.1-18.7-15.3C721.4,227.7,711.7,226.2,704.2,224.7z"/>
  <path d="M125.7,340.2c-2.2-0.6-5.2-0.5-6.3-2c-3.9-4.9-7.8-10-10.7-15.6c-7.3-14.2-14-28.7-21-43.1c-10.4-21.3-11.5-43.8-8.6-66.9
    c2.1-16.5,6.5-32.2,13.6-47.3c8.1-17.2,15.1-34.9,27.8-49.5c8.3-9.5,16.1-19.6,25.4-28.2c8.7-8.1,18.6-15.2,28.8-21.4
    c5.1-3.1,12-4.1,18.2-4.3c3.3-0.1,7.1,3,9.8,5.6c2.4,2.3,3.6,5.9,5.4,9.1c4.4-2.9,8.7-5.9,13.2-8.5c10.7-6.1,15.1-4.9,22,5.4
    c1.1,1.6,2.2,3.3,3.4,5.1c4.6-2.7,8.7-5.4,13.2-7.5c7.3-3.5,11.8-2,15.8,5.1c2.2,4,4.2,8.2,6.2,12.4c6.7-3.5,13.3-7.3,20.2-10.6
    c9-4.2,12.5-2.9,16.6,5.9c2,4.3,3.5,8.8,5.5,13.9c2.1-1.2,4.7-2.7,7.2-4c6.1-3.3,12.2-6.8,18.5-9.9c6-3,10.9-1.5,13.7,4.6
    c2.4,5.3,3.9,10.9,6,16.8c4.7-2.2,9.4-4.6,14.2-6.8c8.6-4,13.6-3.1,18.9,4.9c2.6,4,4.1,9.1,5,13.8c1.1,5.7-2.9,9.3-7.4,12
    c-6.7,4.1-13.6,7.8-20.2,11.9c-19.8,12.3-39.5,24.7-59.2,37.1c0.2,0.4,0.4,0.8,0.7,1.2c4.5-2.3,8.9-4.6,13.5-6.8
    c26.1-12.7,52-25.6,78.3-37.7c9.5-4.4,19.7-7.3,29.8-9.8c10.6-2.6,15.6,1.1,17.9,11.8c1,4.9,1.7,9.8,2.7,15.3
    c1.7-0.2,3.4-0.6,5.2-0.6c9.4-0.1,18.9-0.6,28.3,0.1c7.4,0.5,9.9,3.7,9.9,11.2c0,5.6-0.8,11.2-1.5,16.8c-0.7,5.3-4.1,7.3-9.3,8
    c-14.6,2-29.7,3-43.7,7.2c-25.7,7.5-51.1,16.3-76,26c-11.8,4.6-22.3,12.5-33.3,19c-2.4,1.4-4.4,3.5-6.1,6.2
    c2.6-1.2,5.2-2.2,7.6-3.5c26.4-14.2,54.4-23.9,84.1-27.2c20.8-2.3,41.8-3.4,62.8-3.3c10.8,0,21.7,3.2,32.4,5.6
    c3.6,0.8,6.9,3.2,10,5.5c5.1,3.7,6.8,9,4.9,15c-1.7,5.2-3.5,10.5-5.6,15.5c-2,4.7-6.1,6.5-11.1,5c-20.8-6.3-42.5-7.5-63.8-7.6
    c-16.7-0.1-33.5,4.8-50.1,8.2c-9.3,1.9-18.3,5.2-27.3,8.2c-3.2,1.1-6.1,3.2-9.1,4.8c0.1,0.4,0.3,0.9,0.4,1.3
    c2.6-0.5,5.3-0.9,7.8-1.6c20.2-5.2,40.6-4.9,61-1.4c8.4,1.5,16.5,3.8,23.3,9.5c5,4.2,5.7,7.8,1.6,12.8c-2.2,2.7-4.7,5.2-7.3,7.5
    c-3.3,3-7.2,3.2-11.3,2c-15-4.7-30.5-5.4-46-4.6c-6.1,0.3-12.5,2.3-18.2,4.8c-15.3,6.9-28.2,17-37.2,31.5c-0.6,1-1.1,2.4-1.1,3.6
    c0,4.2,0.6,8.4,0.2,12.6c-0.2,1.6-2.5,4.1-3.8,4.1c-1.5,0-4.4-2.7-4.2-3.7c1.7-8.7-5.4-11.6-10.1-16.1c-1.9-1.8-4-3.5-6.3-5
    c-17.6-11.2-35.7-21.9-56.1-26.8c-19.8-4.7-39.8-3.7-59.7,2.5c-25,7.7-48.6,17.9-67.3,36.5c-13,13-11,8.3-3.5,24.2
    c2.5,5.4,6,10.2,8.9,15c2.8-1.2,4.9-2.1,7.1-2.9c0.1,0,1.2,1.7,1,1.9c-1.6,1.7-3.3,3.2-5.6,5.3c1.2,3.3,2.8,7.4,4,11.7
    c0.4,1.5-0.4,3.3-0.7,5c-1.4-0.7-3.2-1.2-4-2.3c-2.8-3.9-5.4-7.9-7.8-12.1c-5.1-8.8-9.9-17.7-15-26.5c-3.6-6.2-3.7-11.9,1.7-17.3
    c0.9-0.9,1.2-2.3,1.8-3.5c4.8-4.4,9.6-8.8,13.9-12.6c-2.4-3.1-4.5-5.2-5.9-7.7c-5-8.6-9.5-17.6-14.8-26.1
    c-18.4-29.9-21.3-62.1-13.5-95.4c6.1-26,21-47.9,38.6-67.5c12.5-14,25.7-27.6,41.3-38.3c4-2.7,7.9-5.6,11.4-9
    c1.4-1.4,2.7-4.7,2-6.1c-1.4-2.8-4.2-6.9-6.5-7c-4.6-0.2-10,0.8-13.8,3.3c-9.2,5.9-18.5,12.1-26.3,19.7
    c-9.9,9.6-19.4,19.9-27.2,31.2c-21.1,30.3-36.3,63.1-38.5,100.9c-0.9,15.7,0.4,31,6.8,45.5c4.2,9.6,8.8,19,13.5,28.4
    c5.7,11.5,11.6,22.8,17.3,34.3C124.8,335.7,125.1,338,125.7,340.2z M325.2,320.9c1.4-15.5,8.2-27.1,18.5-36.7
    c13.9-13,29.6-22.5,48-28.7c43.4-14.5,86.9-15.1,131-4.6c1.4,0.3,4.2-1.1,4.8-2.5c1.9-3.9,3.1-8.1,4.5-12.2
    c1.2-3.4,0.3-6.4-2.6-8.4c-2.4-1.7-5-3.8-7.7-4.4c-10.4-2.1-21-5.2-31.5-5.2c-19.9,0-40,1-59.8,3.1c-35.6,3.7-67.9,17.6-98.8,34.8
    c-9.4,5.2-19,11.8-20.1,24c-0.9,10-0.3,20.2-0.2,30.3c0,1,0.7,2.4,1.6,2.9C316.7,315.9,320.5,318.1,325.2,320.9z M304.2,309.4
    c-0.3-3.7-0.4-6.5-0.6-9.3c-1.8-21.3,5.2-39.3,20.6-54.1c16.3-15.7,35.6-27,56.5-35.1c20.2-7.7,40.7-14.9,61.4-21
    c14.8-4.3,30.1-7.1,45.4-9.3c11.6-1.7,12.1-1.2,12.2-13.3c0-0.7-0.1-1.3,0-2c0.7-4.9-1.7-6.8-6.4-7.3c-12.6-1.3-24.9-0.4-37,3.6
    c-2.8,0.9-5.9,1-8.8,1.4c-3.1,0.4-6.2,0.6-9.3,1.1c-16.6,2.5-30.7,11.6-45.8,18.1c-28.2,12.1-55.4,26.4-80.6,44
    c-25.5,17.8-34.6,39.1-26.8,68.6c0.5,2,1.4,4.5,3,5.5C292.9,303.5,298.1,306,304.2,309.4z M228.6,290.4c-0.7-1.7-1.3-2.9-1.6-4.1
    c-2.8-10.9-7-21.7-8.1-32.8c-2.1-20.3,6.5-38,19-53.2c18.1-22,41.9-37.4,65-53.4c16.5-11.4,33.9-21.7,50.9-32.5
    c7.8-5,8.3-6.8,5.7-15.7c-0.3-1-0.6-1.9-0.9-2.9c-2.1-6-3.1-6.6-8.5-3.5c-21.6,12.5-43.5,24.5-64.4,38
    c-27.5,17.8-51.7,39.8-72.5,65.2c-12.5,15.2-20,33.4-18,52.7c1.6,15,8.9,29.4,13.8,44c0.3,1,2.7,1.9,3.9,1.7
    C218,292.9,223,291.6,228.6,290.4z M202.4,296.5c-2.9-7.8-6.1-14.9-8.3-22.3c-2.8-9.2-6.7-18.6-6.7-27.9
    c-0.1-19.2,5.9-37.4,17.6-52.7c16.6-21.8,36.7-40.4,58.7-56.8c14.9-11.1,30.8-21,46.2-31.5c6.3-4.3,6.8-9.8,1.2-18.8
    c-3.6-5.8-6.8,0.4-10.2,0.7c-1.1,0.1-2.1,0.9-3.1,1.6c-18.9,12.7-37.9,25.2-56.7,38.2c-12,8.2-23.1,17.5-32.3,28.9
    c-1.6,1.9-3.7,3.4-5.6,5c-14.8,12.5-25.8,28-33.4,45.5c-6.5,15.1-10,31.4-4,47.7c5.6,15.1,12.2,29.9,18.5,44.7
    c0.5,1.1,2.6,2.5,3.5,2.2C192.8,299.7,197.6,298,202.4,296.5z M277.8,297.1c-0.6-3.1-1.2-5.2-1.4-7.2c-1.7-13.4-1.4-26.6,4.9-39
    c6.5-12.7,15.3-23.8,27.3-31.4c17.2-11,35-21.3,53-30.9c13.9-7.4,29.2-12.3,43-20c12.8-7.2,26.6-10.4,40.5-13.5
    c10.9-2.4,11.3-2.1,9.2-13.1c-2.1-11.6-3.6-12.5-14.9-9c-25.3,7.7-49.2,18.7-72.7,30.7c-15.3,7.8-30.6,15.5-45.9,23.2
    c-18.2,9.1-35.9,19.1-50.2,34c-7.7,8-13.7,16.9-14.6,28.3c-1.1,13.8,1.3,27.2,6.1,40.2c0.5,1.3,1.4,2.9,2.5,3.4
    C268.5,294.3,272.6,295.4,277.8,297.1z M179,304.4c-4.4-10-8.9-19.4-12.9-29.1c-4.9-11.6-10.6-22.9-10.8-36.1
    c-0.5-29.7,13.6-53,31.9-74.4c8.3-9.7,17.5-18.9,27.4-26.9c16.2-13,33.1-25.1,50.1-37.1c9.4-6.6,10.2-8.8,5-18.7
    c-2.4-4.5-4.9-5.4-9-2.6c-9,6.2-18.2,12.2-27.1,18.5c-6.9,4.9-13.7,10.1-20.3,15.5c-14.7,11.9-30.4,22.9-41.7,38.5
    c-7.6,10.5-15.1,21.1-22.7,31.6c-14.2,19.6-18.9,41.3-13.1,64.9c2,8.4,5.3,16.5,8.7,24.4c3.3,7.8,7.5,15.2,11.4,22.7
    c2.7,5.3,5.5,10.5,8.3,16C169.6,309.1,174.3,306.8,179,304.4z M254.9,290.9c-1.3-4.7-2.7-9.1-3.7-13.6c-4.6-20.4-4.7-40.5,9.7-57.3
    c9.2-10.8,19-21.7,30.4-30c21.2-15.5,43.6-29.4,65.7-43.6c12.9-8.3,26.3-15.7,39.4-23.7c4.8-2.9,5.1-6.9,1.7-13
    c-3.3-5.9-6-7.2-11.2-4.4c-15.5,8.4-31.3,16.4-46.2,25.8c-20.4,12.9-40.5,26.3-59.9,40.6c-12.4,9.1-24.1,19.6-34.6,30.8
    c-6.7,7.1-11.7,16.3-15.7,25.3c-4.3,9.4-6,19.9-3.7,30.3c2.2,10.1,5.2,20,8,29.9c0.3,1.1,1.8,2.7,2.8,2.8
    C243.2,291,248.8,290.9,254.9,290.9z M157.9,315.5c-3.9-8-7.6-15.2-11-22.5c-5.5-11.9-11.5-23.6-16.1-35.9
    c-7.4-19.7-6.5-39.8,1.9-58.9c4.1-9.4,10.1-17.9,15.5-26.7c11-17.6,24-33.7,39.9-47.1c14.8-12.4,30.5-23.7,45.9-35.3
    c7.5-5.6,7.6-6.7,1.8-14.1c-2.5-3.2-5.2-4.5-8.9-2.1c-3.5,2.2-7.3,4-10.7,6.5c-7.4,5.4-14.4,11.2-21.7,16.7
    c-25.8,19.6-48.3,42-65.8,69.7c-15.2,24.1-20.5,49.9-18.4,77.7c1.5,20.2,10.4,37.6,20.7,54.6c4.9,8.1,8.9,16.8,13.5,25.6
    C148.5,321.2,153.1,318.4,157.9,315.5z M459.9,286.8c-4.6-5.2-10.8-7.1-17-8.1c-34.8-5.6-68.4-5-98.1,17.9
    c-4.5,3.5-7.9,7.1-9.7,12.2c-1.3,3.7-2.1,7.7-2.6,11.6c-0.9,6.8,0.2,8.5,6.9,11.8c1.7-3,3-6.3,5.1-9c11.3-14.3,25.3-25.2,42.8-30.8
    c19.2-6.2,38.6-3.1,57.7,0.9C453.5,294.9,454.8,294.9,459.9,286.8z"/>
  <path d="M223.8,369c-3.7,0.7-5.4-1.4-6.7-4.5c-4.3-10.1-8.7-20.2-13-30.3c-2.8-6.5-6.3-8.4-12.5-5.2c-11.7,5.9-23.4,12-34.7,18.7
    c-7.2,4.2-7,5.6-2.9,12.7c4.1,7.2,8.1,14.5,12,21.9c0.9,1.6,1.5,3.4,1.8,5.1c0.2,1.1-0.4,2.4-0.6,3.6c-1.2-0.4-2.6-0.5-3.4-1.2
    c-1.9-1.6-3.8-3.4-5.1-5.5c-5.1-8.8-10-17.7-14.8-26.6c-2.3-4.3-1.1-8.4,2.5-11.2c5.4-4.4,11-8.7,17-12.2c8.4-4.8,17.1-9,26-12.8
    c9.7-4.3,17.8-0.6,21.9,9.2c4,9.7,8.4,19.2,12.2,29c1.1,2.8,0.3,6.3,0.3,9.5L223.8,369z"/>
  <path d="M921.3,305.4c-0.4,1.2-0.7,2.9-1.5,4.3c-4.4,8.2-8.8,16.4-13.6,24.5c-1.5,2.5-3.8,4.6-5.9,6.7c-0.8,0.8-2.3,0.9-3.4,1.3
    c-0.2-1.4-0.9-2.8-0.6-4.1c0.5-2.1,1.4-4.1,2.4-6c4.1-7.6,8.2-15.2,12.6-22.7c2-3.5,2-6.1-1.4-8.6c-12.2-9.2-25.7-16-39.8-21.6
    c-4.4-1.8-7.9,0.5-10.1,5.6c-4.3,9.9-8.5,19.9-12.8,29.8c-0.6,1.4-1.1,2.9-2.1,3.9c-0.8,0.8-2.6,1.7-3.4,1.3
    c-1.1-0.5-2.4-2.1-2.5-3.2c-0.1-1.9,0.5-3.9,1.3-5.7c4.2-10.1,8.5-20.3,12.9-30.3c3.5-8.2,11.7-12.3,19.7-8.4
    c13.6,6.5,26.9,13.9,40,21.4C917.2,295.9,921,299.4,921.3,305.4z"/>
  <path d="M216.7,342.5c2.9-2.2,4.9-4.2,7.3-5.6c10.6-5.9,22.2-8.2,34.2-7.4c22.5,1.4,44.7,4.9,65.7,13.7c2.8,1.2,7.7,1.9,6,6.3
    c-1.7,4.5-5.7,1.5-8.6,0.4c-21.8-8.7-44.5-12.9-67.8-12.8c-7.9,0-15.9,2.9-23.8,4.7C225.9,342.6,222.3,345.2,216.7,342.5z"/>
  <path d="M845.6,295.3c-3.3-0.6-6.8-0.7-9.7-2c-14-6.2-28.4-6.2-43.1-4.4c-18.1,2.3-35.8,5.9-52.7,12.9c-1.6,0.7-4-0.8-6-1.2
    c1.1-1.8,1.9-4.4,3.5-5.1c15.2-6.8,31.1-10.6,47.6-12.8c14.3-1.9,28.5-3.9,42.6,0.3c4.9,1.5,9.6,3.8,14.2,6c1.8,0.9,3.1,2.6,4.7,4
    C846.2,293.9,845.9,294.6,845.6,295.3z"/>
  <path d="M847.9,425.2c0,5.1,0.3,10.3-0.1,15.4c-0.4,4.9-3.2,6.8-7.9,5.6c-7.1-1.8-14.1-3.8-21-6.2c-6.5-2.2-8-5.3-4.1-10.8
    c3.9-5.6,9.2-10.3,14.4-14.8c3.2-2.7,7.5-4.2,11.3-6.2c4.3-2.2,6.6-1,6.8,4c0.2,4.3,0,8.6,0,12.9
    C847.6,425.2,847.8,425.2,847.9,425.2z M819.4,433.5c7.6,2,14.4,3.7,21.2,5.5c0-7.5,0-14.6,0-22.1
    C831.2,420,825.1,425.6,819.4,433.5z"/>
  <path d="M242.9,488c-1.1,3.4-2.3,7.9-4.2,12.1c-0.5,1-4.2,1.9-5.3,1.1c-9.1-6.3-18.2-12.8-26.9-19.8c-3.9-3.1-2.7-7.7,2.1-9.3
    c8.5-2.7,17.2-5,25.8-7.4c3-0.9,4.8,0.2,5.3,3.3C240.7,474.3,241.7,480.5,242.9,488z M234.2,468.7c-7.7,3.3-14.2,6.1-21.5,9.3
    c7.5,5.5,14,10.3,20.8,15.4C237.6,485,232.6,477.4,234.2,468.7z"/>
  <path d="M0,549.9c1.3-2,2.7-4.6,4.4-6.9c4.1-5.5,4.3-6.5,0-11.6c-2.7-3.2-5.1-6.5-3-10.8c2.2-4.6,6.3-6.9,11.3-6.9
    c4.7,0,8.1,2.3,10.3,6.7c2.2,4.3,4.9,8.3,6.9,12.6c0.7,1.6,0,3.8-0.1,5.7c-1.8-0.7-4.3-0.9-5.3-2.2c-2.8-3.9-4.8-8.4-7.6-12.2
    c-1.2-1.6-3.8-3.3-5.7-3.2c-2.8,0.2-4.2,2.1-2.1,5.3c7.1,10.4,7,11.5-0.1,21.5c-1,1.5-1.2,3.6-1.7,5.4c-0.5,1.5-1,3-1.5,4.6
    c-1.5-1.1-3.3-1.9-4.5-3.3C0.5,553.7,0.6,552.1,0,549.9z"/>
  <path d="M1057.5,504.1c-1.1-2.1-2-4.4-3.4-6.3c-5.7-7.7-5.8-11.6-0.1-19.2c1.4-1.9,3.5-3.8,0.5-5.8c-2.8-1.9-5.3-1.3-7.1,1.8
    c-2.4,4.2-4.6,8.5-7.4,12.4c-1.1,1.5-3.7,1.9-5.6,2.8c0-2.1-0.7-4.4,0-6.1c2-4.5,4.7-8.8,7.1-13.1c2.4-4.2,6.1-6.1,10.8-5.7
    c4.8,0.4,9,2.7,10.3,7.4c0.7,2.4-0.2,6-1.6,8.2c-5.2,7.9-5.4,7.8,0.3,15.6c2.2,3.1,3.3,6.4,1.3,9.7c-0.9,1.4-3,2-4.6,3
    c-0.6-1.4-1.2-2.7-1.9-4.1C1056.6,504.6,1057,504.3,1057.5,504.1z"/>
  <path d="M189.2,374.4c-3.4-2.5-7.8-4.1-9.7-7.3c-3.6-6.1-5.9-12.9-8.3-19.6c-0.6-1.6,0.7-3.8,1.2-5.8c1.6,1.3,3.7,2.3,4.6,3.9
    c2.2,4.1,4,8.4,5.8,12.7c3.4,8.1,5.5,8.9,13.7,5.3c3.3-1.5,6.7-3.1,10.2-4c1.3-0.3,3.4,0.8,4.5,1.8c0.5,0.4-0.2,3.3-1.1,3.7
    C203.6,368.3,196.8,371.1,189.2,374.4z"/>
  <path d="M1020.9,529.7c-12.5-2.4-18.3-12.5-13-23.6c2.4-5.1,5.7-9.8,9.2-14.2c3.5-4.5,8.1-5.2,12.9-2.2c3.2,2,6.3,4.4,9.1,6.9
    c0.9,0.9,0.9,2.8,1.4,4.2c-1.4-0.1-2.9,0.1-4.1-0.5c-3-1.5-5.6-3.8-8.7-4.9c-1.8-0.6-5.1-0.2-6,1.1c-3.2,4-5.8,8.5-8.2,13
    c-2.2,4.1-1.5,7.9,2.1,11.2c2.5,2.3,4.5,5.2,6.7,7.8C1021.8,529,1021.4,529.4,1020.9,529.7z"/>
  <path d="M41.2,578.4c2.4-3,4-5.4,6-7.6c5.6-5.9,6.1-8.9,1.9-15.8c-1.8-3-3.8-5.9-5.7-8.8c-2-3-4.5-3.8-7.6-1.9
    c-2.8,1.7-5.6,3.6-8.5,5.1c-1,0.5-2.4,0.2-3.6,0.2c0.3-1.3,0.1-3.1,1-3.8c3.4-2.9,7-5.7,10.8-8c3.5-2.1,7.5-1.7,10.1,1.3
    c5.6,6.5,11.3,13.2,12.7,22.1C59.3,569.2,50.9,578.3,41.2,578.4z"/>
  <path d="M874.8,325.6c-7.5-3.2-14.1-5.9-20.5-9c-0.9-0.4-1.7-3.1-1.2-4.1c0.5-1,2.8-2,4-1.7c3.5,1,6.9,2.4,10.2,3.9
    c8.5,3.8,10.5,3,14-5.4c1.9-4.4,3.8-8.9,6.1-13.1c0.7-1.4,2.7-2.1,4-3.1c0.5,1.7,1.9,3.8,1.4,5.2c-2.5,6.8-4.8,13.8-8.4,20.1
    C882.7,321.5,878.3,323.1,874.8,325.6z"/>
  <path d="M23.2,577.2C23.1,568,26.8,562,34,559.3c1.4-0.5,3.2,0.3,4.9,0.6c-0.6,1.7-0.6,4.3-1.8,4.9c-4.7,2.5-7.8,5.9-7.3,11.3
    c0.6,6.1,4.1,10.6,8.8,14.4c1.2,1,2.6,3.4,2.1,4.3c-1.3,2.8-4.1,3-6.2,1.1C28.5,590.7,24,584.4,23.2,577.2z"/>
  <path d="M1040.8,528.7c-0.5,6.8-5,13.1-11.1,18.3c-1.1,0.9-4.7,0.5-5.9-0.7c-2.2-2.1,0.3-3.2,1.8-4.9c3.2-3.6,6.4-7.6,8.3-12
    c2.1-4.8-0.5-9.1-5.6-12.4c-2.1-1.4-4.9-2.9-2.8-5.7c0.8-1,4.3-0.8,6,0C1038.3,514.3,1040.7,520.1,1040.8,528.7z"/>
  <path d="M74.2,522.2c2,1.6,3,2,3.4,2.8c4.8,7.5,9.6,15.1,14,22.8c0.5,0.9-0.3,3.6-1.2,4.1c-0.9,0.6-3.6-0.1-4.2-1
    c-4.5-7.5-8.8-15.2-12.8-23C72.8,526.8,73.8,524.8,74.2,522.2z"/>
  <path d="M990.7,474.8c-0.3,2.3,0,5-1,7c-3.2,6.4-6.8,12.6-10.6,18.6c-1,1.5-3.6,2-5.4,3c-0.2-2.1-1.2-4.5-0.4-6.1
    c2.8-5.7,6-11.1,9.4-16.4c1.6-2.5,4.1-4.5,6.2-6.7C989.4,474.3,990,474.5,990.7,474.8z"/>
  <path d="M986.4,512.8c-0.6-2.2-2-4.5-1.4-5.5c4.6-7.5,9.6-14.7,14.7-21.9c0.6-0.9,2.6-0.9,3.9-1.3c0.1,1.2,0.8,2.8,0.3,3.6
    c-4.5,7.8-9.1,15.4-13.8,23.1C989.7,511.5,988.4,511.7,986.4,512.8z"/>
  <path d="M58.8,534c1.8-0.4,3.4-1.3,4.2-0.8c1.8,1.1,3.4,2.7,4.6,4.4c3.7,5.3,7.1,10.8,10.6,16.3c1.4,2.2,2.7,5-0.4,6.3
    c-1.2,0.5-4.3-1.2-5.4-2.7c-3.6-5-6.8-10.2-10-15.5C61.3,540,60.5,537.6,58.8,534z"/>
  <path d="M88,513.9c1.2,1,2.1,1.5,2.7,2.3c4.8,6.4,9.6,12.7,14,19.3c0.8,1.2-0.3,3.7-0.6,5.7c-1.6-0.5-3.9-0.4-4.7-1.5
    c-4.2-5.9-8.2-12.1-12-18.3c-0.8-1.3-1.1-3.1-1.2-4.7C86.2,515.8,87.3,514.9,88,513.9z"/>
  <path d="M978.1,469.1c-1,2.1-1.8,4.2-2.9,6c-3.2,5-6.4,10.1-10.1,14.9c-1,1.3-3.5,1.5-5.3,2.2c-0.3-1.8-1.4-4.2-0.7-5.3
    c4.5-6.7,9.4-13.2,14.3-19.7c0.6-0.8,2.3-1.2,3.3-1.1C977.4,466.3,977.7,468.1,978.1,469.1z"/>
  <path d="M856,621.6c-2.1-3-4.4-4.8-4.3-6.6c0-1.5,2.9-4.3,4.1-4.1c1.8,0.4,4.1,2.5,4.5,4.4C860.7,616.6,858.2,618.5,856,621.6z"/>
  <path d="M214.2,663c-2.8,1.8-4.7,3.9-5.9,3.6c-1.7-0.5-3.6-2.6-4.1-4.4c-0.2-0.9,2.6-3.8,3.9-3.6
    C209.8,658.7,211.4,660.8,214.2,663z"/>
  <path d="M220,317c1.7-2.1,2.6-3.2,3.5-4.4c1.7,2.1,3.5,4.1,4.8,6.4c0.2,0.4-1.8,2.1-2.8,3.2C223.9,320.7,222.1,319.1,220,317z"/>
  <path d="M844,268.4c-2,2-3.6,3.6-5.4,4.9c-0.2,0.1-3-2.6-2.8-2.9c1.3-2.3,3.1-4.3,4.8-6.4C841.5,265.2,842.4,266.4,844,268.4z"/>
  <path d="M834,555.6c-2-2.8-4.1-4.5-3.9-5.9c0.2-1.5,2.5-3.4,4.1-3.7c1-0.2,3.5,2.2,3.5,3.5C837.8,551.2,835.9,552.8,834,555.6z"/>
  <path d="M851.5,582.8c-2.9,1.9-4.6,4-6.1,3.8c-1.5-0.2-3.3-2.5-3.6-4.1c-0.2-0.9,2.3-3.4,3.6-3.4
    C847,579.1,848.6,580.9,851.5,582.8z"/>
  <path d="M825.4,523.6c-1.7-2.7-3.5-4.3-3.3-5.6c0.3-1.4,2.4-3.4,3.7-3.4c1.2,0,3.4,2.2,3.4,3.6C829.3,519.5,827.4,521,825.4,523.6z
    "/>
  <path d="M200.6,346.3c-2.7,1.7-4.4,3.6-5.6,3.4c-1.5-0.3-2.6-2.4-3.8-3.7c1.3-1.2,2.5-3.3,3.9-3.4
    C196.4,342.5,197.9,344.4,200.6,346.3z"/>
  <path d="M874.6,297.3c-2.7,1.8-4.2,3.7-5.6,3.6c-1.3-0.1-3.5-2.3-3.4-3.5c0.1-1.4,2.1-3.3,3.5-3.6
    C870.4,293.6,872,295.5,874.6,297.3z"/>
  <path d="M224.9,629.7c-2.7,1.8-4.3,3.7-5.6,3.5c-1.4-0.2-3.5-2.3-3.6-3.6c-0.1-1.2,2.2-3.4,3.5-3.5
    C220.6,625.9,222.1,627.8,224.9,629.7z"/>
  <path d="M245.6,318.9c-1.5-3-2.7-4.5-2.9-6.2c-0.1-1,1.2-2.2,1.9-3.3c1.3,1.6,2.9,3,3.7,4.7C248.7,314.8,247.2,316.3,245.6,318.9z"
    />
  <path d="M818.3,270c-1.4-2.6-2.8-4.1-2.5-4.8c0.8-1.7,2.4-3.1,3.7-4.5c0.7,1.1,2,2.4,1.8,3.4C821.1,265.7,819.8,267.1,818.3,270z"
    />
  <path d="M229.9,601.8c-1.6-2.2-3.4-3.5-3.4-4.7c0.1-1.2,2-2.4,3.1-3.6c1.1,1.2,2.9,2.3,3.2,3.7C233,598.1,231.4,599.6,229.9,601.8z
    "/>
  <path d="M243.2,565.6c-2.4,1.6-3.9,3.3-5.1,3.1c-1.2-0.2-2.8-2.1-3-3.5c-0.1-0.8,2-2.9,3-2.9C239.4,562.4,240.7,564,243.2,565.6z"
    />
  <path d="M796.3,271.8c-0.5-1.2-1.7-2.7-1.3-3.5c0.8-1.6,2.4-2.7,3.7-4c0.6,1,1.9,2.2,1.7,3.1c-0.4,1.7-1.6,3.1-2.5,4.7
    C797.4,271.9,796.9,271.9,796.3,271.8z"/>
  <path d="M269.7,318.3c-1.1,0.7-2.9,2.1-3.1,1.9c-1.2-1.3-2.4-2.8-2.9-4.5c-0.2-0.6,1.5-2.6,2-2.5c2,0.6,3.7,1.7,5.6,2.6
    C270.8,316.7,270.3,317.5,269.7,318.3z"/>
  <path d="M818.8,491.9c-1.1-2-2.2-3.2-2.1-4.3c0.1-0.8,1.7-1.5,2.6-2.3c0.8,1,2.1,2,2.3,3.1C821.7,489.2,820.2,490.2,818.8,491.9z"
    />
  <path d="M509.1,545.4c-0.8-8.1-1.4-15.1-2.4-22.2c-2.2-15.7-4.5-31.3-7-46.9c-0.3-1.8-1.6-4.6-2.8-4.9c-2.9-0.6-5.1,1-6.3,4.3
    c-5.4,15.6-11.5,30.9-20.5,44.9c-2,3.1-4.4,5.8-7.6,9.9c1.7,1.2,3.5,2.5,5.3,3.9c9.3,7.6,16.3,17,22.5,27.2
    c4.5,7.5,4.7,7.4,13.1,5.6c9-1.9,17.9-3.6,27.4-5.5c0-0.8,0-2.1-0.2-3.3c-2.4-13.4-5.1-26.8-7.1-40.3c-2.3-16-3.9-32.1-5.8-48.1
    c-0.9-7.6-2.1-15.2-3-22.8c-0.4-3.2-1.7-4.4-5.2-4.4c-8.6-0.1-17.2-1-25.9-1.3c-1.5,0-4,1.3-4.4,2.4c-9.3,32.3-25.2,61.2-44.8,88.2
    c-0.5,0.7-0.8,1.4-1.3,2.4c3.9,2.7,7.9,5,11.4,7.9c15.4,13,26.5,29.3,36,46.8c2,3.7,4,4.2,8.2,4.1c16.2-0.6,30.4-8,45.6-12.2
    c1.9-0.5,4.3,0.7,6.5,1.1c-1.4,1.7-2.4,4.4-4.2,5.1c-10.4,3.9-20.9,7.8-31.7,10.7c-6.7,1.8-13.8,2.4-20.7,2.5c-2.6,0-6.1-2.6-7.8-5
    c-8.2-11.9-15.3-24.6-24.2-36c-5.7-7.4-13.4-13.4-20.8-19.3c-4.8-3.9-6-5.6-2.7-10.8c3.7-5.8,7.7-11.3,11.5-17
    c14.7-22.1,26-45.7,32.8-71.4c1.4-5.2,4.1-6.9,9.5-6.7c9.9,0.5,19.9,0.9,29.9,1.2c5,0.2,7.9,2.6,9,8.9c1.3,7.7,2.1,15.5,3.2,23.3
    c4.5,30,9,59.9,13.6,89.9c1.2,7.6,1.2,8.4-6.1,10.2c-11.3,2.9-22.7,5.5-34.1,7.6c-2.4,0.4-6-1.2-7.7-3.1c-4.3-5-7.5-11-11.7-16.1
    c-5.8-6.8-12-13.3-18.4-19.6c-4.5-4.4-5.3-5.2-1.4-10.4c10-13.2,16.9-27.8,22.9-43.1c1.5-3.7,2.4-7.7,4.2-11.2
    c1.2-2.3,3.4-4.8,5.7-5.6c9.4-3.5,12.7-1.2,14.1,8.8c3.3,22.9,6.7,45.8,9.8,68.7c0.3,1.9-1.1,5-2.7,6.1c-3,2.2-7.1,3.3-10.2,0.3
    c-5.1-5-10.1-10.2-14.5-15.8c-2.9-3.7-3.3-8.3-1.4-12.8c1.3-3.1,2.1-6.4,3.7-9.3c1-1.7,3.1-2.7,4.8-4c0.5,2,1.6,4.1,1.2,6
    c-0.6,3.1-2.6,5.9-3,8.9c-0.4,2.7-0.4,6.3,1.1,8.3c3.2,4.6,7.4,8.5,11.3,12.6C506.3,544.7,507.3,544.8,509.1,545.4z"/>
  <path d="M562.5,570.9c2.7-3.1,5-6.7,8.2-9.2c20-15.6,36.4-34.6,52.4-54c1.6-1.9,2.7-4.2,4.1-6.2c2.8-4.2,2.3-7.4-0.5-12
    c-12.6-20.9-25.9-41.6-33.7-65c-2.2-6.6-3.3-13.5-4.9-20.3c-0.8-3.5-1.6-7.1-2.3-10.6c-0.5-0.2-1-0.5-1.5-0.7
    c-2.3,2.6-5.1,4.9-6.8,7.8c-6.4,11.7-15.9,20.5-26,28.7c-2.5,2.1-5.6,3.4-9.2,5.5c7.2,14.5,6.4,30.7,9.1,46.4
    c3.1,18.4,6.1,36.8,9.1,55.2c0.3,1.6,0.6,3.1,1.2,5.9c6.5-6.9,12.4-12.8,17.9-18.9c7.2-8.1,14.2-16.3,21.1-24.7c1-1.2,1.5-4,0.8-5
    c-10.4-15.5-17.7-32.4-24.2-49.7c-0.3-0.9-0.9-1.7-1.3-2.6c-7.3,3.5-11.4,9.5-10.5,16.5c1.9,13.7,4.3,27.3,6.5,40.9
    c0.1,0.4,0.5,0.8,1.2,1.7c3-3.1,5.9-6,8.6-9.1c1.9-2.1,1.9-4.1-0.5-5.9c-2.1-1.6-4.3-3.3-5.9-5.4c-0.7-1-0.6-3.2,0-4.3
    c0.3-0.6,3.1-0.8,3.9-0.2c3.4,2.6,7,5.3,9.6,8.6c3.5,4.6,0.1,8.6-2.7,12.1c-3.5,4.4-7.3,8.6-11.3,12.6c-1.3,1.3-3.8,2.5-5.5,2.2
    c-1.3-0.2-2.9-2.7-3.1-4.4c-2.8-17.2-5.4-34.5-8-51.8c-0.7-4.3,0.6-7.8,3.8-10.7c2.6-2.3,4.9-5,7.4-7.5c5.7-5.6,9.7-4.8,12.9,2.5
    c5.3,12.1,10.2,24.2,15.8,36.2c2.9,6.3,7.1,11.9,10.2,18.1c0.8,1.7,0.4,5-0.9,6.4c-11.5,13.4-23.2,26.6-35.2,39.6
    c-4.3,4.7-9.7,8.3-15.8,13.4c-1.1-5.8-1.9-9.9-2.5-13.9c-4.1-27.2-8-54.4-12.2-81.5c-1.1-7.2-3-14.3-4.6-21.5c-0.7-3,0.4-4.5,3-6.4
    c11.9-8.4,22.6-18,30.4-30.7c2.6-4.2,6-8,9.7-11.2c4-3.4,8.5-2.2,10.5,2.8c1.6,3.8,2.6,7.9,3.1,12c2.7,19.4,11.4,36.4,20.6,53.2
    c6.3,11.5,13.8,22.4,20.1,33.9c1.4,2.5,1.4,6.9,0.2,9.5c-3.3,6.5-7,13-11.7,18.4c-10.9,12.6-22.1,24.9-33.9,36.7
    c-6.4,6.4-14.3,11.4-21.6,16.9c-1.1,0.8-2.5,1.1-3.8,1.7C563.6,572.1,563.1,571.5,562.5,570.9z"/>
  <path d="M772.3,387.8c-9,0-18.2-9.9-18.3-19.7c-0.1-8.5,10-19.3,17.9-19.2c10.9,0.1,19.3,9.3,19.3,21.1
    C791.2,379.8,782.7,387.8,772.3,387.8z M783.8,370c0-7.9-5.5-13.6-13.5-14c-3.7-0.2-9.8,7.4-9.7,11.9c0.2,6.5,6.3,13.2,12,13
    C779,380.8,783.8,376,783.8,370z"/>
  <path d="M782.1,415.2c0.1,9.8-10.8,21-20.6,21c-7.6,0-13.6-6.7-13.8-15.3c-0.2-9.9,8.5-21.6,16.7-21.3
    C772.5,399.8,781.7,405.1,782.1,415.2z M754.2,419.6c-0.1,5.5,2.9,9.6,7.2,9.7c5.6,0.2,13.1-7.6,13.2-13.6c0-4.5-4.9-8.5-11-8.7
    C758.6,406.8,754.3,412.4,754.2,419.6z"/>
  <path d="M680.3,413.4c0.1-2.7,0.1-4.1,0.3-5.4c0.6-5.4,1.4-11.4,7.6-12.8c7.2-1.6,15.1-0.8,19,6.3c2.4,4.4,4.4,9.5,4.9,14.4
    c1.1,9-5.3,16.2-14.2,17.5c-7.8,1.1-14.8-4.2-16.7-13C680.6,417.7,680.5,414.8,680.3,413.4z M686,413.7c0.4,1.6,0.7,4.3,1.6,6.7
    c1.7,4.5,6,6.9,10.2,6c4.8-0.9,8.1-4.6,7.3-9.7c-0.6-4.1-2.2-8.4-4.4-11.9c-2.5-4.1-7.2-3.3-10.8-1.9c-1.6,0.6-2.5,3.7-3.4,5.7
    C686.1,409.9,686.2,411.4,686,413.7z"/>
  <path d="M688.9,350.7c8.4-0.5,16,6.7,16.5,15.3c0.5,9.6-8,20-16.7,20.7c-8.4,0.6-15.6-7.5-16.1-18.1
    C672,358.6,678.8,351.2,688.9,350.7z M698.3,367.2c0-5.6-5.9-10.6-12.4-10.4c-3.5,0.1-7.4,5.7-7.4,10.6c-0.1,6,4.6,12.6,9,12.7
    C692.7,380.3,698.4,373.5,698.3,367.2z"/>
  <path d="M312.5,437.1c-10.2,0.1-18.7-8.4-18.8-18.8c-0.1-10.9,7.2-21.7,15-21.2c16.8,1.1,24.5,5.5,25,19
    C334.2,427,323.7,437,312.5,437.1z M311.1,404.6c-6.8,0.1-8.3,1.2-10.2,7.9c-0.3,1.3-0.7,2.6-0.8,3.9c-0.8,6.8,4.1,13.3,10.5,14.1
    c7.2,1,14.8-4.6,16.2-11.8c1.3-6.8-2.3-12-9.8-13.6C315.1,404.8,313.1,404.8,311.1,404.6z"/>
  <path d="M291.6,468.8c0-0.5,0-1,0-1.5c0.4-8.1,5.9-16,12.1-17.3c7.2-1.6,18.2,3.2,21.1,10.3c1.4,3.5,1.5,8.2,0.6,12
    c-1.9,8.4-8.8,12.6-16.4,14.4C299,489,291.3,480.6,291.6,468.8z M306,456.5c-4.6,0-8.1,5.6-8,13c0,6.8,3.5,11,9,10.8
    c5.9-0.2,13-7.7,13-13.7C319.9,461.4,313.2,456.5,306,456.5z"/>
  <path d="M403.8,424.4c0,9.4-8.1,16.7-18.5,16.7c-8.5,0-15.8-7.7-15.8-16.5c0-10.5,8.5-19.7,18-19.6
    C397.2,405.1,403.8,413,403.8,424.4z M396.5,424.4c-0.1-7.4-5.5-13.2-11.9-12.8c-4,0.2-8.9,7.1-9,12.6c0,5.4,4.5,10.4,9.4,10.3
    C391.3,434.5,396.6,429.9,396.5,424.4z"/>
  <path d="M388,470.5c-0.1,7.5-8,15-15.8,15c-7.4,0-14.5-6.8-14.4-13.8c0.1-7.8,7.1-16.8,13.4-16.3
    C380.9,456.2,388.4,460.2,388,470.5z M372.3,479.8c4.5,0,9.8-4.9,9.8-9c0.1-5.9-5.5-10-13.6-10c-2.6,0-6.1,6.2-5.9,10.5
    C362.7,475.2,368,479.8,372.3,479.8z"/>
  <path d="M431.1,1247c-2.2-5-4.1-10.2-5.9-15.6c-1.9,0.6-3.8,1.1-5.7,1.6c1.6,5.4,3.4,10.8,5.5,16c4.7,11.3,9.3,22.7,14.2,33.9
    c2.3-0.4,4.6-1,6.8-1.6C441,1270,436.1,1258.5,431.1,1247z"/>
  <path d="M443.5,1225.5c-2.5,0.8-5,1.6-7.5,2.4c4,13.5,9.8,30.5,18.7,50.2c2.5-1.1,4.9-2.4,7.2-3.9
    C455.4,1258.1,448.6,1242.2,443.5,1225.5z"/>
  <path d="M591.8,1216.6c2.6-0.9,5.2-1.8,7.8-2.6c-4.1-10.6-7.6-21.3-10.4-32.1c-2.7,0.3-5.4,0.6-8.1,0.7
    C584.4,1194.1,587.8,1205.5,591.8,1216.6z"/>
  <path d="M608,1211.9c1.8-0.4,3.6-0.9,5.4-1.3c-4-10.6-7-21.3-9.4-32.1c-1.9,0.7-3.8,1.3-5.7,1.8
    C601.4,1190.8,604.6,1201.4,608,1211.9z"/>
</g>
</svg>
