<?xml version="1.0" encoding="utf-8"?>
<!-- Generator: Adobe Illustrator 24.0.0, SVG Export Plug-In . SVG Version: 6.00 Build 0)  -->
<svg version="1.1" xmlns="http://www.w3.org/2000/svg" xmlns:xlink="http://www.w3.org/1999/xlink" x="0px" y="0px"
	 viewBox="0 0 1000 1000" style="enable-background:new 0 0 1000 1000;" xml:space="preserve">
<style type="text/css">
	.st0{fill:#00FF00;}
	.st1{fill:#FAE13C;}
	.st2{fill:#6B6B69;}
	.st3{fill:#7993AD;}
	.st4{fill:#696969;}
	.st5{fill:#3D3D3D;}
	.st6{fill:#D5FFA1;}
	.st7{fill:#FF0011;}
	.st8{fill:#AA00FF;}
	.st9{fill:#0000FF;}
	.st10{fill:#919191;}
	.st11{fill:#704D4D;}
	.st12{fill:#242424;}
	.st13{fill:#454545;}
	.st14{fill:#2098FA;}
	.st15{fill:#CCE7FC;}
	.st16{fill:#FCF9CC;}
	.st17{fill:#FF0000;}
	.st18{fill:#E3FFE3;}
</style>
<g id="Layer_3">
	<g>
		<path class="st0" d="M270.5,705.6c0.2-3.5-0.3-3-0.2-1.6c0.1,0.5,0.2,1,0.2,1.5C270.5,705.5,270.5,705.5,270.5,705.6z"/>
	</g>
	<g>
		<path class="st0" d="M703.9,226.8C705.1,224.1,704.5,224.9,703.9,226.8L703.9,226.8z"/>
		<path class="st0" d="M693.7,148c-0.3-0.1-0.1,0.6,1.5,1.7c0,0,0,0,0-0.1C694.6,149.2,694.2,148.6,693.7,148z"/>
	</g>
	<g>
		<path class="st0" d="M671.4,125.8c1.3,0.7,2,1.1,2.3,1.2C672.9,126.7,672.2,126.2,671.4,125.8
			C671.4,125.8,671.4,125.8,671.4,125.8z"/>
		<path class="st0" d="M721.9,315.7c0.2-0.2,0.6-1,0.7-2.2c0,0,0,0.1,0,0.1C722.5,314.3,722.2,315,721.9,315.7z"/>
		<path class="st0" d="M721.8,341.2c0.3-3.8-0.2-3.1-0.2-1.6C721.7,340.2,721.8,340.7,721.8,341.2
			C721.8,341.2,721.8,341.2,721.8,341.2z"/>
		<path class="st0" d="M653.4,121.2c3.6,0.9,2.8,0.6,1.4,0.2c-0.3-0.1-0.6-0.1-1-0.2C653.7,121.2,653.6,121.2,653.4,121.2z"/>
	</g>
	<g>
		<path class="st0" d="M490.3,864.5c0,0,0.1,0.1,0.1,0.1c0,0,0.1,0,0.1,0c0,0,0-0.1-0.1-0.1C490.4,864.5,490.4,864.5,490.3,864.5z"
			/>
		<path class="st0" d="M491.4,865.1C491.5,865.1,491.5,865.1,491.4,865.1c0,0,0-0.1-0.1-0.2C491.4,865,491.4,865,491.4,865.1z"/>
		<path class="st0" d="M491.3,864.8C491.3,864.8,491.3,864.9,491.3,864.8C491.3,864.8,491.3,864.8,491.3,864.8z"/>
		<path class="st0" d="M491.1,864.6C491.1,864.5,491,864.5,491.1,864.6C491,864.5,491,864.5,491.1,864.6c-0.2,0-0.3,0-0.5-0.1
			c0,0,0.1,0.1,0.1,0.1c0.1,0,0.2,0.1,0.3,0.1c0,0.1,0,0.2,0.1,0.2c0.1,0,0.1,0.1,0.2,0.1c0-0.1-0.1-0.2,0-0.3c0,0,0,0,0,0
			c0.5,0.2,1.1,0.4,1.5,0.5c0,0,0.1,0,0.1,0C492.7,865.1,492.1,864.7,491.1,864.6z"/>
		<path class="st0" d="M495.6,865.3c0,0,0.1,0,0.1,0c0.2,0,0.4,0,0.6,0c0.3,0,0.6-0.1,0.8-0.1C498.8,864.8,499,864.2,495.6,865.3z"
			/>
		<path class="st0" d="M490.5,864.5c0,0,0.1,0,0.1,0c-0.1-0.1-0.3-0.3-0.4-0.4C490.3,864.2,490.4,864.4,490.5,864.5z"/>
		<path class="st0" d="M378.4,845.9c0.3,0.6,0.6,1.2,0.9,1.8c0,0,0.1,0.1,0.1,0.1c0-0.2-0.3-0.8-1.1-2.1
			C378.3,845.8,378.3,845.9,378.4,845.9z"/>
	</g>
	<g>
		<path class="st0" d="M256.5,440.3c0.8,0.3,1.6,0.7,2,1.2c0,0,0,0,0,0C257.9,440.7,256.9,440.3,256.5,440.3z"/>
		<path class="st0" d="M228.5,345.7c-0.1,0.7-0.2,1.6-0.3,2.1c0,0.1,0,0.1,0,0.2C228.7,347.3,228.7,345.9,228.5,345.7z"/>
		<path class="st0" d="M228.7,365.6c0,0.3,0,0.6,0,0.8c0,0.1,0,0.2,0,0.3C228.8,366.5,228.8,366,228.7,365.6z"/>
		<path class="st0" d="M251.7,437.1c0,0,0,0.1,0.1,0.1c0.1,0.1,0.2,0.2,0.3,0.3c0.1,0.1,0.3,0.3,0.5,0.5c0.1,0.1,0.2,0.1,0.2,0.2
			C252.1,436.7,251.5,436.6,251.7,437.1z"/>
		<path class="st0" d="M798.1,639.2c-0.8-19.5-7.6-35.4-20.4-49.9c-4.4-5-9.3-9.5-14-14.2c-2.2-2.2-4.3-4.4-6.3-6.7
			c-0.2-0.2-0.7-0.9-1.3-1.5c-0.2-0.3-0.4-0.6-0.5-0.7c-0.6-0.9-1.2-1.8-1.8-2.7c-1.8-2.7-3.4-5.5-4.9-8.4c-0.6-1.1-1.1-3.1-1.9-4.2
			c-0.2-0.4-0.3-0.9-0.5-1.3c-0.6-1.7-1.1-3.3-1.6-5c-0.1-1.7-0.1-3.4-0.2-5.1c-0.6-18.6-2-37.1-3.8-55.6
			c-0.7-6.6-1.4-13.2-2.1-19.9c-2.1-28.1-5.2-56.2-10-84c-1.4-8-3-16-4.7-23.9c-0.7-5-1.4-10-2.1-15c0,0,0,0,0,0.1c0,0,0-0.1,0-0.1
			c0-0.3-0.1-0.5-0.1-0.8c0-0.3-0.1-0.6-0.1-0.8c-0.1-0.3-0.1-0.7-0.2-1c-0.2-2.1-0.5-4.1-0.6-6.2c-0.3-4.4-0.2-8.7-0.1-13.1
			c0.2-0.7,0.4-1.4,0.4-1.5c0.2-0.6,0.5-1.3,0.8-2.1c-0.3,0.2-0.4-0.2,0.2-1.3c0.2-0.3,0.3-0.6,0.5-0.9c0-0.2,0.1-0.4,0.1-0.6
			c0,0.2,0,0.4,0,0.5c0.2-0.4,0.4-0.7,0.6-1.1c1-1.8,2.1-3.5,3.3-5.2c0.3-0.4,0.5-0.8,0.7-1c1.1-1.3,2.2-2.6,3.3-3.9
			c2.5-3,5.1-5.9,7.6-9c11.6-14.2,20.4-29.8,24.4-47.8c4.1-18.3,3.9-36.3,1.2-54.7c0.8-2.3,1.2-4.7,1.3-7.3
			c1.2-30.3-9.9-60.1-29.2-83.1c-2.7-5.7-5.9-11-9.6-15.9c-8.2-10.9-17.8-20.5-29.8-27.3c-11.8-6.7-25-10.6-38.4-12.7
			c-28-4.4-56.4-3.5-83.8,3.9c-12.8,3.5-25.1,8.6-37.1,14.2c-5.2,2.5-10.4,5-15.7,7.4c-1,0.4-2,1-3,1.4c-0.3,0.1-0.6,0.2-0.8,0.3
			c-3.2,1.2-6.4,2.4-9.7,3.4c-3.3,1-6.6,1.7-9.9,2.4c-1.1,0.2-1.6,0.3-1.7,0.4c-1.7,0.1-3.5-0.1-4.7-0.1c-8.6,0.3-16.9,0.6-25.3,2.1
			c-9.1,1.6-17.8,4.3-26.5,7.3c-30.9,4.1-60.8,13-89,26.7c-9.4,4.6-18.5,9.6-23.9,19c-4.3,7.4-4.5,15.5-1.9,22.6
			c-16.2,5.7-30.5,14-43.1,25.9c-11.6,11-21.2,24.5-28.8,38.5c-9.5,17.5-17.3,36.2-21.8,55.6c-10-2.4-19.9,1.9-26.1,10.9
			c-1.6,2.3-3.2,4.7-4.8,7.1c-1.8-11.2-3.6-22.4-5.5-33.6c-2-12.3-17.9-20.2-29.2-16.6c-5.7,1.9-11.3,5.4-14.2,10.9
			c-1.5,2.8-2.3,5.5-2.7,8.3c-0.1,0-0.1-0.1-0.2-0.1c-13.9-9.2-33.1-3.1-39.6,12.1c-4.9,11.6-1.1,22.6,3.9,33.3
			c6.1,13,15.1,24.4,21.1,37.5c0.7,1.4,2,3.4,2.2,5c0-0.1-1.7-4-0.6-1.5c0.3,0.8,0.7,1.7,1,2.5c1.5,3.7,2.9,7.4,4.4,11.1
			c2.9,7.5,5.8,15.1,8.7,22.7c5.8,15.4,11.5,30.9,17.1,46.5c5.1,14.4,9.5,29.2,15.3,43.4c7.4,18.3,19,33,38.8,38.5
			c9,2.5,18.6,2.7,27.9,3.6c0.7,0.1,6.2,0.2,6.4,0.7c0,0-4.6-0.7-1.8-0.2c1.2,0.2,2.4,0.4,3.6,0.6c4.2,0.7,8.4,1.5,12.6,2.5
			c8.3,1.9,16.5,4.2,24.6,7.1c2,0.7,4,1.4,6,2.2c0.9,0.3,1.7,0.7,2.6,1c0.2,0.1,0.9,0.3,1.4,0.6c0.1,0,0.1,0.1,0.2,0.1
			c-1.2,2-2.4,4-3.7,6c-10.7,17-21.8,33.7-32.8,50.6c-4.2,6.4-8.8,12.8-12.9,19.4c-1.2,0.2-2.3,0.4-3.5,0.8
			c-7.4,2.3-13.2,6.7-17.9,12.7c-7.3,9.4-8.9,20.4-10.3,31.9c-1.2,9.2-1.8,18.4-1.8,27.7c-0.1,38.3,9.6,78.4,31.8,110.1
			c19.1,27.2,46.2,49.8,77.8,60.6c2.1,11.5,6.7,22.4,15.4,30.6c14.4,13.5,34.6,16.4,53.2,11.1c8.5-2.4,16.6-6.3,24.5-10.1
			c2.3-1.1,4.9-2.1,7.2-3.4c0.1,0,0.2-0.1,0.3-0.1c1.5-0.5,2.9-1,4.4-1.4c1.3-0.3,2.6-0.7,3.9-0.9c0,0,0.1,0,0.1,0
			c0.7-0.1,2.1-0.2,2.6-0.2c0.8,0,1.7,0.1,2.7,0.2c0.1,0.4,0.3,0.8,0.4,1.2c1.6,4.5,3.3,9.1,6,13c4.7,6.8,10.8,12.6,18.4,16
			c14.6,6.4,31.4,7.3,46.4,1.4c7.8-3.1,14.8-6.9,21.5-11.9c4.1-3,8.1-6.2,12.1-9.4c0.8-0.7,1.7-1.4,2.6-2c0.9-0.4,1.8-1.4,2.6-1.9
			c2.6-1.9,5.3-3.7,8.2-5.3c0.9-0.5,2.1-0.9,3.1-1.5c0.4-0.1,0.8-0.3,1.2-0.4c1.4-0.4,2.8-0.8,4.2-1.1c0,0,0.1,0,0.1,0
			c1.2,0,2.5-0.1,3.7-0.1c0.1,0,0.2,0,0.3,0.1c0.1,0,0.2,0.1,0.3,0.1c0,0,0,0,0,0c0.6,0.6,1.5,1.4,1.8,1.7c1.2,1.3,2.2,2.7,3.5,4
			c9.2,9.2,22.5,13.1,35.1,9.2c9.2-2.8,16.8-8.8,24.5-14.2c6.8-4.7,13.5-9.4,20.3-14c13.4-9.2,26.8-18.3,40-27.9
			c25.8-18.8,48.4-40.1,64.6-67.9c14.5-24.8,24.2-52.9,28.4-81.3C796.9,669.9,798.7,654.5,798.1,639.2z M307,407.9
			c0.1,0.4,0.2,0.7,0.3,1.1c1.1,4.7,2.1,9.5,2.9,14.3c0.4,2.1,0.7,4.2,1,6.3c0.2,1,0.3,2.1,0.4,3.1c0,0.2,0,0.4,0.1,0.6
			c1,8.8,2,17.7,2.9,26.7c-8.1-1.9-16.2-4.3-24.1-6.9c-8.3-2.8-16.5-5.8-24.7-8.9c-2-0.8-4-1.5-6-2.3c-0.4-0.2-0.8-0.3-1.3-0.5
			c0,0,0,0.1,0.1,0.1c0,0-0.1-0.1-0.1-0.1c-0.3-0.1-0.7-0.3-1-0.4c-1.4-0.5-1.4-0.8-1-0.8c-0.9-0.4-1.8-0.7-2.3-1
			c0,0-0.4-0.2-0.9-0.5c-0.1-0.1-0.3-0.3-0.5-0.5c0,0.1,0.1,0.2,0.1,0.2c-0.1,0-0.1-0.1-0.2-0.1c-0.2-0.3-0.4-0.6-0.6-0.8
			c-0.2-0.2-0.3-0.3-0.3-0.5c-1-1.5-1.9-3.2-2.7-4.8c-0.2-0.5-0.4-0.9-0.7-1.4c-0.7-1.9-1.6-3.8-2.3-5.7c-3.2-8.4-6.1-16.9-8.8-25.4
			c-2.6-8.2-5-16.5-6.9-24.9c-0.5-2.1-0.9-4.2-1.3-6.3c-0.1-0.6-0.2-1.3-0.3-1.9c0,0.1,0,0.1-0.1,0.1c0,0,0-0.1,0-0.4
			c0-0.2-0.1-0.3-0.1-0.5c-0.5-2.5-0.1-1.4,0.1-0.3c-0.2-3-0.8-10.4-0.8-11.4c0-2.1,0.1-4.2,0.2-6.3c-0.1,0.1-0.1,0.1-0.2,0.2
			c0.1,0,0.1-0.2,0.2-0.4c0-0.2,0-0.4,0-0.6c0.1-1.3,0.2-1.6,0.3-1.4c0.1-0.5,0.1-0.9,0.1-1.1c0-0.1,0-0.1,0-0.2
			c0.7-1.2,1.4-2.5,2.1-3.7C240.3,375.9,269.7,405.4,307,407.9z M750.5,653c-0.3,5.9-0.7,11.8-1.4,17.7c-0.1,0.5-0.1,1.1-0.2,1.6
			c-0.3,2.6-0.3,2.1,0.2-1.5c0.4,0.7-0.6,4-0.7,4.8c-0.6,3.7-1.3,7.4-2.1,11.1c-1.2,5.8-2.7,11.5-4.4,17.2c-0.9,3.1-1.9,6.2-3,9.2
			c-1.1,3.1-2,7.9-4,10.5c0.4-0.9,0.8-1.8,1.1-2.7c-0.4,1-0.9,2-1.3,2.9c-0.7,1.5-1.3,2.9-2,4.4c-1.2,2.4-2.4,4.8-3.6,7.2
			c-3.2,6.1-6.8,12.1-10.7,17.8c-0.9,1.3-1.8,2.6-2.8,3.9c-0.3,0.4-0.7,1.1-1,1.7c-1.5,2.1-3.6,4.1-5.2,6
			c-4.5,5.1-9.3,9.9-14.4,14.5c-2.7,2.4-5.5,4.8-8.4,7.1c-1,0.8-2.1,1.7-3.1,2.5c-0.8,0.6-1.9,1.4-2.2,1.7
			c-5.9,4.4-11.9,8.6-17.9,12.8c-12.9,8.9-25.8,17.9-38.7,26.8c-5.2,3.6-10.3,7.3-15.5,10.8c-12.4-11.8-29.7-14.6-46.3-12
			c-15.6,2.5-28.3,11-40.4,20.5c-2.6,2.1-5.3,4.1-7.9,6.2c-0.1,0.1-0.2,0.2-0.3,0.3c-0.1,0-0.1,0.1-0.2,0.1c-1.4,1-2.7,2-4.1,2.9
			c-2.8,1.9-5.7,3.4-8.5,5.1c0,0,0,0,0,0c-1.2,0.4-2.4,0.8-3.7,1.1c-0.2,0-0.4,0.1-0.6,0.1c-0.2,0.1-0.5,0.1-0.8,0.1
			c-0.6,0.1-1.2,0.2-1.8,0.4c0.4-0.1,0.7-0.2,1-0.3c-0.9,0-1.8,0-2.8,0c0,0,0,0,0,0c0,0-0.1,0-0.1,0c-0.3,0-0.6,0-0.9,0
			c-0.1,0-0.1,0-0.2,0c-0.1,0-0.1-0.1-0.2-0.1c0,0,0,0.1,0.1,0.1c0,0-0.1,0-0.1,0c0,0,0-0.1-0.1-0.1c0,0-0.1,0-0.1-0.1
			c0,0.1,0,0.1,0.1,0.2c0,0,0,0,0,0c-0.1-0.1-0.1-0.1-0.2-0.2c0,0,0-0.1,0-0.1c-0.1,0-0.1-0.1-0.2-0.1c-0.1-0.1-0.2-0.2-0.3-0.3
			c-0.1,0-0.1,0-0.2,0c0,0,0,0.1,0.1,0.1c-0.1,0-0.1-0.1-0.2-0.1c-0.3-0.1-0.6-0.1-0.8-0.1c0.2,0,0.4,0,0.7,0
			c-1.9-1.3-0.6-1.5,0.7,0c-0.2-0.7-0.4-1.4-0.6-2c-1.5-4.3-3.2-8.7-5.8-12.4c-5.8-8.5-13.6-14.2-23.2-17.7c-13.6-5-30.3-3-43.6,1.9
			c-7.6,2.8-14.8,6.6-22.2,10c-0.4,0.2-0.9,0.5-1.4,0.8c-1.7,0.8-3.8,1.3-5.5,1.8c-1.6,0.5-3.2,0.9-4.8,1.3
			c-0.2,0.1-0.5,0.1-0.7,0.1c-0.2,0-0.5,0-0.8,0.1c0.1,0-0.9,0-1.8,0c-0.2-0.1-0.4-0.1-0.7-0.2c-0.1-0.1-0.2-0.1-0.4-0.2
			c0,0-0.1-0.1-0.2-0.1c0,0,0,0,0,0c0,0,0,0,0,0c0,0,0-0.1-0.1-0.1c-0.1,0-0.1-0.1-0.2-0.1c-0.2-0.3-0.5-0.9-0.8-1.6
			c0-0.1-0.1-0.2-0.1-0.3c0,0,0,0,0,0c0,0,0,0,0,0.1c0,0,0-0.1,0-0.1c1.1-1.8,1.9-3.7,2.4-5.6c1.4-6.3,0.2-13.9-3.4-19.8
			c-0.2-3.2-0.5-6.4-0.5-9.6c0-8.4-6.1-17.2-14.5-19.1c-8.2-1.9-18.4,1.1-22.4,9.1c-0.5,0.9-0.9,1.9-1.4,2.8
			c-0.8-0.4-1.7-0.8-2.5-1.2c-3.5-1.8-7-3.7-10.4-5.8c-2.9-1.8-5.7-3.8-8.5-5.8c-0.6-0.5-1.2-1-1.8-1.5c-1.7-1.4-3.4-2.9-5-4.5
			c-5.5-5.1-10.3-10.9-15.2-16.5c4.4,5,0.3,0.3-0.8-1.2c-1.1-1.6-2.3-3.3-3.3-5c-2.2-3.4-4.2-6.9-6.1-10.5c-0.9-1.8-1.8-3.6-2.7-5.4
			c-0.5-1-1-2.1-1.4-3.1c-0.3-0.8-2-4.1-0.5-1.1c1.4,2.8,0.1,0.2-0.1-0.4c-0.4-1.1-0.8-2.1-1.2-3.2c-0.9-2.4-1.7-4.9-2.5-7.3
			c-2.6-8.3-4.4-16.7-5.9-25.2c0,0.1,0,0.2,0,0.3c0-0.1,0-0.3,0-0.5c0-0.2-0.1-0.5-0.1-0.7c0-0.3-0.1-0.5-0.1-0.8
			c0-0.2-0.1-0.4-0.1-0.6c-0.3-2.3-0.5-4.6-0.6-6.9c-0.3-4.6-0.5-9.2-0.6-13.9c-0.1-9,0.6-17.9,1.5-26.9c0-0.3,0.1-0.6,0.1-0.8
			c0.1-0.5,0.2-0.9,0.2-1c0,0,0-0.1,0-0.1c1.3-0.3,2.5-0.6,3.7-1c8.7-3.1,14.1-9.2,19-16.7c5.5-8.4,11-16.9,16.5-25.4
			c10.9-16.8,22.1-33.4,32.6-50.5c11.5-18.7,19-38.1,20.7-60.1c1.6-21.1-1.4-43.1-3.8-64c-2.7-23-6.4-45.9-15.4-67.4
			c-2.5-6-5.1-10.8-10.9-14.2c-5.1-3-12.6-4.2-18.3-2.4c-4,1.3-8,3.9-11.2,7.3c-0.1,0-0.2-0.1-0.3-0.1c-0.7-0.2-1.5-0.4-2.2-0.7
			c-0.1,0-0.1,0-0.2-0.1c0.4,0.1-2.5-1.2-3.2-1.6c-1.3-0.7-2.7-1.5-4-2.4c-0.3-0.2-0.7-0.5-1-0.7c-0.9-1.2-2.8-2.3-3.8-3.3
			c-1.1-1.1-2.2-2.2-3.2-3.3c-0.3-0.3-0.5-0.6-0.7-0.8c-2.1-3.2-4-6.5-5.8-9.9c-0.1-0.2-0.2-0.3-0.2-0.4c-0.6-1.6-1.1-3.1-1.6-4.7
			c-1.2-3.7-2-7.5-2.7-11.4c0,0,0-0.1,0-0.1c0-0.1,0-0.1,0-0.2c-0.2-2-0.3-3.9-0.4-5.9c-0.2-4-0.1-8,0.2-12c0.1-0.7,0.5-4.2,0.4-4.2
			c0.2-0.9,0.3-1.8,0.4-2.2c0.8-4.2,1.7-8.4,2.9-12.5c2-7.2,4.1-15,7.4-21.8c0.2-0.4,0.6-1.2,1-2.1c0.6-1.4,1.3-2.8,1.9-4.2
			c1.5-3.3,3.1-6.5,4.8-9.7c3.3-6.1,6.9-12.1,10.9-17.8c0.2-0.3,0.7-1,1.2-1.7c0.6-0.7,1.4-1.7,1.6-2c2.3-2.7,4.7-5.3,7.2-7.8
			c2.2-2.1,4.9-3.9,7-6.1c0.1-0.1,0.2-0.2,0.4-0.3c1.6-1.1,3.3-2.2,5-3.3c2.2-1.3,5.9-2.4,7.8-4c0.6-0.2,1.2-0.4,1.8-0.7
			c2-0.7,4-1.4,6-2c19.3-6.1,42.4-12.9,45.6-36.4c0.6-4.8,0.3-9.5-1-13.8c7.8-3,15.8-5.8,23.8-8.1c5-1.4,10.1-2.7,15.3-3.8
			c2.5,0.2,5.1,0,7.7-0.6c4.5-1.1,9-2,13.5-3c3.9-0.4,7.8-0.8,11.7-1c5.9-0.4,11.7-2.7,16-6.5c0.8-0.2,1.7-0.4,2.5-0.5
			c0.6,0,1.3,0.1,1.7,0c1.6-0.1,3.2-0.2,4.8-0.2c7.8-0.3,15.5-0.6,23.3-1.7c12.3-1.8,23.7-6.4,35-11.4c5.3-2.3,10.5-4.9,15.7-7.3
			c2.1-1,4.2-2,6.3-2.9c1.2-0.5,2.4-1.1,3.6-1.6c0.7-0.3,1.3-0.5,2-0.8c10.6-4.1,21.6-7.1,32.8-9.1c0.1,0,0.4-0.1,0.9-0.2
			c-0.8,0.2,3.2-0.4,3.4-0.5c2.4-0.3,4.8-0.5,7.2-0.6c4.1-0.3,8.2-0.4,12.3-0.3c-1,2.6-1.4,5.3-1.3,8c0.6,13.2,10.4,23.3,23.7,23.7
			c1.4,0,2.8,0.1,4.2,0.2c0.1,0,0.2,0,0.3,0c-0.3-0.1-0.7-0.2-1-0.3c0.5,0.1,1,0.2,1.5,0.3c0.3,0.1,0.7,0.1,1,0.2
			c1.7,0.3,3.4,0.5,5.1,0.9c2.5,0.6,5,1.3,7.4,2.1c1.3,0.4,2.6,0.9,4,1.4c0,0,0,0,0,0c-0.2-0.1-0.3-0.2-0.5-0.3
			c0.2,0.1,0.4,0.2,0.6,0.3c1.2,0.5,3.3,1.7,2.3,1.2c3.8,2,7.6,3.8,11.3,6.2c0.4,0.3,0.8,0.5,1.1,0.8c0.9,4.3,3,8.4,6.2,12.1
			c0.4,0.5,0.9,1.2,1.4,1.9c0.2,0.1,0.6,0.4,1,1.1c0.1,0.2,0.3,0.4,0.4,0.6c0.1,0.1,0.2,0.2,0.3,0.2c-0.1-0.1-0.2-0.1-0.3-0.2
			c0.3,0.5,0.6,0.9,1,1.4c1,1.5,2,3,2.9,4.5c0,1.7-0.1,3.5-0.1,5.2c-0.3,7.4,3.7,14.5,9.7,19c0.4,2.4,0.7,5,1.4,7.2
			c0,0.2,0,0.4,0.1,0.7c0.2,2.2,0.3,4.4,0.3,6.6c0.1,3.3-0.1,6.5-0.3,9.8c-0.1,0.7-0.2,1.6-0.3,2.4c-0.2,1.4-0.5,2.7-0.8,4.1
			c-0.7,3.4-1.7,6.8-2.8,10.1c-0.5,1.5-1,3.1-1.6,4.6c-0.3,0.7-0.7,1.5-0.9,2.3c0.1-0.2,0.1-0.5,0.2-0.7c0,0.1,0,0.1-0.1,0.2
			c-1.4,2.9-2.9,5.8-4.6,8.5c-1,1.6-2,3.2-3,4.8c-0.5,0.7-0.9,1.3-1.4,2c0,0.1-0.1,0.1-0.2,0.2c-0.6,0.8-2.3,2.8-2.6,3.2
			c-1.1,1.2-2.2,2.4-3.3,3.5c-2.6,2.7-5.5,5.2-8.1,8c-6.7,7.2-11.8,15.6-14.4,25.1c-4.6,16.7-1.6,34.5,2.8,50.9
			c3.2,12,6.4,24,9.2,36.1c2.4,16.6,4.8,33.2,7.2,49.8c0.6,4.5,1.3,9.1,1.9,13.6c0.1,0.9,0.2,1.7,0.4,2.6c0.3,2.5,0.7,5.1,1,7.6
			c0.9,7.2,1.8,14.3,2.6,21.5c0.3,4,0.6,7.9,0.8,11.9c0.4,6,0.7,11.9,1,17.9c-10.5,2.5-19.5,11.5-19,23.1c1,23.9,2.9,48.5,14.8,69.8
			c3,5.3,6.6,10.2,10.6,14.8c2.2,5.8,6.2,10.5,12.1,12.9c0.3,0.3,0.6,0.6,0.9,0.9c4.3,4.4,8.5,8.8,12.8,13.2
			c6.2,6.4,12.4,14,21.7,15.7c1.3,0.2,2.6,0.4,3.8,0.5C750.7,647.8,750.6,650.4,750.5,653z"/>
	</g>
</g>
<g id="Layer_2">
	<path class="st1" d="M727.3,618.9c-0.3-4.8-1.4-9.6-2.6-14.4c-0.5-31.5-2.7-62.9-6.8-94.1c0.7-3.1,0.6-6.6,0.4-8.7
		c-0.9-9.7-1.9-19.4-2.8-29.1c0-1.3,0-2.4-0.2-3.2c-0.1-0.8-0.2-1.6-0.4-2.5c-2.8-28.9-5.6-57.9-8.3-86.8c-0.2-1.9-1-4.9-2.5-6.8
		c0.1-2.8-0.2-5.7-0.8-8c-0.2-6.9-0.9-13.8-1.9-20.5c-2.6-18.1-6.9-36-9.7-54.1c-0.4-2.4-1.9-8.8-5.5-8.4c-5.6,0.5-10,2.3-14.2,5.9
		c-0.5-0.3-1.1-0.4-1.8-0.3c-0.2,0.1-0.5,0.1-0.7,0.2c-0.4,0-0.9,0.1-1.3,0.2c-0.1,0-0.3,0-0.4,0v-0.1c-1.7,0.4-3.3,0.9-4.9,1.4
		c-0.8,0.2-1.5,0.4-2.3,0.6c-1.1-1.5-2.6-2.5-4.4-2.6c-4-0.2-8-0.4-11.9-0.6c-2.6-0.2-5.2-0.5-7.8-0.8
		c-11.5-4.8-22.7-10.2-33.4-16.4c-2.7-2.3-5.5-4.4-8.4-6.3c-5.6-15.2-13.5-30-23.6-42.2c-0.2-0.2-0.4-0.4-0.5-0.6
		c-0.9-14.1-0.2-28,2-41.8c3-9.5,6.8-18.7,11.8-27.3c1-0.4,2-0.9,3-1.4c0.3-0.1,0.6-0.3,0.9-0.4c5.1-2.7,5.4-17.4,0.8-20.9
		c-0.6-1.8-1.6-3.3-3.1-3.8c-4.8-1.4-9.6-2.5-14.5-3.5c-3.7-3-8.2-5.3-12.9-7.4c-11.1-5.1-22.8-8.6-34.8-10.8
		c-2.2-0.4-3.8,1.3-4.9,4c-11.5-6.4-27.8-3.1-39.9-0.7c-17.3,3.4-34.3,8.9-52.1,7.8c-2.5-0.2-4.2,2-5.1,5c-0.5-0.5-1-0.9-1.7-1.2
		c-4.8-2.4-9.7-1-14.8-0.6c-5,0.4-9.9,0.5-14.9,1.5c-3.9,0.7-5.9,6.6-5.8,12.1c-1.1,0.3-2.3,0.6-3.4,0.9c-0.5,0-1.1,0.1-1.6,0.1
		c-7.1,0.6-14.4,0.9-21.5,0.5c-1.4-0.1-1.7,2.5-1.7,3.5c0,1.3,0.3,3.1,1.7,3.5c1.8,0.4,3.5,0.9,5.3,1.4c-0.9,0.6-1.1,1.9-1.1,2.9
		c0,0.9,0.3,3.1,1.6,3.1c1.8,0,3.7-0.1,5.5-0.1c0.5,0,1,0.1,1.5,0c0.9,0.1,1.7,0,2.6-0.2c0.3,1.9,0.9,3.9,1.9,5.3
		c-7.1,5.1-13.3,12.1-18.3,18.1c-12.4,15.1-21.5,32.4-27.9,50.8c-4.7,8.7-8.3,17.9-7.7,27.7c-0.8,1.4-1.7,2.7-2.7,4
		c-3,4-3.6,9.6-2.9,14.4c0.4,2.9,2.1,9.7,6.1,9.4c6.6-0.6,12.8,5.4,15.7,10.8c3.3,6.2,3.8,11.6,4.8,18.6c0.9,6.2,1.4,12-1.2,17
		c-2.8,5.3-7.8,9.6-13.8,10.6c-7,1.2-8.1,13-7,18.3c3.5,17,6.9,34.1,10.9,51c-0.3,2.7-0.1,5.5,0.7,7.7c1.6,5,3.2,10.2,4.7,15.4
		c0.3,3.7,0.7,7.4,1.2,11.1c0.7,12.8,0.7,25.6,0.4,38.4c-0.2,5.2-0.3,10.3-0.4,15.5c0,1.6,0.2,4.3,1.1,6.5
		c-2.7,14.1-5.4,28.1-7.9,42.2c0,0.1,0,0.2-0.1,0.3c-5.3,9.7-10.8,19.1-16.1,28.8c-11.9,21.9-23.2,44.1-33.9,66.6
		c0,0,0.1,0.1,0.1,0.1c-0.7,1.6-1.3,3.3-1.6,4.8c-0.8,3.6-0.2,9.8,2.6,12.6c0.5,0.5,0.9,0.8,1.4,1c0.8,2.6,2.3,4.6,4.8,5
		c2.6,0.4,4.7-0.6,6.3-2.4c1.9,1,4.2,1.8,6.7,2.7c4.9,1.8,10,3.3,15.1,4.6c6.7,3.4,13.5,6.6,20.5,9.6c3.4,1.5,5.1-3,5.6-5.5
		c0.1-0.5,0.2-1,0.3-1.5c2.7,2.5,6.2,3.8,10.4,3.3c1.8,1.5,3.2,3.6,5.3,4.7c6.5,3.6,9-6.8,9-11.2c0-6-2.1-12.2-2.9-18.2
		c-0.8-5.5-1.3-10.9-1.6-16.5c-0.3-5.6-0.3-11.2,0-16.8c0.3-6.4,1.1-13-1.5-19.1c-1.8-4.2-5.8-6.3-7.5-10.5c-1-2.4-1.4-5-1.6-7.6
		c4.7-4.8,9.9-9.1,15.5-12.8c4.5,1.8,8.9,4.9,11.8,9c0,3.4,0.3,6.8,0.8,10.2c0.1,0.6,0.3,1.4,0.5,2.1c-0.4,0.6-0.9,1.1-1.3,1.7
		c-2,2.3-4.3,4.3-5.7,7.1c-3.3,6.8-1.1,15.3,0.1,22.4c2.2,13.5,4,27,5.8,40.6c-0.1,2.6-0.2,5.3-0.4,7.9c-0.2,2.4-0.3,11.6,4.3,11.3
		c1.9-0.1,3.7-0.2,5.6-0.3c0.3,0.2,0.6,0.4,1,0.5c1.7,0.6,3.1,0.1,4.1-1c0,0,0,0,0.1,0c10,5,21.2,8.1,32.4,8.2
		c2.1,0,3.5-1.4,4.2-3.5c2.2,0.5,4.5,0.9,6.9,1.2c1,0.1,1.9-0.2,2.5-0.9c0.1,0.1,0.1,0.2,0.2,0.2c1.6,2.1,3.3,1.2,4.6-0.4
		c1,0.7,2.1,0.8,3.4-0.2c3-2.2,3-7.7,2.7-11c-0.9-9.1-2.2-18.2-3.8-27.2c1.8,0.7,3.6,1.3,5.5,1.7c0.9,2.2,2.3,3.9,4.2,4.4
		c3,0.7,5.9,1.2,8.9,1.5c-0.4,1-0.7,2.2-0.9,3.2c-0.6,2.7-0.5,5.9-0.3,7.6l0.6,4.8c0.1,1.6,0.2,3.3,0.2,4.9c0.1,3,0.6,9,4.4,9.9
		c1.6,0.4,2.9-0.6,3.8-2c1.1,0.2,2-0.4,2.8-1.5c1.1,1.5,2.5,2.4,4.5,1.5c0.1,0,0.2-0.1,0.3-0.2c0.3,0.1,0.7,0.2,1,0.2
		c4.2,1.1,8.7,1.8,13.2,2.5c17.2,3,34.7,5,52,1.6c9-1.8,17.4-4.8,25.5-8.6c0.7,0,1.4,0,2.1,0.1c1.1,2.5,2.8,4.1,5,3.9
		c11.1-1.1,22.1-2.5,33.2-4c1.6-0.2,2.8-1.2,3.8-2.6c16.5-1.9,32.8-4.9,48.9-9.1c16.8-4.3,33.2-10,48.9-17.6
		C724.6,637.8,728,629.6,727.3,618.9z M363.6,337c0.1,0.2,0.2,0.3,0.4,0.5c-0.3,0.1-0.7,0.2-1,0.3
		C363.2,337.5,363.4,337.3,363.6,337z M402.2,397.2c-3.3,5.9-6.3,11.9-9.1,18.1c-0.4,0.3-0.9,0.5-1.3,0.8c-7-1.3-14.1-3-20.4-6.1
		c-5.4-4.9-10.6-10-15.8-15.1c-1.3-1.3-2.5-1.7-3.6-1.5c-0.6-0.7-1.3-1.3-2.2-1.4c-1-6.2-2.4-12.2-4.5-18.1c0.7-0.8,1.3-2,1.6-3
		c0.9-2.3,1.9-4.5,3.1-6.6c0.5,0.1,1.1,0,1.8-0.5c11.5-6.4,25.4-5.9,38.2-6.4c6.6-0.3,14.3-1,20.6,1.2c0,0,0.4,0.2,0.9,0.4
		c0,0.2,0,0.4,0.1,0.6c0.7,5,1.5,10,2.3,15C408.8,381.4,404.9,389.1,402.2,397.2z M478.7,562.6c-0.5,1.4-0.7,3.2-0.7,4.9
		c-1-0.7-2-1.3-3.1-1.9c1.6-3.1,3.1-6.3,4.7-9.4c0.1,0.2,0.2,0.5,0.4,0.7c0.1,0.2,0.3,0.5,0.4,0.7
		C479.9,559.3,479.3,560.9,478.7,562.6z M513.5,284.2c-0.2,5.9-1.2,11.7-3,17.2c-0.2,0.1-0.4,0.1-0.6,0.2
		c-7.5,3.8-6.7,20.4-1.4,25.5c2.3,2.2,4.2,2.2,5.8,1c0.8,0.9,1.6,2,2.2,2.6c2.4,2.5,4.8,5.1,7.1,7.6c1.1,1.2,2.2,2.4,3.4,3.6
		c0.3,3.3,0.9,6.6,2,9.7c-1.4,1.2-2.8,2.5-4.2,3.7c-2.7,2.3-5.4,4.5-8,6.8c-3.8-4-7.5-8.1-11-12.5c-2.7-3.4-5.7-6.8-8.1-10.5
		c-2.5-3.8-1.8-8.8-4.6-12.8c-3.4-4.9-9.3-3.3-14.5-3.3c-5.6,0.1-11.3,0.2-16.9,0.5c-5,0.3-9.9,0.9-14.9,1
		c-3.6,0.1-8.6,0.7-11.5-1.8c-1.2-1.1-3.2-2.6-4.9-1.3c-5.7,4.3-10.7,9.2-15.7,14.2c-0.2,0.2-0.5,0.5-0.7,0.8c-4.8-2-10.5-2.8-15-3
		c-0.8,0-1.6-0.1-2.4-0.1c-0.1-0.8-0.2-1.6-0.4-2.3c1.6-2.3,3.5-4.5,5.2-6.7c3.2-4,6.3-8.6,9.7-12.5c0.1,0,0.1,0,0.2,0
		c1.8,0.3,3.7-2.3,4.3-3.6c2.8-5.7,2.7-12.7,0-18.3c-0.5-0.9-1.5-2.5-2.8-3.2c0-1.1,0-2.2-0.1-3.3c1.9-7.4,3.1-15,3.9-22.7
		c0.1-0.2,0.2-0.3,0.2-0.5c1.5-1.6,2.9-3.1,4.4-4.7c3-3,2.8-9.2,1.7-13c-0.5-1.7-1.4-3.4-2.7-4.1c-0.7-3-2.2-5.2-5-5
		c-0.4,0-0.8,0-1.1,0c-0.8-1.9-1.9-3.7-3.5-5.1c0-3.8-0.9-7.4-2.8-9c-1.2-1-2.3-2-3.6-3c-0.1-0.1-0.1-0.2-0.2-0.3
		c0.2-0.5,0.4-0.9,0.5-1.4c0.2-0.6,0.5-1.2,0.8-1.8c3.3-3.6,6.6-7.2,9.9-10.8c0.6,1.3,1.3,2.3,2.2,2.9c1.5,1.1,2.9,1.9,4.2,3.1
		c0.3,0.3,0.6,0.6,0.9,1c0,0,0.1,0.1,0.1,0.1c0,0,0,0,0,0c0.4,0.4,0.8,0.8,1.3,1.1c0.6,0.5,1.1,0.6,1.7,0.6c0.5,1.4,1.2,2.8,2,4.1
		c1.6,2.4,3.5,5.5,5.8,7.8c0.9,1.6,2.2,2.6,3.5,2.8c4.5,2.5,9.2-0.9,13.5-2.7c4.1-1.7,8.2-3.2,12.4-4.5c0.5,0.7,1.1,1.2,1.8,1.4
		c3.8,1.4,7.6,2.5,11.6,2.8c2.2,0.5,4.5,1,6.7,1.5c2.9,0.6,8.8,0.9,11.9,2.7c1.4,4,3.8,6.7,7.5,3.3c9.2-8.4,18-17.1,26.5-26.2
		c0.3,0.3,0.7,0.5,1.1,0.7c5.6,2.6,10.4,6.7,13.6,12c-5.2,5.7-10.4,11.4-15.6,17.1c-6.6,7.2-13.6,12.6-15.2,22.8
		C511.2,266,513.8,275.1,513.5,284.2z M595,547.6c0,0.1,0,0.3,0,0.4c-0.5,0.6-0.9,1.2-1.4,1.8c0.3-0.9,0.6-1.8,0.9-2.6
		c0.2-0.1,0.4-0.1,0.6-0.2C595,547.1,595,547.3,595,547.6z M673.8,604.7c0.1-0.5,0.3-1,0.4-1.5c0.1,0.5,0.2,0.9,0.3,1.4
		C674.3,604.6,674.1,604.6,673.8,604.7z"/>
	<path class="st2" d="M766.3,624.1c-10.5,7.3-22.9,14-35.5,17.1c-0.9,0.2-1.8,0.4-2.6,0.6c-2,0.4-3.4,2-4.3,4.3
		c-2.2,0.6-4.4,1.2-6.6,1.9c-0.5,0.1-0.9,0.4-1.3,0.8c-1-1.1-2.3-1.6-3.9-0.8c-17.1,8.8-35.3,15.3-54.3,18.7
		c-9.4,1.7-18.9,2.3-28.5,3.1c-10.3,0.9-19,4.6-28.7,7.8c-0.2,0.1-0.4,0.1-0.6,0.2c-3.4,0.2-6.8,1.1-10,2.5
		c-15.7,2.8-31.8,1.6-47.7,2.4c-3.7,0.2-8.3-0.2-11.3,2.1c-1,0.8-1.8,1.7-2.4,2.8c-1.8-3.5-4.8-6-9.9-6.3
		c-8.8-0.6-17.2,2.8-25.9,3.4c-9.1,0.6-18.5-1.3-27.6-2.1c-15.5-1.4-31.1-2.2-46.6-2.1c-0.5-0.2-1.1-0.4-1.7-0.4
		c-6.9,0-13.6,0.7-20.3,2c-0.8,0.2-1.5,0.5-2.1,1c-15.9-2.2-31.7-5.1-47.4-7.8c-2.6-1.3-5.3-2.5-7.9-3.8c-2.6-1.3-5.7-2.9-8.6-1.4
		c-0.7,0.3-1.2,0.8-1.7,1.3c-9.1-3.8-18.1-7.4-27.7-7.2c-5.1-2.3-10.1-4.7-15-7.3c-0.8-0.4-1.4-0.5-2.1-0.5
		c-1.9-1.5-4.1-2.5-6.8-3.1c-0.4-0.1-0.7,0-1.1,0.1c-6.6-4.1-13.3-8.1-20-12.1c-4.2-2.5-5.4,6.5-5.5,8.3c-0.5,8.1-0.1,16.2,1.1,24.2
		c0.1,0.9,0.4,2.1,0.9,3.3c0,0.2,0,0.5,0,0.7c-0.9,2.5-0.9,5.7-0.5,7.7c0.6,3.2,1.2,6.3,1.9,9.5c0.3,2.8,0.7,5.7,1.2,8.5
		c0.2,1.3,0.7,3.2,1.5,4.6c1.9,9.1,3.9,18.1,5.7,27.2c2.5,12.2,4.3,26.4,14.9,34.4c0.3,0.8,0.6,1.6,0.9,2.3
		c3.5,9,7.6,18.9,16.9,23.3c1.7,0.8,2.9,0.4,3.7-0.6c5.6,6.8,11.8,13.1,18.3,19c3.8,3.4,8,7.8,12.5,10.2c2.2,1.2,4.1,1,5.5-0.1
		c3.5,1.8,7.5,2.4,11.7,1.5c2.5,3.6,5.2,7,8.2,10.1c2.2,2.3,4.2,0.2,5.2-2.1c0.1-0.3,0.2-0.7,0.3-1c6.6,3.6,14.9,5.1,22.3,7.2
		c1.7,0.5,3.4,1,5.1,1.5c-0.7,0.1-1.4,0.2-2.3,0.4c-4.1,0.7-6.9-0.6-10.6-2.2c-1.8-0.7-3.4-1-5.2-1.6c-1-0.3-4.2-1-5.7-1.8
		c-0.9-1.2-2.1-1.8-3.7-1.4c-0.1,0-0.2,0-0.2,0.1c-2.4,0.7-3,5.6-3.1,7.3c-0.2,2.9,0.1,6.4,2.1,8.8c0.2,0.2,0.4,0.5,0.7,0.7
		c0.6,1.4,1.6,2.6,3.1,2.6c0.6,0,1.2,0.1,1.8,0.1c0.3,0.2,0.6,0.3,0.9,0.5c2.8,1.5,5.5,3.2,8.4,4.5c2.7,1.2,5.6,3,8.4,4
		c2.9,1,4.7-0.4,7.3-0.5c2.6,0,5.6,2,8.1,2.7c2.5,0.7,4.7,1.3,7.2,0.5c6.1-2,8.2-9.7,7.9-15.5c0-0.6-0.1-1.3-0.2-2.1
		c6.4,1.5,12.8,2.6,19.3,2.8c14.7,0.5,29.1,4.3,43.8,4.8c-0.1,0.3-0.3,0.6-0.3,0.7c0,0,0,0,0,0c-0.7-0.5-1.6-0.7-2.3-0.1
		c-2.1,1.7-3,3.2-3.8,5.8c-1.2,3.7-1.1,11.5,3.6,12.6c6.5,1.6,12.7,2.7,19.4,2.6c3.4-0.1,6.8-0.5,10.2,0.1c3.1,0.5,5.9,1.3,9.1,0.8
		c5.1-0.7,11.4-2.3,15.2-6c4.5-4.4,5.5-10.6,4.8-16.6c-0.2-1.4-1.1-3.4-2.2-4.3c5.5,0.7,12.2,3.1,16.4-1.8c1.5-1.7,2.4-3.7,3-5.7
		c0.4,0.3,0.9,0.6,1.4,0.8c0.1,0.1,0.3,0.1,0.4,0.2c0.6,1.8,1.6,3.6,3.6,2.8c0.5-0.2,1-0.6,1.3-1.1c6.1,1.3,13.2,0.8,18.7-0.4
		c7.8-1.7,14.5-5.1,20.5-10.1c0.4,0,0.8,0,1.2-0.3c0.1-0.1,0.3-0.2,0.4-0.3c3.3-2.2,3.3-7.2,3-10.6c0-0.2,0-0.4-0.1-0.6
		c-0.1-0.7-0.3-1.7-0.6-2.7c0.2-1.8,0.5-3.7,0.7-5.5c0.4-4.7,0.7-9.4,1-14.1c0.5-8.2,0.8-16.3,1-24.5c0.4-16.7,0.3-33.4,0.4-50.1
		c0-8.2,0.1-16.4,0.3-24.6c0-0.3-0.1-2.2-0.1-4c0.1,0,0.3-0.1,0.4-0.1c2.3-0.7,4.5-1.5,6.7-2.3c2.9-0.4,5.9-0.8,8.8-1.1
		c15.7-1.8,31.5-3.2,47.1-6c16.7-2.9,33.3-6.8,49.3-12.6c3.7,1.5,8.8-0.8,13.3-1.9c13.4-3.3,25.5-8.8,34.4-19.7
		c1.1-1.3,1.7-2.9,2.1-4.6c0.6-0.3,1.3-0.6,1.9-0.9c1.5-0.7,2.5-2.4,3.1-4.7c1.1-1.7,2.1-3.5,2.8-5.6
		C773.1,636.5,772.3,619.9,766.3,624.1z M526.1,852.7c-0.6,1.2-1.5,2.6-2.5,3.5c-2,1.7-3.8,1.2-6.1,1.4c-2.2,0.2-4.2,1.2-6.4,1.3
		c-2.4,0.2-5-0.3-7.4-0.6c-6.4-0.7-12.8,0-19.3,0.2c0.1-0.9,0.1-1.9,0.1-2.8c14.3-0.9,28.3-5.4,42.7-4.5
		C526.8,851.5,526.4,852,526.1,852.7z"/>
	<path class="st2" d="M643.7,827.6c-0.3-0.2-0.7-0.4-1-0.6c-2.1-1.3-4.3,0.9-5,2.7c0.7-1.5-1.2-0.1-2,0.2c-1.7,0.6-3.5,1-5.2,1.5
		c-3.8,1.1-7.6,2.5-11.5,3.5c-3.4,0.8-6.7,1.6-10,2.8c-1.7,0.6-3.3,1.6-4.9,2.3c-0.6,0.4-1.3,0.7-2,0.8c-0.1-0.4-0.2-0.7-0.4-1
		c-0.9-2.1-3-4.5-5.1-2c-4,4.6-3.6,12.5-0.5,17.5c3.5,5.7,11.2,4.6,16.7,3.1c7.1-1.9,13.8-4.5,21-6.3c2.6-0.6,5.6-0.9,7.9-2.5
		c0.9-0.6,1.6-1.4,2.2-2.2c2.7-1.1,3.6-6.7,3.7-8.6C647.6,835.2,647.2,829.7,643.7,827.6z"/>
	<path class="st3" d="M335.3,487.7c-7-4-15.4-7.1-23.4-7.9c-4.2-0.4-8.1-0.5-12.2-1.9c-3.4-1.1-6.6-2.6-10-3.6
		c-6.7-1.9-13.6-0.9-20.3-1.8c-0.6-2.2-1.8-3.9-3.5-4.1c-3.3-0.4-6.6-0.5-9.8,0.3c-0.4,0.1-0.7,0.2-1.1,0.3
		c-3.1-0.5-6.1-0.3-9.4,1.2c-4.8,2.2-3.8,13.3,0,15.9c1.6,1.1,3.1,1,4.6,0.5c0.8,1.9,2.1,2.9,3.8,2c0.7-0.4,1.5-0.8,2.2-1.2
		c0.7,0.3,1.4,0.7,2.1,1c3.2,1.5,6.5,2.7,10,3.5c7.1,1.5,14.4,1.3,21.4,2.8c7,1.5,13.1,3.9,20.4,3.8c3.6,0,7.1,0.1,10.6,0.2
		c4.7,0.3,8.2,1.4,12.6,3.1C338.8,503.9,339.2,490,335.3,487.7z"/>
	<path class="st3" d="M211.6,452.7c-3.1-9.2-7.8-17.9-11.8-26.7c-4.1-8.9-8.2-17.7-12.4-26.6c-1.3-2.8-3.9-2.5-5.3,0
		c-1.7,3-1.4,7.6,0,10.6c3.9,8.6,7.9,17.2,11.9,25.7c3.9,8.3,7.4,17.4,12.2,25.1C210.4,467.2,212.7,455.8,211.6,452.7z"/>
	<path class="st3" d="M228.4,425.4c-1.8-4.3-3.6-8.5-5.4-12.7c-1.6-3.6-4.5-8.1-4.5-12c0-1.9-0.5-6.5-3-7c0-0.1-0.1-0.2-0.1-0.3
		c-0.3-1.7-1.1-5.6-3.6-5.5c-5.1,0.2-5.9,6.8-5.8,10.8c0.2,6.4,3.5,12.9,5.8,18.7c4.6,11.8,9.4,23.8,15.1,35.1
		c2.6,5.2,5.7-0.2,6.4-3.4C234.9,440.8,231.5,433,228.4,425.4z"/>
	<path class="st3" d="M201.3,340.6c-1.6-2.9-3.3-8-6.3-9.7c-3.3-1.9-9.3,0.1-12.8,0.8c-10,2-18.5,7.6-28.1,10.6
		c-4.3,1.3-3.2,11.4-0.9,13.9c1.6,1.8,2.2,4.3,3.4,6.4c1,1.7,2.2,2.6,3.4,3.7c0.5,1.6,1.5,3.1,3.1,3.1c1.1,0,1.8-0.7,2.4-1.7
		c4.3-1.9,8.2-4.1,12.9-5.2c4.7-1.1,9.4-1.6,14.1-2.6c3.7-0.8,8.4-1.1,10.3-4.9C205.1,350.2,203.7,344.9,201.3,340.6z"/>
	<path class="st3" d="M187.2,279.7c-1.8-4.4-3.8-9-6.3-13.2c-0.5-0.8-1-1.6-1.7-2.3c-3,0.1-6.1,0.1-9.1,0c-0.8,1-1.4,2.1-1.8,3.3
		c-1.9-1.6-3.5,0.5-4.1,2.5c-2.1,7.3-0.5,15,2.9,21.6c1.7,3.2,3.2,3.7,6.7,2.9c3.6-0.8,7.1-2.1,10.7-2.7
		C189.4,291.1,188.5,282.8,187.2,279.7z"/>
	<path class="st3" d="M140.8,279.9c-1.2-2.1-2.5-4.2-5.1-4.5c-0.2,0-0.5,0-0.7,0c-0.9,0.7-1.9,1.4-2.9,2c-0.7,0.7-1.4,1.4-2.1,2.1
		c-1.9,1.9-4.3,4.4-6.9,4.2c0,0.8,0,1.6,0.1,2.3c0.1,1,0.3,1.9,0.6,2.8c-0.2,2.1,0.2,4.5,1.5,6c2.1,2.4,4.2,4.8,6.2,7.2
		c1.5,1.7,3,3.9,5.4,4.3c5.6,0.9,9.4-5,9.8-9.7C147.1,290.3,143.7,285.1,140.8,279.9z"/>
	<path class="st3" d="M226.8,303.5c-0.1-1.8-0.6-4.2-1.8-5.7c-1-1.2-2.3-1.2-3.5-2c-0.9-0.5-1.6-0.2-2.2,0.4
		c-0.2-0.2-0.4-0.5-0.6-0.7c-2.3-2.3-4.4,0.3-5.1,2.7c-1.4,5.2-2.3,10.6-2.8,16c-0.3,0.5-0.5,1-0.6,1.6c-1.1,2.1-1.1,5.3-0.9,7.2
		c0,0.1,0,0.2,0,0.3c0.2,1.5,0.7,3.3,1.8,4.4c0.4,1.4,1,2.6,2.2,3.2c2.1,1,3.5-1.4,4.1-3.2c3.1-2.9,5.7-9.2,6.8-11.9
		C225.6,312,227.1,307.7,226.8,303.5z"/>
	<path class="st3" d="M229.2,465.1c-1.9-2.2-4.9-3.1-7.5-1.5c-1.8,1.1-2.6,3.1-3,5c-0.6,2.8-0.6,5.7,0.5,8.4
		c0.5,1.4,1.4,2.9,2.9,3.3c0,0,0,0,0,0c1.2,1,2.7,1.4,4.6,0.8c2.2-0.7,3.6-2.2,4.3-4.5C232.1,472.8,231.8,468.2,229.2,465.1z"/>
	<path class="st4" d="M329.5,807.7c-0.1-0.4-0.2-0.9-0.3-1.2c-0.1-0.1-0.2-0.3-0.3-0.4c0,0,0-0.1-0.1-0.1c0,0,0,0-0.1,0
		c0,0-0.1-0.1-0.1-0.2c-0.1-0.1-0.3-0.3-0.3-0.3c-0.1-0.1-0.3-0.1-0.5-0.1c-0.1,0-0.1,0-0.2,0c0,0,0,0,0,0c-0.1,0-0.3,0-0.4,0
		c-0.1,0-0.4,0.1-0.5,0.2c-0.2,0.1-0.3,0.2-0.5,0.4c0,0,0,0-0.1,0.1c-0.1,0.2-0.2,0.3-0.3,0.5c-0.2,0.5-0.3,0.8-0.4,1.4
		c-0.1,0.3-0.1,0.6-0.1,0.9c0,0.6,0.1,1,0.2,1.5c0.1,0.4,0.3,0.9,0.6,1.3c0.3,0.3,0.6,0.5,1,0.5c0.1,0,0.1,0,0.2,0
		c0.2,0,0.4-0.1,0.5-0.2c0.4-0.2,0.7-0.6,0.8-1c0,0,0-0.1,0.1-0.2c0.1-0.1,0.1-0.2,0.2-0.3c0.1-0.2,0.2-0.4,0.2-0.6
		C329.6,809.2,329.6,808.4,329.5,807.7z"/>
	<path class="st5" d="M330,807.8c0-0.1,0-0.1-0.1-0.2c0,0,0,0-0.1-0.1c0-0.1,0-0.1-0.1-0.2c-0.2-0.4-0.6-0.6-1-0.7
		c-0.5-0.2-1.1-0.1-1.6,0.1c-0.3,0.1-0.6,0.2-0.8,0.4c-0.1,0.1-0.2,0.2-0.3,0.4c-0.3,0.3-0.4,0.7-0.5,1.2c0,0.5,0.2,0.9,0.5,1.1
		c0.2,0.4,0.5,0.7,1,0.8c0.4,0.1,0.9,0,1.3-0.3c0.2-0.1,0.4-0.3,0.6-0.5c0,0,0,0,0,0c0,0,0,0,0.1,0c0,0,0,0,0,0c0,0,0,0,0,0
		c0,0,0,0,0,0c0.1,0,0.1-0.1,0.2-0.2c0.1-0.1,0.2-0.2,0.2-0.3c0,0,0-0.1,0-0.1c0,0,0,0,0,0c0,0,0,0,0,0c0.1-0.1,0.1-0.1,0.2-0.2
		c0.1-0.1,0.2-0.3,0.2-0.5c0-0.1,0-0.2,0-0.3C330,808,330,807.9,330,807.8z"/>
	<path class="st5" d="M315.1,772.7c0,0-0.1,0-0.1,0c0,0,0,0,0,0c-0.3-0.2-0.7-0.3-1-0.1c-0.1,0.1-0.2,0.1-0.3,0.2
		c-0.9,0-1.6,0.8-1.6,1.7c0,0.1,0,0.2,0,0.3c0,0.5,0.3,1,0.8,1.3c0.3,0.1,0.5,0.2,0.8,0.2c0.4,0.2,0.7,0.2,1.1,0
		c0.1,0,0.1,0,0.2-0.1c0,0,0,0,0,0c0,0,0,0,0,0c0.1,0,0.2-0.1,0.2-0.1c0,0,0.1,0,0.1,0c0.5-0.2,0.9-0.6,1.1-1.1
		C316.8,774,316.2,772.7,315.1,772.7z"/>
	<g>
		<path class="st5" d="M306.5,734.6C306.5,734.6,306.5,734.6,306.5,734.6c-0.3-0.9-1.1-1.4-2-1.4c-0.9,0-1.7,0.4-2.2,1.1
			c-0.2,0.3-0.4,0.8-0.4,1.2c0,0.3,0.1,0.6,0.3,0.8c0.1,0.1,0.1,0.1,0.2,0.2c0,0,0,0,0,0c0.4,0.8,1.4,1.2,2.2,0.9
			c0.3-0.1,0.6-0.3,0.8-0.5c0.1-0.1,0.2-0.1,0.3-0.2c0,0,0.1,0,0.1,0C306.4,736.1,306.8,735.3,306.5,734.6z"/>
		<polygon class="st5" points="304.3,735.6 304.3,735.6 304.3,735.6 		"/>
		<polygon class="st5" points="304.5,735.2 304.5,735.2 304.5,735.2 304.5,735.2 		"/>
	</g>
	<g>
		<path class="st5" d="M301.6,685.4c0-0.4-0.1-0.7-0.4-1c-0.2-0.2-0.5-0.4-0.7-0.5c-0.5-0.2-1-0.2-1.5-0.1c-1,0.2-1.9,1.1-1.9,2.2
			c0,0.5,0.2,1.1,0.6,1.4c0.4,0.3,0.9,0.5,1.3,0.5c0.1,0,0.3,0,0.4-0.1c0.2,0,0.4-0.1,0.5-0.2c0,0,0,0,0.1,0c0.1,0,0.1,0,0.2-0.1
			c0.4-0.1,0.8-0.3,1-0.7c0.2-0.3,0.3-0.8,0.3-1.2C301.6,685.7,301.6,685.6,301.6,685.4z"/>
		<polygon class="st5" points="299.8,685.6 299.8,685.6 299.8,685.6 299.8,685.6 299.8,685.6 299.8,685.6 299.8,685.6 299.8,685.6 
			299.8,685.6 299.8,685.6 299.8,685.6 299.8,685.6 		"/>
	</g>
	<path class="st6" d="M763.2,653.3c-5.8,4.3-11.6,8.5-17.4,12.7c-1.1,0.8-1.9,1.9-2.3,3.1c-41.7,20.9-89.6,25.2-135.4,29.1
		c-3.1,0.3-6.1,3.1-5,6.5c3.1,9.2,2,19.8,2.1,29.4c0.1,10.2,0.2,20.5,0,30.7c-0.4,20.7-1.7,41.4-5.3,61.8c-0.1,0.6-0.1,1.2,0,1.7
		c-1.2,3.4,2.3,7.9,6.2,5.4c0.4-0.3,0.8-0.5,1.2-0.8c0.6,0.3,1.3,0.4,2.2,0.3c11.5-1.1,23.2-6,33.5-11c4.9-2.4,23.9-10.5,18.5-18.7
		c-1.9-2.9-5.3-2.8-8.3-2c0.8-0.8,1.6-1.5,2.3-2.4c1.1-0.1,2.2-0.6,3.1-1.5c8.2-7.2,14.6-15.9,21.1-24.5c1.1,1.2,2.3,2.3,3.5,3.1
		c0.5,0.3,0.9,0.6,1.4,0.9c0.3,0.3,0.6,0.6,0.9,0.9c0.6,0.5,1.2,0.9,1.8,1.3c-0.2,0.5-0.3,0.9-0.4,1.4c-1.3,4.8-1.6,12.6,5.1,13.1
		c3.1,0.2,5.2-1.8,7.3-3.7c0.6-0.5,1.1-1.1,1.7-1.6c4.2-1.7,7.1-5,9-9.4c1.1-2.7-0.6-4.8-2.8-5.6c-0.3-0.3-0.7-0.5-1.1-0.7
		c1.9-1.5,3.7-3.2,5.1-4.9c1.4-1.7,2.6-3.6,3.4-5.6c2.5,2.2,6.4,2.2,8.8-1.3c0.7-1,1.4-2.1,2.1-3.1c1.9,2.4,4.2,3.1,7,1.8
		c5.5-2.4,7.4-8.4,9.4-13.5c0.5-1.2,1-2.5,1.5-3.7c5.1-5.6,7.8-12.5,10.3-19.6c3.1-8.8,6-17.6,8.6-26.6c1-3.4,2.5-7.4,3.3-11.4
		c0.5-0.7,0.8-1.7,0.8-2.8c0.2-7.9,2.1-15.5,5-22.7C773.3,655.3,767.1,650.5,763.2,653.3z M713.4,717.8c-1.6,4.3-3.5,9-5.1,13.8
		c-1.9,1.3-3.7,2.6-5.5,3.9c-3.2,0-6.4,0.5-9.6,1.4c-4.5,1.3-9.3,4.1-14.1,4.3c-0.1-0.2-0.3-0.5-0.5-0.7c1.8-2.5,0.4-6.4-2.3-7.7
		c0.9-1.7,0.5-3.8-0.7-5.4c0.5-0.3,1-0.6,1.5-0.9c4.8-3,2.3-9.8-2.7-9.9c0.1,0,0.2-0.1,0.3-0.1c3.8-1.8,3.5-6.4,1.1-9c0,0,0,0,0,0
		c8.7-5.1,18.8-7.5,28.5-10.1c7-1.9,14.1-3.8,20.9-6.2C720.8,699.8,716.8,708.7,713.4,717.8z M700.4,764.1c-2.1,1.6-4.9,3.6-7.4,4.3
		c-3,0.9-4.9-1.2-6.6-3.5c0.2-0.3,0.5-0.6,0.7-0.8c4.5-5.5,9.5-10.6,14.8-15.3c0,0,0,0.1,0,0.1c1.3,3.1,3.4,7.7,2.1,11.2
		c-0.1,0.1-0.1,0.3-0.2,0.4C702.8,762,701.5,763.3,700.4,764.1z M655.4,786.6c-1.7-0.1-3.4,0.6-4.7,2.2c-1.7,2.3-3.6,4.3-5.7,6.2
		c-1.2-3.2-2.2-6.5-3.1-9.8c0,0,0-0.1,0.1-0.1c4.7-6.9,15-11.2,22.6-13.5c1.5-0.4,3.2-1,4.9-1.5C665,775.9,660.5,781.5,655.4,786.6z
		"/>
	<path class="st0" d="M578.6,725.8c-1-1.8-3.1-2.9-5.1-2.9c-3.4-2.2-8.2-1.5-11.1,1.2c-3.5,3.2-4.3,8.6-1,12.2c0,0,0,0,0,0
		c1,1.4,2.5,2.6,4.1,3c0.4,0.1,0.7,0.1,1.1,0.2c0.2,0.2,0.4,0.3,0.5,0.3c0.9,0.4,1.9,0.6,2.8,0.6c1.6,0,3.1-0.6,4.4-1.5
		C578.2,736,581.1,730.4,578.6,725.8z"/>
	<path class="st7" d="M576,768.2c-0.1-0.1-0.2-0.1-0.4-0.2c-1.6-1.8-4.8-2.8-6.6-0.5c-0.1,0.1-0.2,0.3-0.3,0.4
		c-2.2,0.4-4.3,1.6-5.4,3.7c-2.1,3.9,0.1,7.9,4.2,8.9c0.9,0.2,1.8,0.3,2.7,0.2c0.8,0.3,1.7,0.5,2.6,0.5c3,0,5.8-2,6.7-4.9
		C580.3,773.3,578.8,769.8,576,768.2z"/>
	<path class="st8" d="M260.1,516.4c-1,0-2,0.3-2.8,0.8c-6.7-2-15.2-0.2-18.6,5.9c-4.5,7.9-1.2,19.6,7,23.5c4.5,2.2,10,2.2,14.8,0.4
		c4.9,0.3,9.7-1.9,12.4-6.7C277.4,531.6,270.4,516.3,260.1,516.4z"/>
	<path class="st9" d="M373.7,568.1c-1.3-1.8-3-3.1-5.2-3.7c-4.5-1.3-8.8,1-10.5,4.6c-8.2,3.3-9.4,14.5-2.4,20.9
		c9,8.2,22.6,2.7,23-9.5C378.8,575.8,377.5,570.9,373.7,568.1z"/>
	<path class="st10" d="M278.9,637.8c1.8-5.2,1.4-10.8-1-15.6c0.3-2.3-0.4-4.9-1-7.1c-0.5-2-1-4-1.5-5.9c-1.2-6.1-2.7-12.1-4.3-18
		c0.6-0.6,1-1.4,0.7-2.5c-1.6-7.1-3.2-14.2-4.8-21.4c-0.4-1.8-0.8-3.6-1.2-5.3c-0.2-1.1-0.4-2.3-0.8-3.5c-0.3-1.6-0.5-3.2-0.7-4.7
		c0.2-0.5,0.4-0.9,0.6-1.4c0.5-1.1,0.3-2.4-0.8-3c-0.9-0.6-2.3-0.3-2.9,0.6c-1.7-0.2-3.3-0.1-4.9,0.5c-1.5,0.5-2.2,1.8-1.9,3.3
		c2.6,12.9,5.6,25.6,8.3,38.5c-0.8,0.7-1.2,1.9-0.9,3c1.5,5.3,2.9,10.6,4.4,15.9c1,3.8,2.2,7.6,4.1,11.1c0.1,0.3,0.2,0.6,0.2,0.9
		c0.3,2.9,0.7,5.8,1.1,8.7c0.5,3.4,0.8,7.2,3.4,9.8c1.9,1.8,4.5-0.1,4.1-2.4C279.1,638.7,279,638.2,278.9,637.8z"/>
	<path class="st10" d="M377.9,672.8c0-10.6-1.2-21.1-2.5-31.6c-1.2-10.5-2.5-21-3.8-31.5c-0.4-2.8-0.7-5.7-1.1-8.5
		c-0.1-0.8-0.3-1.6-0.5-2.4c-0.1-0.5-0.1-0.9-0.2-1.4c-0.2-1.2-0.8-2.2-2.1-2.4c-0.3,0-0.6,0-0.9,0c-0.8-0.1-1.6,0.2-2.3,0.7
		c-1,0.8-0.8,2.6,0.1,3.4c0.1,0.1,0.1,0.3,0.2,0.4c0.1,0.1,0.1,0.1,0.2,0.2c0.3,9.3,1,18.6,1.7,28c0.8,10.1,1.7,20.3,2.7,30.4
		c0.5,5.5,1,11.1,2.8,16.3c0.5,1.5,2.8,2,3.6,0.6C376.9,674.9,377.9,674.1,377.9,672.8z"/>
	<path class="st10" d="M463.2,674.5c-0.2-1.9-0.6-3.6-1.4-5.3c-0.2-0.4-0.5-0.7-0.8-0.9c-0.3-1.9-0.6-3.8-1-5.7
		c-0.2-1.3-0.4-2.6-0.7-3.9c-0.1-0.5-0.1-1.1-0.2-1.6c-0.3-2.1-0.4-4.7-2.5-5.8c-1.2-0.6-2.3-0.4-3.3,0.4c-1,0.8-1.2,2.2-0.9,3.3
		c0.2,0.7,0.6,1.3,0.9,1.9c0.4,0.9,0.6,1.9,0.8,2.9c0.1,1.3,0.2,2.7,0.3,4c0.2,3.3,0.4,6.7,1.1,9.9c0.3,1.5,0.6,3.1,1.6,4.4
		c1.3,1.7,3.7,2.3,5.3,0.6C463.5,677.7,463.3,676,463.2,674.5z"/>
	<path class="st10" d="M520.1,340.5c-2.6-2.7-5.2-5.4-7.9-8c-2.3-2.3-4.5-4.7-7.1-6.6c-0.9-1.6-1.9-3.2-3.5-4
		c-1.8-0.9-3.8-0.6-5.2,0.5c-0.8,0.3-1.5,1.1-1.5,2.1c0,0.1,0,0.1,0,0.2c-0.1,0.2-0.1,0.3-0.1,0.5c-0.7,3,1.5,5.7,3.1,8.1
		c1.7,2.4,3.3,4.9,5.1,7.2c2.1,2.8,4.2,5.6,6.4,8.2c0.8,1,2,2.5,3.3,3.6c-0.4,2,1.3,3.8,3.6,3.5c3.1-0.5,6.9-2.3,8.3-5.3
		C526.6,346.4,522.6,343.2,520.1,340.5z"/>
	<path class="st10" d="M540.3,216.5c-0.9-1.5-2.4-2-3.8-1.8c-0.1-0.4-0.4-0.7-0.7-1c-0.6-1.8-1.9-3.1-3.6-3.9c0.6-1.3-0.1-3.2-2-3.1
		c-1.8,0.1-3.4,0.8-4.6,2.2c-0.6,0.7-1,1.4-1.2,2.2c-0.5,0.4-1,0.8-1.5,1.2c-2,1.9-3.9,4-5.8,6c-4.8,5-9.6,9.9-14.4,14.9
		c-1.7,1.8,0,4.3,1.9,4.2c-0.1,1.3,1.1,2.5,2.5,2.2c-0.5,1.4,0.8,2.8,2.1,2.8c-0.1,0.4-0.1,0.7-0.1,1.1c-0.1,2.1,2.5,2.9,3.9,1.6
		c8.1-7.2,16.1-14.5,23.9-22C539,221.6,541.9,219.3,540.3,216.5z"/>
	<path class="st10" d="M433.8,228.4c-3-3.9-5.9-7.7-8.9-11.6c-1.4-1.8-2.9-3.7-4.3-5.5c-1.6-2-2.9-4-5.8-3.3c-3.3,0.9-8,4.1-7.2,7.6
		c-0.3,0.7-0.3,1.5,0.1,2.1c0.2,0.3,0.4,0.7,0.6,1c0,0.3,0.1,0.6,0.1,0.8c0.4,2,1.7,3.6,3.4,4.5c0.6,0.9,1.1,1.7,1.7,2.6
		c1.9,2.9,3.8,5.8,6.2,8.3c1.8,1.9,5.6,5.4,8.5,3.7c1.4-0.8,1.5-2.4,2.1-3.7c0.6-1.2,1.4-2.3,2.5-3.1
		C433.9,231.2,434.7,229.6,433.8,228.4z"/>
	<path class="st10" d="M425.7,312.9c-1.2-1.9-3.6-2.4-5.6-1.6c-1.9,0.8-3.6,2.2-5.3,3.4c-1.6,1.2-3.2,2.5-4.6,3.9
		c-3.3,3.1-6.3,6.5-8.9,10.2c-0.7,0.9-0.2,2.4,0.8,2.9c0.3,0.2,0.5,0.2,0.8,0.3c0.4,0.7,1,1.2,1.7,1.4c-0.1,0.4,0,0.9,0.3,1.4
		c0.6,1.1,2,1.4,3.1,0.8c4.5-2.3,8.7-5.4,12.3-9.1c1.6-1.7,3.8-3.7,4.4-6.1c0.4-0.6,0.8-1.1,1.1-1.7
		C426.6,316.8,426.8,314.7,425.7,312.9z"/>
	<path class="st11" d="M408.8,369.2c-0.2-0.5-0.3-1-0.5-1.5c-0.6-1.7-2.2-2.1-3.4-1.7c-0.1-0.6-0.2-1.1-0.4-1.7
		c-0.5-2.2-3-2.3-4.3-1c-0.2-0.8-0.3-1.6-0.5-2.5c-0.3-1.2-1.6-2-2.8-1.8c-1.3,0.2-2,1.2-2.2,2.5c-0.1,0.5-0.1,1-0.2,1.5
		c-0.6-0.8-1.7-1.1-2.7-0.8c0-0.2,0-0.3-0.1-0.5c-0.1-1.3-1-2.4-2.4-2.4c-1.3,0-2.5,1.1-2.4,2.4c0,0.1,0,0.2,0,0.4
		c-0.4-0.5-1-0.9-1.8-0.9c-0.5,0-0.9,0.1-1.3,0.4c-0.4-0.5-1-0.9-1.8-0.9c-0.5,0-1.1,0.2-1.5,0.6c-1.3-1.4-4.4-0.6-4.3,1.7
		c0,0.5,0.1,0.9,0.1,1.4c-0.4-0.9-1.5-1.5-2.5-1.4c-0.1-0.4-0.1-0.8-0.2-1.1c-0.4-2.6-4.7-2.1-4.8,0.3c-0.5-0.2-1.1-0.3-1.6-0.1
		c-1.4,0.4-1.9,1.7-1.7,2.9c0,0.1,0,0.2,0,0.3c-0.8,0.1-1.5,0.6-1.9,1.3c-0.7-2.5-5.1-1.8-4.8,0.9c0,0.1,0,0.1,0,0.2
		c0,0-0.1,0-0.1,0c-0.4-0.9-1.6-1.4-2.6-1.3c-0.9,0.1-1.7,0.7-2,1.5c-0.5,0.2-1,0.6-1.3,1.1c-1.1,0.2-2.1,1.2-2.2,2.4
		c0,0.5,0,1,0,1.5c-1.4,1.4-1.8,4.1-1.4,6c0.4,1.6,1.4,3.3,3,3.8c0.3,0.1,0.7,0.1,1,0.1c0.1,0.3,0.3,0.5,0.4,0.8
		c0.3,1.1,0.5,2.2,0.9,3.2c0.4,1.3,1.6,1.8,2.7,1.7c0.4,1.8,0.8,3.7,1.2,5.5c0.4,1.7,2.2,2.1,3.6,1.5c0.4,0.7,1.1,1,1.8,1.1
		c0.4,1.5,0.7,3,1.2,4.5c0.4,1.4,1.8,1.9,3.1,1.6c0.1,0.4,0.2,0.7,0.3,1.1c0.4,1.2,1.7,2,2.9,1.7c0.2-0.1,0.4-0.2,0.6-0.3
		c0.2,0.5,0.3,0.9,0.5,1.4c0.7,1.9,2.7,2,3.8,1.1c0.1,0.4,0.3,0.7,0.4,1.1c0.5,1.2,1.5,1.7,2.4,1.7c0.3,1.1,0.7,2.2,1,3.3
		c1,3,5.2,1.7,4.7-1.3c-0.1-0.4-0.1-0.7-0.2-1.1c0.1,0,0.1,0,0.2,0c0.1,0.2,0.1,0.4,0.2,0.6c0.7,2.5,5.1,2.2,4.8-0.6
		c0-0.4-0.1-0.9-0.1-1.3c0.2,0,0.4,0,0.6-0.1c1.4-0.4,1.9-1.7,1.7-3c-0.1-0.8-0.2-1.6-0.4-2.4c0.4,0.2,0.9,0.3,1.4,0.2
		c1.1-0.2,2.3-1.2,2.1-2.4c-0.1-0.6-0.1-1.1-0.2-1.7c1.2-0.1,2.4-0.9,2.3-2.4c-0.1-1.3-0.2-2.6-0.3-4c1.5,0.6,3.8-0.2,3.6-2.2
		c-0.1-0.9-0.2-1.7-0.3-2.6c0,0.1,0,0.2,0,0.2c0.6,2.8,5.4,2.2,5-0.7c-0.1-0.6-0.1-1.1-0.2-1.7c0.5,0.2,1.1,0.2,1.6,0.1
		c1.5-0.4,2-1.8,1.8-3.2c-0.2-1.3-0.4-2.7-0.5-4c0.1,0,0.1,0,0.2,0c1.3-0.2,2.1-1.2,2.2-2.5c0.1-2,0.3-4.1,0.4-6.1
		C411.2,370.4,410,369.3,408.8,369.2z"/>
	<path class="st11" d="M731.6,172.4c-1.1-12.4-2.9-25.1-9.5-35.9c-3.4-5.6-8-10.6-12.9-15.3c-4.9-13.6-15.1-24.5-26.6-33.7
		c-3.9-4.2-8.4-7.6-14.3-9.6c-1.3-0.4-2.6-0.6-4-0.5c-5.4-3.7-11.2-6.8-17.3-9.3c-33.4-13.6-74.2,0.4-102.3,20.1
		c-4.2,3-6.8,7.8-5.3,13.1c1.2,4.5,6.2,9.1,11.2,8.5c3.8-0.4,7-0.6,10-0.1c0.4,0.3,0.8,0.7,1.2,1c2.2,1.5,4.5,2.9,6.8,4.1
		c0.6,0.6,1.2,1.1,1.9,1.6c6,4.4,12.1,8.9,18.1,13.3c2.6,1.9,5.3,2.4,7.9,1.9c0.7,0.9,1.5,1.7,2.2,2.6c-8.5,7.8-16,16.6-21.1,27.1
		c-15.4,32-9.8,69.1,11.9,96.7c10.5,13.4,26.7,26.6,43.8,22.6c7.4,2.6,15.1,3.6,23,2.1c2.6-0.5,4.8-2.1,6.4-4.2c0,0,0.1,0,0.1,0
		c6.5,0.8,12.9-1.1,18.3-4.5c1.5-0.2,2.9-0.5,4.3-1c8.1-1.7,15.7-6.8,21.6-12.2c4.7-4.2,9.3-9.4,12.4-15c2-3.6,4.3-8,5.4-12.4
		c2.8-4,4.4-9.3,5.5-13.8c1.1-4.7,1.7-9.3,1.7-14C733.5,194.7,732.6,183.4,731.6,172.4z"/>
	<path class="st11" d="M320.7,192.2c-0.1,0.1-0.1,0.2-0.2,0.3c-1.9-0.5-4.1-0.3-6.3,1c-13.9,8.3-25.1,20.1-34.3,33.3
		c-4.3,6.2-8.1,12.7-11.2,19.5c-2.3,5-5,10.7-5.1,16.3c-3.3,7-6.4,14.2-8.6,21.6c-2.6,8.8-5,19.2,1.3,26.7
		c-0.3,11.7,2.7,23.5,9.4,33.8c5.3,8.2,12.1,15.1,19.9,21c7.8,5.9,18.8,13.2,27.8,5.8c0.1,0,0.2,0,0.2,0c2.6,0,5.5-1.5,6.7-3.9
		c0.3-0.6,0.6-1.1,0.8-1.7c1-1.7,1.1-3.9,0.7-5.8c-0.2-0.9-0.6-1.7-1.1-2.5c-0.1-0.9-0.3-1.8-0.7-2.7c0.3-1.3,0.6-2.5,0.6-3.8
		c0.5-8.1-4-14.2-8.7-20.2c-4.8-6.3-9.6-13.1-12.8-20.4c-0.3-0.7-0.6-1.4-0.8-2.1c0.6-6.3,3.5-12.6,5.7-18.4
		c2.9-7.6,7-14.7,9.4-22.5c1.3-4,1.8-8.3,1.4-12.5c-0.1-1.2-0.3-2.4-0.5-3.5c7.4-15.9,11.7-33.2,19.9-48.8
		C338.6,194.4,327.5,184.4,320.7,192.2z"/>
	<path class="st12" d="M772.6,611.5c-0.6-2.1-2.1-4-4.1-5.1c-0.5-1.3-1.1-2.6-1.9-3.7c-3.3-4.5-9.3-6.7-14.7-5.2
		c-1.3,0.3-2.5,0.9-3.6,1.6c-1.4-0.7-3-1.1-4.6-1.1c-1.4,0-2.8,0.3-4.2,0.7c-4.4-3.1-12.3-1.1-12.4,6c-0.1,7.7,0,15.3,0.2,23
		c0.2,4.6,4.8,9.1,9.6,7.3c1.6-0.6,2.9-1.3,4.1-2.2c2.6,1.2,5.7,1.5,8.7,0.7c4.5-1.3,8.6-5.1,11.1-9.4c2.8-0.3,5.6-1.5,7.9-3.3
		C771.7,618.6,773.6,615.3,772.6,611.5z"/>
	<path class="st12" d="M274.6,642.5c0-0.9-0.2-1.8-0.6-2.6c-0.1-0.3-0.2-0.6-0.4-0.9c-0.1-0.3-0.2-0.5-0.4-0.8
		c-0.3-0.5-0.6-1-0.9-1.4c0,0,0-0.1,0-0.1c-0.6-1.6-1-2.3-2.1-3.6c-0.5-0.6-1.2-1.1-1.9-1.5c-0.1-0.1-0.2-0.1-0.3-0.2
		c-1-0.7-2.5-1.1-3.8-1.1c-2,0-4.1,0.7-5.4,2.2c-0.4,0.5-0.8,1-1.1,1.5l-0.7,1.7l-0.3,1.9c0,1,0.2,1.9,0.6,2.8
		c0.2,0.6,0.5,1.1,0.9,1.6c0.3,0.5,0.8,1,1.3,1.3c0.1,0.1,0.2,0.2,0.4,0.3c0.3,0.6,0.7,1.2,1.2,1.7c0.4,0.4,0.8,0.8,1.2,1.3
		c1.1,1.1,2.5,2,4,2.4c1.1,0.3,2.3,0.3,3.4,0c0.8-0.2,1.6-0.6,2.2-1.2c0.7-0.5,1.3-1.1,1.7-1.8c0.6-1,0.9-2.1,0.9-3.3
		C274.6,642.7,274.6,642.6,274.6,642.5z"/>
	<path class="st13" d="M242.7,466.8c-1.1-2.2-2.8-4.1-4.8-5.5c-3-3.1-7.6-4.7-11.9-5c-6.7-0.5-14.1,2.7-17.2,8.9
		c-2.7,5.5-1.4,11.8,2.4,16.4c4,4.9,10.4,6.5,16.4,5.6c6.1-0.9,12.4-4.6,15.1-10.3C244.2,473.5,244.3,470,242.7,466.8z M220.5,475.5
		C220.5,475.5,220.5,475.5,220.5,475.5c-3-2.5-2.1-7,1.4-8.6c3.5-1.5,8.4,0.6,9.8,4.2c0.2,0.6,0.4,1.3,0,1.7
		c-0.6,0.7-1.9,1.2-2.7,1.6c-2.1,1-4.5,1.6-6.9,1.4C221.5,475.8,221,475.7,220.5,475.5z"/>
	<path class="st13" d="M217.3,383c-3.5-1.6-6.9-0.6-10.4,0.6c-0.8,0.3-1.6,0.5-2.3,0.8c-2.1,0.5-4.1,1-6.1,1.6
		c-7.3,1.9-14.5,3.9-21.8,5.8c-2.2,0.6-2.2,3.1-1,4.4c-1.2,1.3,0.1,3.6,2,3.2c3.2-0.8,6.5-1.4,9.7-2.1c3.3-0.7,6.6-1.5,9.9-2.4
		c6.5-1.7,12.9-3.7,19.2-6c0.9-0.4,1.6-1.3,1.6-2.3C218.7,385.3,218.7,383.6,217.3,383z"/>
	<path class="st13" d="M180.5,386.2c-0.4-3.7-1.5-7.2-3.1-10.6c-0.7-1.5-1.6-2.9-2.6-4.2c-1.3-1.7-2.8-4.1-5.2-4.2
		c-1.3,0-2.5,1.2-2.5,2.5c0,1.2,0.6,2.1,1.4,2.9c-0.4,0.6-0.6,1.4-0.4,2.2c0.8,2.5,1.9,4.9,3.2,7.1c1.4,2.2,3,4.2,4.7,6.2
		C177.4,389.7,180.7,388.3,180.5,386.2z"/>
	<path class="st13" d="M202.3,376.7c-0.3-0.7-0.3-1.5-0.5-2.2c-0.2-0.7-0.4-1.4-0.5-2.2c-0.3-1.4-0.7-2.7-1.1-4
		c-0.5-1.5-1.1-2.9-1.8-4.4c-0.8-1.8-1.7-3.6-3.6-4.3c-1-0.3-2.1,0.1-2.8,0.9c-0.3,0-0.6,0-0.9,0.1c-1.6,0.5-3,2.4-2.3,4.1
		c1.2,3,2.5,5.8,4.1,8.6c0.7,1.3,1.5,2.5,2.3,3.7c0.5,0.7,1,1.4,1.6,2c1,1,2.3,1.3,3.6,1C201.7,379.9,202.8,378.1,202.3,376.7z"/>
	<path class="st13" d="M184.9,318.3c-0.1-0.2-0.1-0.3-0.2-0.5c0-0.3,0-0.6-0.1-0.9c-0.1-0.4-0.4-0.8-0.7-1.1
		c-0.1-0.1-0.2-0.1-0.2-0.2c-0.2-0.2-0.5-0.4-0.8-0.4c0,0,0,0,0,0c-0.4-0.1-1-0.1-1.4,0c-0.5,0.2-0.9,0.4-1.4,0.8
		c-0.2,0.2-0.3,0.4-0.5,0.6c0,0-0.1,0.1-0.1,0.2c-0.2,0.5-0.4,1-0.4,1.6c0,0.2,0.1,0.5,0.1,0.7c0,0,0,0,0,0.1c0,0,0,0,0,0.1
		c0.1,0.3,0.2,0.5,0.3,0.8c0.1,0.1,0.2,0.2,0.2,0.3c0.1,0.1,0.2,0.2,0.2,0.3c0,0,0.1,0.1,0.1,0.1c0.5,0.4,0.8,0.6,1.4,0.8
		c0.5,0.1,1.1,0.1,1.5,0c0,0,0,0,0,0l0.6-0.3c0.1,0,0.4-0.3,0.5-0.4c0.2-0.2,0.3-0.4,0.4-0.6c0.2-0.3,0.3-0.6,0.3-0.9
		C185,318.9,185,318.6,184.9,318.3z"/>
	<path class="st13" d="M151.2,325.9c0,0,0-0.1,0-0.1c0-0.1,0-0.2,0-0.3c0-0.2,0-0.3-0.1-0.5c0-0.3-0.1-0.6-0.2-0.9
		c-0.1-0.3-0.2-0.5-0.5-0.7c-0.2-0.2-0.4-0.4-0.7-0.5c-0.3-0.1-0.6-0.2-0.9-0.2c-0.2,0-0.4,0.1-0.6,0.1c-0.4,0.1-0.7,0.3-1,0.6
		c-0.1,0.2-0.2,0.3-0.4,0.5c-0.2,0.4-0.3,0.7-0.3,1.1c0,0.2,0,0.3,0,0.5l0,0.3c0,0.1,0,0.1,0,0.2c0,0.3,0,0.5,0.1,0.8
		c0.1,0.4,0.3,0.7,0.6,1c0,0,0,0,0,0c0.2,0.2,0.5,0.4,0.7,0.5c0.3,0.1,0.6,0.2,0.9,0.2c0.2,0,0.4-0.1,0.6-0.1c0.4-0.1,0.7-0.3,1-0.6
		c0,0,0,0,0,0c0.3-0.3,0.5-0.6,0.6-1C151.3,326.4,151.3,326.1,151.2,325.9z"/>
	<path class="st14" d="M392.2,892.8c-0.1-0.7-0.6-1.1-1.2-1.3c-0.1-1.4-0.4-2.8-0.7-4.1c-0.5-2.4-1.3-4.8-2.6-7
		c-0.3-0.4-0.6-0.8-1.1-1c0-0.1,0-0.3-0.1-0.4c-1.1-3.3-3.5-5.7-6.8-6.8c-0.4-0.1-0.8-0.1-1.1-0.1c-1.4-1.1-2.8-2-4.6-2.2
		c-2.5-0.3-4.8,1-6.9,2.3c-1.8,1.1-3.5,2.2-5.1,3.5c-3.3,2.7-5.6,6.4-6.5,10.6c-0.9,4.6-0.7,9.4-0.2,14c0.3,2.6,0.7,5.1,1.2,7.6
		c0,1.5,0.3,2.9,0.7,4.4c0.2,2.2,0.3,4.3,0.2,6.5c0,1.3,1.3,2.4,2.5,2.5c0.1,0.5,0.1,0.9,0.2,1.4c0.1,0.6,0.3,1.2,0.6,1.8
		c0,0,0,0.1,0,0.1c0.1,0.3,0.2,0.6,0.4,0.8c0.1,0.2,0.3,0.5,0.4,0.7c0.7,1,1.9,1.5,3,1c0.7-0.3,1.1-0.7,1.3-1.3c0,0-0.1-0.1-0.1-0.1
		c-0.1-0.4-0.1-0.9-0.1-1.3c0-0.2,0.1-0.5,0.1-0.7c0-0.1,0-0.2,0.1-0.3c0-0.1,0.1-0.2,0.1-0.3c0,0,0-0.1,0-0.1c0,0,0-0.1,0-0.1
		c0-0.5,0.4-0.8,0.8-0.8c0.4,0,0.8,0.4,0.8,0.8c0.1,0.1,0.2,0.2,0.3,0.4c0.1,0.3,0.2,0.7,0.3,1c1.1-0.2,2.1-0.8,2.8-1.6
		c1.2,7.7,2.2,15.4,3.3,23.1c0.3,1.1,0.6,2.2,0.8,3.3c0.8,3.6,1.3,7.2,1.5,10.8c0,0,0,0,0,0c0.4,0.4,0.9,0.7,1.6,0.7
		c0,0,0.1,0,0.1,0c0.1-6.5-0.5-13.1,0.6-19.5c-0.1-1.7-0.2-3.4-0.3-5.1c-0.1-2.7-0.3-5.4-0.3-8.1c0.1-0.1,0.2-0.3,0.4-0.4
		c0-0.7,0.1-1.3,0.1-2c0.1-0.7,0.1-1.4,0.2-2.1c0.1-0.6,0.1-1.3,0.5-1.8c0.1-0.2,0.3-0.3,0.5-0.3c0.2-1.1,0.5-2.2,1-3.2
		c0.4-0.8,1.8-0.4,1.7,0.5c0,0.2,0,0.4,0,0.6c0.3,0,0.6,0.2,0.7,0.6c0.2,0.7,0.3,1.4,0.5,2.1c0.2,0.6,0.4,1.2,0.7,1.8
		c0.1,0.2,0.1,0.3,0.2,0.5c0.1,0,0.2-0.1,0.3-0.1c0.1-2,0.5-4.1,0.7-6c0.2-1.6,0.4-3.7,1.1-5.4c0.1-1.5,0.3-2.9,0.4-4.4
		c1.2,1,3.4,0.8,3.9-1C392.5,902.4,393,897.4,392.2,892.8z"/>
	<path class="st14" d="M647.7,880c-0.1-1.2-0.3-2.4-0.7-3.5c-0.1-0.3-0.3-0.6-0.4-0.8c0,0,0-0.1,0-0.1c0-1-0.4-1.7-1-2.3
		c-0.1-0.4-0.3-0.9-0.4-1.3c-0.3-0.8-0.8-1.5-1.5-1.9c-0.6-1.2-1.4-2.3-2.3-3.2c-1.1-1.1-2.4-1.9-3.8-2.4c-0.1-0.1-0.2-0.3-0.3-0.4
		c-2.2-1.8-4.7-2-7.4-1.7c-0.8,0.1-1.7,0.2-2.5,0.4c-2.6,0.1-5.1,0.8-7.3,2.1c-0.3,0.2-0.6,0.4-0.9,0.6c-3.3,1.7-6.6,4.3-7.4,7.7
		c-2.1,3.1-2.9,6.6-3,10.3c-0.1,4.4,0.9,8.9,0.1,13.3c-0.5,2.6,2.2,3.8,3.8,2.5c0.1,0.4,0.2,0.8,0.3,1.2c0.6,2.1,1.5,4.1,1.9,6.2
		c0.3,1.6,0.5,3.3,0.5,4.9c0,0.5,0,0.9,0,1.3c0.1,1.6,1.4,2.3,2.6,2.1c0-0.6,0.1-1.2,0.1-1.8c0-0.5,0.2-0.9,0.4-1.3
		c0-0.3,0.1-0.5,0.1-0.8c0-0.1,0.1-0.3,0.1-0.4c0-0.1,0-0.1,0-0.2c0.1-0.2,0.2-0.4,0.3-0.6c-0.1,0.1-0.1,0.1-0.2,0.2
		c0.1-0.1,0.1-0.2,0.2-0.3c0.1-0.1,0.2-0.1,0.3-0.2c0.1-0.1,0.3-0.1,0.4-0.1c0,0,0,0,0.1,0c0-0.4,0.1-0.9,0.1-1.3
		c0.5,0.9,1,1.7,1.4,2.7c0,0,0.1,0,0.1,0c0,0.1,0,0.1,0,0.2c-0.1,0.6,0.1,1.2,0.1,1.8c0,0.1,0.1,0.2,0.1,0.3
		c0.1,0.3,0.2,0.5,0.3,0.8c0.2,0.4,0.4,0.7,0.7,0.9l0,0c0.1,0.1,0.3,0.3,0.4,0.4c0.1,0.1,0.2,0.1,0.3,0.1c0,0.7,0.1,1.4,0.1,2.1
		c0.1,0.1,0.1,0.2,0.2,0.3c0,0.5,0,1,0,1.5c0,0.9,0,1.9,0.1,2.8c0,0,0,0.1,0,0.1c0.3,8,0.2,16,0.3,24c0.7,0.5,1.6,0.7,2.4,0.6
		c0.7-4.7,1.4-9.3,2.3-14c0-1.2,0-2.4,0-3.6c0.3-0.3,0.5-0.7,0.7-1.2c0.1-0.5,0.3-1.1,0.4-1.6c0.2-0.8,0.4-1.6,0.6-2.3
		c0.2-0.6,0.3-1.1,0.5-1.7c0-0.1,0-0.1,0-0.2c0-1.1,0.2-2.2,0.4-3.3c0.1-0.5,0.2-1.1,0.4-1.6c0.1-0.2,0.2-0.5,0.2-0.7v0c0,0,0,0,0,0
		c0,0,0-0.1,0-0.1c-0.1-0.2-0.2-0.6-0.1-0.9c0.2-0.6,0.9-0.9,1.4-0.6c0.2,0.2,0.4,0.4,0.5,0.6c0.4-0.1,0.7-0.2,1-0.4
		c0-0.3,0.1-0.7,0.3-1c0.4-0.7,1.6-0.6,1.8,0.2c0.1,0.4,0.2,0.7,0.3,1.1c0.1,0.1,0.2,0.2,0.3,0.3c0.4,0.6,0.6,1.5,0.8,2.3
		c0.1,0.4,0.2,0.8,0.2,1.2c0,0.2,0,0.4,0,0.6c0.1,0,0.2,0,0.4,0c1.8,0,2.9-1.4,3.1-3.1c0.1-1.2,0.3-2.3,0.6-3.4
		c0.9,0,1.8-0.5,2.4-1.5c1.1-1.8,2-3.8,2.6-5.9c-0.3-0.2-0.6-0.5-0.6-0.9c0.1-2.1,0.5-4.3,1-6.3c0.1-0.5,0.3-0.9,0.4-1.3
		c-0.1-0.9-0.2-1.9-0.5-2.8c0-0.1-0.1-0.3-0.1-0.5c0-0.1,0.1-0.2,0.1-0.4c0.3-0.6,0.4-1.2,0.3-1.7c0.2-1.2,0.4-2.4,0.5-3.7
		C648.8,885.6,648.4,882.7,647.7,880z"/>
	<path class="st14" d="M520.1,911.3c0.1-2.6,0.1-5.2-0.4-7.9c-0.8-4.6-3.3-9.2-7.6-11.4c-1.4-0.7-2.8-1.2-4.3-1.5
		c-0.6-0.7-1.7-1.1-2.9-0.4c-0.1,0-0.1,0.1-0.2,0.1c-0.2,0-0.3,0-0.5,0c-0.3-0.2-0.6-0.4-1-0.4c-0.7-0.8-1.8-1.3-2.9-0.7
		c-0.1,0.1-0.2,0.1-0.3,0.2c-0.6-0.4-1.4-0.6-2.2-0.1c-0.2,0.1-0.4,0.2-0.6,0.3c-0.5-0.7-1.5-1.1-2.5-0.5c-2.7,1.7-5.5,3.4-8.2,5
		c-0.5,0.3-0.8,0.7-0.9,1.1c-0.2,0.4-0.3,0.8-0.2,1.2c-0.8,0.6-1.6,1.2-2.4,1.8c-0.7,0.5-1.1,1.4-1,2.2c-1,2.1-1.5,4.5-1.8,6.8
		c-0.9,6.5-0.8,13,0.5,19.5c0.4,2,2.5,2.3,3.9,1.5c0.5,1.4,1,2.7,1.6,4c0.2,0.9,0.4,1.8,0.5,2.7c0.6,1.1,1,2.2,1.3,3.5
		c0.3,1.5,0.6,3,0.7,4.6c0.4,0.2,0.8,0.2,1.3,0.2c0-0.2,0-0.3,0-0.5c0-0.1,0-0.1,0-0.2c0.7-0.1,1.3-0.6,1.5-1.3
		c0.2-0.7,0.2-1.4,0.2-2.1c0.3-0.7,0.4-1.6,0.4-2.3c0-0.1,0-0.2,0-0.3c0.4,0,0.7,0.1,1.1,0.2c1.1,0.6,1.8,1.9,2.2,3
		c1.1,2.7,1.4,5.5,1.9,8.3c0.3,1.5,0.6,2.9,0.7,4.4c0.1,1.6-0.1,3.2,0.2,4.8c0.1,0.4-0.1,0.7-0.3,1c0.7,7.7,0.8,15.5,2.2,23.1
		c0.4-0.1,0.7-0.3,1-0.6c0.1-2.5,0.4-5.1,0.5-7.5c0.1-2.3,0.3-4.6,0.5-6.9c0.2-1.7,0.3-3.4,0.9-5c0-0.6,0-1.3-0.1-1.9
		c-0.2-0.1-0.4-0.2-0.4-0.5c-0.5-1.3-0.3-2.8-0.1-4.1c0.2-1.4,0.4-2.7,0.8-4c0.4-1.9,0.9-3.7,1.3-5.6c-0.1-0.1-0.1-0.2-0.1-0.3
		c-0.1-0.6-0.2-1.2-0.2-1.9c0-0.4,0.2-0.6,0.5-0.8c0,0,0,0,0,0c0.1-0.9,1.1-1.2,1.6-0.6c0.1,0.1,0.3,0.2,0.3,0.4c0,0,0,0,0,0
		c0.3,0.4,0.7,0.6,1.2,0.8c0,0,0,0,0,0c0.1-0.4,0.3-0.8,0.5-1.2c0,0,0-0.1,0.1-0.1c0,0,0,0,0,0c0,0,0,0,0,0c0-0.1-0.1-0.3,0-0.1
		c0,0,0,0,0-0.1c0-0.1,0-0.1,0-0.2h0c0-0.4,0.2-0.7,0.5-0.8c0.4-0.2,0.8,0,1.1,0.3c0.2,0.2,0.3,0.4,0.3,0.7c0,0,0,0,0,0
		c0,0.1,0.1,0.2,0.1,0.2c0.1,0.2,0.2,0.5,0.2,0.8c0.1,0.3,0.1,0.6,0.1,1c0,0.2,0,0.5,0,0.7c0.2,0.5,0.4,0.9,0.7,1.4
		c0.4,0.9,1.4,1.2,2.3,1.1c0.3-0.6,0.7-1.2,1-1.9c0.5-0.9,0.9-2,1.5-2.8c0,0,0,0,0,0c0,0,0,0,0,0c0,0,0.1-0.1,0.1-0.1l0.6-2.8
		c1.4,0.2,2.9-0.6,2.8-2.3c0-0.6-0.1-1.2-0.2-1.7c-0.2-1.1-0.3-2.3-0.3-3.4c0.4,0,0.9-0.1,1.3-0.4c-0.1-1.9,0-3.7,0.1-5.6
		c0-2.6,0.1-5.2,0.2-7.8c0.1-1.9,0.2-3.9,0.3-5.8C520.6,911.4,520.3,911.3,520.1,911.3z"/>
	<path class="st15" d="M383.1,886.8c-0.2-0.8-0.4-1.6-0.7-2.4c0.1-0.2,0.2-0.5,0.1-0.7c-0.4-0.9-1-1.7-1.6-2.4
		c-0.2-0.3-0.3-0.6-0.5-0.8c-0.1-0.2-0.3-0.2-0.5-0.3c0-0.1-0.1-0.3-0.2-0.4c-0.1-0.1-0.3-0.3-0.5-0.4c-0.1-0.1-0.2-0.2-0.3-0.2
		c-1.2-0.9-2.7-1.3-4.1-1.2c-0.1-0.3-0.4-0.5-0.7-0.3c-0.1,0.1-0.2,0.1-0.4,0.2c0,0,0-0.1-0.1-0.1c0.4-0.3,0.9-0.6,1.3-0.8
		c0.6-0.3,0.1-1.1-0.5-0.8c-0.5,0.2-1,0.5-1.5,0.8c0,0-0.1,0-0.1,0c-0.4,0.2-0.9,0.4-1.3,0.6c0.1-0.5-0.4-1-1-0.7
		c-0.9,0.4-1.7,0.9-2.5,1.4c-2.3,1.5-4.4,3.3-5.2,6c-0.6,1-0.9,2.2-0.8,3.5c0,0.4,0.1,0.9,0.2,1.3c0,1.2,0.3,2.3,0.6,3.5
		c0.1,0.5,0.6,0.5,0.9,0.4c0.2,0.6,0.5,1.1,0.7,1.6c0.4,0.8,0.8,1.7,1.8,1.7c0.3,0,0.6-0.2,0.6-0.5c0.2-0.9,0.5-1.8,0.8-2.7
		c0-0.1,0.1-0.1,0.1-0.2c0.2,0.2,0.3,0.4,0.5,0.5c0.1,0.6,0.3,1.1,0.5,1.6c0.1,0.2,0.2,0.3,0.3,0.3c0,0.1,0,0.2,0.1,0.4
		c0,0.3,0.1,0.5,0.1,0.8c-0.1,0.1-0.2,0.2-0.2,0.4c0.1,1.3,0.3,2.6,0.6,3.9c0,0.1,0.1,0.2,0.1,0.2c0,0.6-0.1,1.2-0.1,1.8
		c0,0.5,0.9,0.7,1,0.1c0.1-0.4,0.1-0.8,0.2-1.2c0.1-0.1,0.3-0.2,0.3-0.4c0.1-0.4,0.2-0.9,0.2-1.3c0,0,0,0,0,0c0,0.1,0.1,0.2,0.1,0.3
		c0.1,0.1,0.1,0.3,0.2,0.4c0,0.3-0.1,0.5-0.1,0.8c0,0,0,0.1,0,0.1c0,0,0,0,0,0c0,0.1,0,0.1,0,0.2c0,0.4,0.3,0.6,0.6,0.6
		c0.2,0.7,0.3,1.4,0.4,2.1c0.4,1.7,0.7,3.3,1.1,5c0.2,0.7,1.4,0.6,1.3-0.2c-0.3-2.3-0.4-4.7-0.4-7c0.2-0.1,0.4-0.3,0.4-0.6
		c0.1-2.4,0.2-4.7,0.3-7.1c0-0.2,0-0.5,0.1-0.7c0.1-0.4,0.2-0.7,0.3-1.1c0.1,0,0.2-0.1,0.2-0.1c0.2,0.5,0.3,1,0.5,1.5
		c0.1,0.3,0.4,0.5,0.7,0.5c0.3,0.4,0.9,0.2,1-0.2c0.2-0.5,0.4-0.9,0.5-1.4c0.4,1.3,0.8,2.5,1.2,3.7c0.2,0.7,1.2,0.4,1.1-0.3
		c-0.3-1.6-0.4-3.2-0.3-4.9c0.2-0.4,0.3-0.8,0.3-1.2c0,0,0,0,0.1,0c0.3,0.2,0.7,0.1,0.9-0.2c0.4-0.8,0.4-1.6,0.3-2.5
		c0-0.1,0-0.2-0.1-0.4C382.6,887.8,383.2,887.4,383.1,886.8z"/>
	<path class="st15" d="M511.1,907.1c0-1.7-0.4-3.4-1.5-4.9c-0.2-0.2-0.4-0.3-0.6-0.3c-0.7-1.7-2.3-3-4-3.6c-0.5-0.2-1-0.3-1.5-0.4
		c-0.1-0.1-0.2-0.3-0.4-0.3c-0.2-0.1-0.3-0.1-0.5-0.1c0.4-0.6-0.6-1.4-1.1-0.8c0,0-0.1,0.1-0.1,0.1c0,0,0,0,0,0c0,0,0,0,0,0
		c-0.1,0.1-0.2,0.3-0.3,0.4c-1,0-2,0.3-2.9,0.7c-0.6,0.2-1.2,0.5-1.7,0.8c-2.5,0.9-4.8,2.1-6.4,4.4c-0.9,1.3-1.4,2.8-1.3,4.4
		c0,0,0,0.1,0,0.1c-0.1,0.2-0.2,0.4-0.3,0.6c-0.2,0.5,0.2,1,0.6,1c0,0.2,0.1,0.4,0.1,0.5c0.2,0.7,0.4,1.5-0.2,2.1
		c-0.5,0.5,0,1.3,0.7,1.2c0.3-0.1,0.7-0.2,1-0.3c0.2-0.1,0.7-0.1,0.9-0.2c-0.1,0.2,0,0.4-0.1,0.6c0,0.4-0.1,0.7-0.1,1.1
		c-0.1,1.4-0.3,2.9-0.4,4.3c-0.1,0.7,1,0.9,1.3,0.3c0.6-1,1.1-2,1.4-3.1c0.1,0.1,0.2,0.2,0.3,0.3c0.1,0.1,0.2,0.2,0.3,0.3
		c0.1,0.2,0.1,0.3,0.2,0.5c0.2,0.5,1,0.7,1.3,0.2c0.4-0.8,0.8-1.5,1.1-2.3c0.7,3.2,1.2,6.4,1.7,9.6c0,0.6,0.1,1.2,0.1,1.8
		c0.1,1.1,0.1,2.2,0.2,3.2c0,0.7,0.2,1.3,0.8,1.8c0.3,0.2,0.8-0.1,0.8-0.4c0-0.5-0.1-1-0.1-1.4c0.1-0.1,0.2-0.2,0.2-0.4
		c0-0.6,0-1.2,0-1.7c0.1-0.1,0.2-0.2,0.2-0.3c0.2-0.8,0.3-1.6,0.3-2.4c0.1-0.7,0.2-1.4,0.3-2c0.4,0.7,1,1.4,1.6,2
		c0.4,0.4,1.2,0.1,1.2-0.5c0.1-2,0.2-4.1,0.3-6.1c0-0.5,0.1-1.1,0.1-1.6c0.3-1,0.6-2,1-3c0.5,0.7,1,1.5,1.6,2.2
		c-0.1,0.4,0.2,0.7,0.6,0.7c0.1,0.1,0.2,0.2,0.3,0.3c0.4,0.4,1,0.1,1.1-0.3c0.6-1.5,1.2-3.1,1.5-4.8
		C511,909.8,511.2,908.4,511.1,907.1z"/>
	<path class="st15" d="M640.1,875.6c-0.1-0.4-0.4-0.5-0.7-0.5c0-0.1-0.1-0.1-0.1-0.2c-0.4-1.3-1.1-2.5-2.1-3.3
		c-0.6-0.5-1.3-0.8-2-1.2c-0.8-0.4-1.6-0.8-2.5-1c-1.7-0.3-3.4,0-5,0.5c-0.1,0-0.1,0-0.2,0.1c-1.8,0.4-3.6,1.1-4.9,2.4
		c-1.2,0.8-2.2,1.8-3,3c-0.1,0.2-0.1,0.4,0,0.6c0,0,0,0,0,0.1c-0.4,0.7-0.8,1.4-1.1,2.2c-0.1,0.2-0.2,0.4-0.3,0.7
		c-0.1,0.5,0.2,0.7,0.6,0.7c0.1,1,0.1,2.1,0.2,3.1c0,0.7,1,0.8,1.2,0.2c0.1-0.2,0.1-0.3,0.2-0.5c0.8,1.9,0.5,4.1,0.2,6.1
		c-0.1,0.7,1,1.1,1.1,0.3c0.1-0.4,0.1-0.8,0.2-1.3c0.3,0.1,0.6-0.1,0.8-0.4c0.1-0.5,0.3-0.9,0.6-1.3c0,0.7,0.2,1.3,0.8,1.7
		c0.4,0.4,1,0.1,1.1-0.5c0-0.2,0.1-0.3,0.1-0.5c0.1,0,0.2,0,0.2-0.1c0.3,0,0.6-0.1,0.7-0.4c0.1-0.2,0.1-0.4,0.2-0.6
		c0.9,5.3,1.6,10.6,0.9,15.9c-0.1,0.7,1.1,0.9,1.3,0.2c0.7-2.9,1.7-5.6,2.9-8.3c0.1,0.5,0.1,1,0.1,1.5c0,0.8,1.3,0.8,1.3,0
		c0.2-3.2,0.8-6.4,1.8-9.5c0.1,0.1,0.2,0.2,0.2,0.3c0.2,0.3,0.5,0.6,0.9,0.8c0,0,0.1,0,0.1,0c0,0,0,0.1,0,0.1
		c-0.1,0.3,0.1,0.6,0.3,0.7c0.2,0.4,0.6,0.7,1.1,0.5c0.1,0,0.2-0.1,0.2-0.1c0.3,0.2,0.7,0.2,0.9-0.2c0.9-1.7,1.6-3.5,2-5.5
		c0.1-0.2,0.1-0.3,0.2-0.5C641.1,879.5,640.7,877.5,640.1,875.6z"/>
	<path class="st16" d="M514.2,264.4c-3.1-11.4-11.6-21.4-22-26.8c-5.8-3-11.8-4.6-18.1-5.2c-1.5-0.8-3.1-1.5-4.8-2
		c-3-0.9-6.4-1.3-9.6-1c-0.2-0.1-0.3-0.2-0.5-0.3c-9-5.1-20,1.7-25.7,8.5c-4.6,5.6-7.8,12.3-9.2,19.3c-2.9,4.5-4.5,10.1-5.4,15.5
		c-0.9,3.7-1.3,7.5-0.8,11.3c0.1,9.8,2.9,19.6,9,27.4c2.7,3.5,7.3,8.2,12.1,7.9c0.1,0,0.1,0,0.2,0c3.5,3.6,7.7,5.4,12.2,1.5
		c0.1-0.1,0.1-0.1,0.2-0.2c1.6,0.9,3.3,1.5,5.4,1.5c2,0,3.8-1.2,4.6-2.9c1.4,1.3,3.4,1.9,5.2,1.2c2.9,1.3,5.6,0.6,8-1
		c1.5,1.7,3.5,2.6,6,2c0.5,0.4,1.1,0.7,1.8,0.9c11.7,3.3,22.1-12.4,26.1-21.3C513.9,289.6,517.5,276.5,514.2,264.4z M455.9,254.7
		c0.7-0.5,1.5-0.9,2.3-1.3c-0.5,0.4-1,0.9-1.4,1.4C456.5,254.8,456.2,254.7,455.9,254.7z"/>
	<path class="st17" d="M479.2,237.5c-4.2-2.2-8.9-2.9-13.4-3.6c-4.8-0.7-9.5-0.3-14.1,1.4c-0.2,0.1-0.3,0.2-0.3,0.4
		c-0.1,0.1-0.2,0.1-0.2,0.3c-0.2,0.2-0.2,0.5-0.1,0.8c0,1.9,0.6,3.8,1.2,5.7c0.6,2.1,1.3,4.2,2,6.3c0.3,0.8,0.5,1.6,0.8,2.4
		c0.4,1.3,0.7,2.6,1.2,3.9c0.2,0.6,0.4,1.1,0.6,1.7c0.5,1.5,1.1,3,1.5,4.6c0.1,0.3,0.4,0.5,0.8,0.4c0.3-0.1,0.6-0.1,0.9-0.2
		c0.1,0,0.2,0,0.3,0c0.4-0.1,0.9-0.2,1.3-0.3c3.2-0.5,6.5-0.2,9.7,0.8c0.2,0.1,0.5,0,0.6-0.2c0.1,0,0.3-0.1,0.4-0.2
		c0.3,0.1,0.6,0,0.7-0.4c0.8-3.9,1.7-7.7,2.7-11.6c0.7-2.7,1.4-5.3,2.3-7.9c0.4-1,0.8-2.1,1.2-3.1
		C479.5,238.5,479.7,237.8,479.2,237.5z"/>
	<path class="st17" d="M507.9,288c-6.4-2.2-12.7-4.6-18.9-7.1c-2.6-1.1-5.2-2.3-7.9-3.4c-0.4-0.2-0.8,0.1-1,0.4
		c-0.1,0.1-0.2,0.1-0.3,0.3c-0.5,1-0.9,2.1-1.4,3.1c-0.4,0.8-0.7,1.5-1.1,2.2c-0.1,0.2-0.2,0.3-0.3,0.5c-1.3,1.8-2.9,3.3-4.8,4.5
		c-0.2,0.1-0.3,0.3-0.3,0.5c-0.3,0.4-0.3,0.9-0.2,1.3c0.2,0.4,0.4,0.8,0.7,1.1c0,0,0.1,0.1,0.1,0.1c2.5,3.5,5.2,6.9,7.8,10.2
		c1.4,1.7,2.8,3.4,4.2,5.1c0.7,0.8,1.4,1.7,2.1,2.5c0.6,0.8,1.2,1.6,2,2.2c1.7,1.3,3.4,0.1,4.9-0.8c1.5-0.9,2.8-2,4.1-3.1
		c2.6-2.3,4.7-5,6.4-8.1c1.1-2,2-4.2,2.6-6.4c0.5-1.2,1-2.5,1.5-3.7c0.1-0.1,0-0.3,0-0.4C508.4,288.6,508.3,288.2,507.9,288z"/>
	<path class="st17" d="M472,265.2c-0.3-0.2-0.7-0.4-1-0.5c-2.9-1.7-6.5-2.2-10-0.9c-1.6,0-3.2,0.7-4.5,1.8c-1.8,1.5-3.2,3.5-4.1,5.7
		c-0.2,0.2-0.3,0.4-0.4,0.6c-0.1,0.3-0.1,0.6-0.1,0.9c-0.6,2.4-0.7,4.9-0.1,7.4c1.5,6,7.5,11.2,13.9,9.9
		C476.3,288.1,482.8,271.4,472,265.2z"/>
	<path class="st17" d="M458,291.9c-3.8-2.4-6.7-6-8.4-10.1c0-0.2-0.1-0.3-0.1-0.5c0-0.3-0.2-0.4-0.3-0.5c0-0.1-0.1-0.2-0.1-0.4
		c-0.2-0.6-1-0.6-1.3-0.2c-0.1-0.1-0.3-0.1-0.5-0.1c-8.5,2.3-16.8,5.2-24.9,8.8c-0.2,0.1-0.4,0.4-0.3,0.6c0,2.1,0.7,4,1.6,5.8
		c0,0,0,0,0,0c1,2,2.3,4,3.5,5.8c2.3,3.5,4.8,7,8.2,9.5c1.8,1.3,3.9,2.4,6.1,2.8c0.2,0,0.3,0,0.5-0.1c0.2,0,0.4,0,0.5-0.2
		c5.6-6.2,10.7-12.8,15.4-19.7c0.1-0.1,0.2-0.2,0.2-0.3c0.1-0.1,0.2-0.3,0.3-0.4C458.5,292.6,458.3,292.1,458,291.9z"/>
	<path class="st18" d="M335.3,161.4c-0.4,0-0.4,0.6,0,0.6C335.7,162,335.7,161.4,335.3,161.4z"/>
	<path class="st18" d="M340.9,306.6c0-0.5-0.2-1-0.4-1.3c0-0.1,0-0.3,0-0.4c0.1-0.2,0.1-0.5,0.1-0.7c0,0,0-0.1,0-0.1
		c0.3-4.1-0.1-9-2.8-12.4c-0.6-1.5-1.5-2.9-2.7-4.1c-1.5-1.6-3.4-2.8-5.3-3.9c-0.3-1.3-1.7-2.3-3-1.6c-0.2-0.1-0.5-0.2-0.7-0.4
		c-0.1-1.1-1.1-2-2.1-1.9c-0.1,0-0.1-0.1-0.2-0.1c0.1-1.2-0.7-2.4-2.2-2.5c-5.3-0.2-10.5,1.9-14.5,5.4c-0.1,0.1-0.2,0.2-0.2,0.2
		c-0.1,0-0.2,0.1-0.3,0.1c-0.3,0.3-0.5,0.6-0.8,0.9c-1.3,1.4-2.5,3-3.4,4.7c-0.9,1.7-1.7,3.7-1.5,5.6c-0.7,2-1.2,4-1.5,6.1
		c0,0.3,0.1,0.4,0.3,0.5c0,1.2,0.2,2.4,0.5,3.6c0.1,0.5,0.4,0.8,0.8,1c-0.1,0.6-0.1,1.1-0.1,1.6c0,3.8,1.4,7.4,3,10.9
		c0.3,0.7,0.8,1,1.4,1c0.4,1.2,0.9,2.3,1.5,3.3c1.3,2.2,3,4.1,5.1,5.5c1.3,1.6,2.9,2.9,4.7,3.9c0.9,0.5,1.8,0.3,2.5-0.1
		c0.3,0.1,0.6,0.1,1,0.1c0.4,0.1,0.8,0.2,1.3,0.2c0.2,0.3,0.5,0.6,0.8,0.9c2.3,1.8,5.1,0.1,6.9-1.6c1.2-1.1,2.2-2.3,3.1-3.6
		c3.5,0.5,5.2-3.3,6.4-6.1c1.3-3,2-6.2,2.2-9.5c0-0.3-0.1-0.6-0.2-0.9C340.8,309.4,340.9,308,340.9,306.6z M312.7,319.9
		c-0.4-1.8-1.1-3.6-2.2-5.2c-0.4-0.6-0.8-1.2-1.3-1.6c-0.3-1.7-1.2-3-1.8-4.7c-0.7-2,0.4-4,1.3-5.7c1.5-2.8,3.3-5.5,5.7-7.5
		c0.4,0.5,1.1,0.8,1.7,0.8c0.1,0.1,0.3,0.1,0.4,0.2c0.2,0,0.4,0.1,0.6,0.1c0.2,0.5,0.4,0.9,0.8,1.3c0.7,0.7,1.7,0.7,2.5,0.3
		c0.1,0.4,0.3,0.7,0.6,1.1c0.3,0.4,0.7,0.6,1.1,0.6c-0.2,1,0.1,1.9,0.7,2.5c-0.2,1.1,0.2,2,0.9,2.4c0,0.8,0.4,1.5,1,1.9
		c-0.2,0.5-0.4,1.1-0.6,1.6c-0.4,1.1,0.1,2,0.8,2.5c-0.3,1.4-0.4,2.9-0.6,4.4c-0.4,0.6-0.7,1.1-1.1,1.5c-1.6,2.1-3.7,3.9-5.9,5.4
		c-0.6,0.4-1,1-1.2,1.7c-0.5-0.2-1.1-0.2-1.7,0C314.4,322.2,313.7,321.1,312.7,319.9C312.8,320,312.7,320,312.7,319.9z"/>
</g>
<g id="Layer_1">
	<path d="M405,395c3.6-6.6,7.4-13.5,8.6-21c1-6.2,0-13.6-4.8-18.1c-4.5-4.2-10.7-4.5-16.6-4.4c-16.1,0.4-33.1,2.3-46.1,12.7
		c-2.3,1.8-2.7,5.4-2.3,8.1c0.1,0.6,0.5,2.1,1.1,3.2c-0.3,12,8.8,22.5,16.9,31c4.7,4.9,10,10.1,16.2,13.1c1.6,0.8,3.8,1.7,5.8,2
		c-2.3,16.1-6.4,31.9-12.3,47.1c-0.8,2-1.1,4.5-0.2,6.5c0.5,1.2,1.9,3,3.2,1.3c8.8-12.1,13.6-26,14.7-40.3
		c4.8,12.6,11.5,24.7,20.7,33.6c3,2.9,3.3-5.4,2.1-7.2c-5.5-8.1-11.2-15.7-15.4-24.5c-2.9-6-5.3-12.3-7.1-18.7
		c1.2-1.3,2.1-3,3.1-4.3C397.2,408.6,401.2,401.8,405,395z M383.7,411c-2.8-1-5.8-4.1-8.1-6c-5.2-4.4-9.8-9.4-14.3-14.5
		c-3.8-4.3-9.6-10-9.8-16.2c10.1-6.3,22.3-8,34.2-8.6c5.7-0.3,12.1-1,17.7,0.9c3.2,1.1,5,2.7,4.3,6.1c-0.7,3.6-3,7.3-4.5,10.6
		c-3.4,6.9-7.1,13.6-11.2,20.1C390.1,406.4,388.1,412.5,383.7,411z"/>
	<path d="M535.3,230.3c4.4-4.9,12.4-12,5.8-18.6c-3.2-3.3-7.2-6.3-10.9-9.1c-3.1-2.4-3.9-1.6-6.3,1.1c-5.8,6.6-11.6,13.3-17.4,20
		c-0.3-0.1-0.7,0-1.1,0.4c-1.7,1.8-3.4,3.7-5.1,5.5c-0.2,0.2-0.4,0.5-0.7,0.7c-2.8-2.1-5.8-3.9-9.1-5.3c-5.9-2.5-12.2-4-18.5-5.3
		c-6.2-1.3-12.6-3-18.5-0.9c-7-0.5-13,2.1-18.2,6.5c-2.2-4.1-5-7.8-7.6-11.6c-2.6-3.7-5.1-9-8.5-12c-5.4-4.8-12.2,7.8-14.5,11.6
		c-1.6,2.6,0.6,10.9,3.2,7c-0.1,0.1-0.1,0.3-0.2,0.4c-0.7,2.1-0.4,4.5,0.8,6.3c3.7,5.5,8,12.4,13.3,17c-4.4,9.1-7.2,19-8.6,26.4
		c-2,11.3-1.2,24.2,3.2,35.3c-6.9,5.9-13,13.3-19.3,19.7c-0.9,0.9-1.1,3.2-0.7,5.1c0,1.7,0.3,3.5,1.3,4.2c2.8,2.2,6.3,6,9.6,7.5
		c1.9,0.9,2.6,0.4,4.2-0.8c2.9-2.2,5.6-5,8.3-7.5c3.2-2.9,6.8-5.7,9.5-9.1c0.2-0.2,0.3-0.6,0.4-1.1c3.2,2.4,6.9,4.4,11.1,5.6
		c10.9,3.3,23.7,3.8,35,2.3c5.1-0.7,10.1-1.9,14.8-3.9c-0.5,2.1-0.1,4.5,1,6.2c5.5,8.3,11.4,16.5,17.7,24.2c2,2.5,4.2,5.6,7.8,4.2
		c2-0.8,4-2.7,5.8-3.9c1.9-1.3,4.2-2.5,5.8-4.2c6.4-6.7-2.6-14.4-6.8-19c-5.4-5.9-10.7-12.5-16.5-18.1c7.1-8.4,10.1-20.3,11.7-30.9
		c1.6-11,1.5-22.7-1.9-33.4C522.6,246.3,528.7,237.7,535.3,230.3z M418.6,229.5c-2.8-3.3-5.4-6.8-7.8-10.3c-0.8-1.2-1.8-0.6-2.4,0.3
		c1.4-2.5,3.1-5.2,5.2-7.1c0.5-1.1,1.4-1.6,2.5-1.5c1.3-0.6,2.1-0.1,2.4,1.4c1.1,1,1.9,2.8,2.8,4c3.1,4.4,6,9.4,9.5,13.5
		c-1.9,2.3-3.7,4.8-5.4,7.5C423.4,234.6,420.9,232.1,418.6,229.5z M414.1,329.5c-1.1,1.1-2.3,2.1-3.4,3.1c-1.5,1.4-1.6,1.4-3.3,0.3
		c-1.6-1.1-3.2-2.3-4.8-3.6c5.7-5.6,11.8-11.2,16.9-17.4c1.6,2.7,3.4,5.2,5.5,7.5C421.1,322.5,417.7,326.2,414.1,329.5z
		 M523.8,348.1c-0.8,0.5-1.6,0.9-2.1,1.3c-1.4,1-3.2,2.9-4.7,3.4c-0.7,0.9-1.5,0.9-2.3,0c-1.1-0.4-1.9-1-2.4-2.1
		c-1.5-1.5-2.7-3.4-3.9-5c-4.9-6.4-9.5-12.9-13.9-19.6c2-1.1,3.9-2.3,5.7-3.7C507.1,331.7,516.3,339.3,523.8,348.1z M504.2,302.6
		c-9.6,15.8-31.5,16.9-47.9,15.6c-10.4-0.8-20.6-2.9-28.1-10.8c-6.2-6.7-9.5-15.5-9.6-24.6c-0.1-12.4,4.7-25.1,10.7-35.8
		c4.4-7.9,11.4-15,20.1-16.6c0.5,0.9,1.2,1.4,2.2,1.3c9.8-1.2,21,1.6,30.3,4.5c9.1,2.7,17.9,7.2,23.3,15.3
		C514.6,265.4,512.8,288.5,504.2,302.6z M512.3,245.7c-2-4-4.5-7.6-7.5-10.7c5.6-6.3,11.1-12.6,16.7-19c1.3-1.4,2.8-4.1,4.5-5.1
		c0.4-0.5,0.9-1,1.3-1.4c0.9,0.8,1.8,1.6,2.7,2.4c2,1.8,5.5,3.9,7.8,6.2c-1.5,1.8-3.5,3.5-4.7,4.8c-2.4,2.7-4.8,5.3-7.3,7.9
		C521.4,235.6,516.3,240.4,512.3,245.7z"/>
	<path d="M326.6,307.8c0.3-5.3-1.5-10.7-6-12.5c-2-1.8-4.6-2.9-7.2-1.9c-4.8,1.7-6.5,7.8-6.7,12.4c-0.1,2.1,0.1,4.4,0.8,6.4
		c0.2,2.3,0.8,4.6,2,6.7c2.1,4,6.4,6.6,10.9,4.6C326,320.8,327.5,314.1,326.6,307.8z"/>
	<path d="M228.5,465.3c-1.6-1-3.6-1.5-5.5-1.1c-0.1,0-0.2,0-0.3,0c-0.3,0.1-0.6,0.3-0.9,0.4c-1.3,0.6-2.3,1.6-2.9,2.9
		c-0.1,0.3-0.2,0.6-0.1,0.9c-0.5,1.1-0.8,2.3-0.9,3.5c-0.1,1.9,0.8,3.5,2.3,4.6c1.3,1,3,1.6,4.6,1.7c3.2,0.3,6-1.6,7-4.6
		C233,470.4,231.5,467,228.5,465.3z M230.9,471.7c-0.3,2.3-2.6,3.8-4.8,4c-1.3,0.1-2.6-0.1-3.8-0.7c-1.1-0.5-2.4-1.2-2.9-2.3
		c-0.3-0.6,0-1.3,0.1-1.9c0.2-0.6,0.4-1.2,0.8-1.8c0.3-0.5,0.6-0.9,1-1.3c1.5-0.9,3.4-1.2,5.1-0.6
		C228.2,467.7,231.2,469.4,230.9,471.7z"/>
	<path d="M709.7,756.2c0-0.7,0-1.3,0-2c-0.9-9.3-11.9-13.8-19.5-8.5c-5.5,3.9-7.5,11.3-5.6,17.6c0.2,1.9,0.8,3.8,1.9,5.5
		c2.6,4.2,6.2,4.8,9.7,3.7c2.8-0.1,5.7-1.3,7.8-3.7c0.3-0.2,0.5-0.4,0.8-0.6C708.3,765.4,710.1,760.6,709.7,756.2z"/>
	<path d="M727.4,694.3c-1.8-5.5-11.5-5-16.1-4.6c-7.1,0.6-14.2,2.6-20.9,4.8c-12.2,4-25.2,10.5-31.8,22.1c-3.2,5.6,0.2,9.9,4.2,13.8
		c5.7,5.7,12.3,10.6,19.2,14.9c0.9,0.6,1.6-0.4,2-1.1c0.3-0.5,0.5-1.1,0.7-1.6c6.7-4.1,14.3-7.2,21.5-2.1c0.8,0.6,1.7-0.4,2-1.1
		c3.6-8.9,8.4-17.4,12.6-26.1C723.3,708.2,729.4,700.5,727.4,694.3z"/>
	<path d="M451.7,593.9c-8.6,1.9-16.4,5.6-23.5,10.7c-1.5,1.1-0.8,6.2,0.7,5.2c7-5.1,14.8-8.6,23.1-11
		C453.4,598.4,453.1,593.6,451.7,593.9z"/>
	<path d="M470.9,613c-6.9,3.8-13.1,9-18.8,14.4c-1.3,1.2-0.5,6.5,1.4,4.8c5.7-5.3,11.9-9.8,18.1-14.5
		C472.7,616.8,472.6,612.1,470.9,613z"/>
	<path d="M356.1,913.3c0.3,2,0.6,4.1,0.8,6.1c0.2,1.2,0.2,2.8,1.1,3.7c0.9,0.9,1.6,0.7,2.1,0c1.3,2.2,2.6,4.5,3.8,6.7
		c0.3,0.6,0.9-0.1,1-0.5c0.7-2.4,1.3-4.7,2-7.1c0.6,1.2,1.3,2.4,1.9,3.6c0.7,1.3,1.2-0.7,1.2-1.3c0.1-0.5,0.2-0.9,0.4-1.2
		c2.8,13.8,5,27.7,6.8,41.6c0.2,1.7,1.5,1.2,1.5-0.3c0.1-8.6,0.2-17.2,0.2-25.8c0.1-7.2-0.5-15,2.7-21.5c0.6,3.3,1.6,6.5,3.1,9.5
		c0.7,1.4,1.4-0.8,1.3-1.4c-0.3-5.9,0.5-11.6,2.4-17.1c0.5,0.7,1.2,1.1,2.1,1.3c0.5,0.1,0.8-0.8,0.8-1.1c1.1-8.9,2.2-18.7-1.3-27.2
		c-2.8-6.9-8.9-12.8-16.5-12.8c-0.1,0-0.3,0.1-0.4,0.1c-3.8-0.4-7.8,1.2-10.9,3.7c-5.1,4.1-7.4,10.3-8.1,16.8
		C353.4,897.3,355,905.4,356.1,913.3z M356.5,885.7c1.2-4.7,4.5-9.3,8.7-11.7c3.9-2.7,9.8-3.2,14-1.1c0.2,0.1,0.3,0.2,0.5,0.3
		c4.1,2,7.4,5.8,9.2,10.2c3.1,7.2,2.2,15.4,1.4,23.1c-0.4-0.2-0.8-0.5-1-1c-0.3-0.9-0.9-1-1.3-0.1c-2,5.2-3.2,10.7-3.3,16.3
		c-0.9-2.3-1.5-4.6-1.8-7c-0.1-0.7-0.6-1.7-1.2-0.7c-4.2,6.6-4,14.8-4.1,22.3c-0.1,6.1-0.1,12.1-0.2,18.2
		c-1.7-11.2-3.6-22.4-5.8-33.6c-0.1-0.5-0.4-1-0.9-0.6c-0.7,0.6-1.2,1.3-1.5,2.1c-0.6-1.1-1.1-2.2-1.7-3.3c-0.3-0.7-0.9-0.5-1.1,0.2
		c-0.7,2.3-1.3,4.7-2,7c-1.2-2.2-2.5-4.3-3.7-6.5c-0.4-0.7-0.7,0-0.9,0.8c-0.7,0.9-1.2-1.8-1.2-1.8c-0.1-0.6-0.2-1.2-0.2-1.8
		c-0.2-1.6-0.4-3.2-0.7-4.8c-0.4-3-0.8-5.9-1.2-8.9C355.6,897.4,355,891.4,356.5,885.7z"/>
	<path d="M361.2,892c0.5,2,1.7,5.5,3.4,6.8c1.4,1.1,2.3-0.9,2.9-2.5c1.3,3.2,0.5,7.4,1.9,10.7c0.3,0.7,0.9,0.4,1.1-0.2
		c0.2-0.6,0.4-1.2,0.6-1.8c0.6,3.2,1.5,6.3,3,9.2c0.5,0.9,1.1-0.8,1.1-1.2c0.3-5.4,0.7-10.8,1-16.2c0.3,0.5,0.6,1.1,1,1.6
		c0.5,0.6,0.9-0.3,1-0.7c0.1-0.4,0.2-0.8,0.2-1.2c0.8,1.8,1.5,3.5,2.2,5.4c0.4,1,1.1-0.3,1.1-0.8c0-2.8-0.1-5.6-0.3-8.3
		c1.8,0,2.5-2.2,2.1-3.9c0.3-0.3,0.6-0.9,0.6-1.5c-0.1-4.9-2.8-9.6-7.2-11.5c-4.4-2-9.3-0.6-12.6,3C361,882.2,359.9,887.2,361.2,892
		z M367.8,878.9c6.2-3.3,14.1,1.2,14.8,8.3c0,0-0.1-0.1-0.1-0.1c-0.6-0.5-1.2,1.9-0.5,2.5c0.2,0.8-0.1,1-1.1,0.5
		c-0.8-0.3-0.9,1.3-0.8,1.8c0.3,1.7,0.5,3.5,0.5,5.3c-0.5-1.4-1.2-2.8-1.9-4.1c-0.4-0.7-0.9,0.4-1,0.7c-0.1,0.5-0.2,1-0.3,1.5
		c-0.5-0.8-0.9-1.6-1.2-2.4c-0.5-1.2-1.2,0.3-1.2,0.9c-0.3,5.3-0.7,10.6-1,15.9c-1-2.7-1.5-5.6-2.1-8.4c-0.2-0.9-1-1-1.2-0.1
		c-0.2,0.8-0.5,1.6-0.7,2.3c-0.8-3.7-0.1-7.5-2.1-10.9c-0.3-0.5-0.8-0.2-1,0.2c-0.1,0.3-1.2,3-1.4,3c-0.5,0-1.1-1.5-1.4-2
		c-1-1.7-1.8-3.7-1.9-5.7C362,884.1,364.6,880.6,367.8,878.9z"/>
	<path d="M647.7,904.9c-0.3,2.1-0.5,4.1-0.8,6.2c-0.2,1.2-0.2,2.8-1.1,3.7c-1,0.9-1.8,0.7-2.3,0.1c-1.4,2.3-2.7,4.6-4.1,6.8
		c-0.4,0.6-1-0.1-1.1-0.4c-0.8-2.3-1.5-4.7-2.3-7c-0.7,1.2-1.3,2.4-2,3.6c-0.7,1.3-1.4-0.6-1.3-1.2c-0.1-0.5-0.2-0.8-0.5-1.2
		c-2.8,13.9-5,27.8-6.7,41.8c-0.2,1.7-1.6,1.2-1.6-0.3c-0.2-8.6-0.5-17.2-0.7-25.8c-0.2-7.2,0.3-15-3.3-21.4
		c-0.6,3.3-1.6,6.5-3.2,9.6c-0.7,1.5-1.5-0.7-1.5-1.4c0.2-5.9-0.7-11.6-2.9-17.1c-0.5,0.7-1.2,1.1-2.3,1.4c-0.5,0.1-0.9-0.8-0.9-1.1
		c-1.4-8.9-2.7-18.6,1-27.2c2.9-7,9.5-13.1,17.7-13.3c0.1,0,0.3,0,0.4,0.1c4.2-0.5,8.5,1,12,3.4c5.6,4,8.3,10.1,9.1,16.6
		C650.3,888.8,648.7,896.9,647.7,904.9z M646.8,877.2c-1.4-4.7-5-9.1-9.6-11.5c-4.3-2.6-10.8-2.9-15.2-0.7c-0.2,0.1-0.4,0.2-0.5,0.4
		c-4.5,2.1-8,6-9.9,10.4c-3.2,7.3-2.1,15.5-1.1,23.1c0.5-0.2,0.9-0.5,1-1c0.3-0.9,1-1.1,1.4-0.1c2.3,5.2,3.6,10.7,3.9,16.2
		c0.9-2.3,1.5-4.7,1.8-7.1c0.1-0.7,0.6-1.7,1.3-0.8c4.6,6.5,4.6,14.7,4.9,22.2c0.2,6.1,0.3,12.1,0.5,18.2
		c1.6-11.3,3.6-22.6,5.8-33.8c0.1-0.5,0.5-1,1-0.6c0.8,0.6,1.3,1.3,1.7,2.1c0.6-1.1,1.2-2.2,1.8-3.3c0.4-0.7,1-0.5,1.2,0.2
		c0.8,2.3,1.5,4.7,2.3,7c1.3-2.2,2.6-4.4,3.9-6.6c0.4-0.7,0.8,0,1,0.7c0.8,0.8,1.3-1.8,1.3-1.9c0.1-0.6,0.2-1.2,0.2-1.8
		c0.2-1.6,0.4-3.2,0.6-4.8c0.4-3,0.8-6,1.2-9C648,889,648.5,882.9,646.8,877.2z"/>
	<path d="M641.8,883.8c-0.6,2-1.8,5.5-3.7,6.8c-1.5,1.1-2.5-0.8-3.2-2.5c-1.4,3.3-0.5,7.4-2,10.7c-0.3,0.7-1,0.4-1.2-0.2
		c-0.2-0.6-0.4-1.2-0.6-1.7c-0.6,3.2-1.6,6.3-3.3,9.2c-0.5,0.9-1.2-0.8-1.2-1.1c-0.4-5.4-0.8-10.8-1.2-16.2
		c-0.3,0.5-0.7,1.1-1.1,1.6c-0.5,0.6-1-0.3-1.1-0.7c-0.1-0.4-0.2-0.8-0.3-1.2c-0.8,1.8-1.6,3.6-2.3,5.4c-0.4,1.1-1.2-0.3-1.2-0.8
		c0-2.8,0-5.6,0.3-8.3c-1.9,0-2.8-2.1-2.3-3.9c-0.3-0.3-0.7-0.9-0.6-1.5c0.1-4.9,3.1-9.6,7.8-11.7c4.8-2.1,10.1-0.8,13.7,2.7
		C642,874,643.2,879,641.8,883.8z M634.5,870.8c-6.7-3.2-15.3,1.5-16.1,8.5c0,0,0.1-0.1,0.1-0.1c0.7-0.6,1.3,1.9,0.6,2.4
		c-0.3,0.8,0.1,1,1.2,0.5c0.9-0.3,1,1.3,0.9,1.8c-0.3,1.7-0.5,3.5-0.5,5.3c0.6-1.4,1.2-2.8,2-4.1c0.4-0.7,1,0.4,1,0.7
		c0.1,0.5,0.2,1,0.3,1.5c0.5-0.8,0.9-1.6,1.3-2.4c0.5-1.2,1.3,0.3,1.3,0.9c0.4,5.3,0.8,10.6,1.2,15.9c1-2.7,1.6-5.6,2.2-8.5
		c0.2-0.9,1.1-1,1.4-0.1c0.3,0.8,0.5,1.6,0.8,2.3c0.9-3.7,0.1-7.5,2.2-11c0.3-0.5,0.9-0.2,1.1,0.2c0.1,0.3,1.3,3,1.5,2.9
		c0.5-0.1,1.2-1.6,1.5-2c1-1.7,1.9-3.7,2.1-5.7C640.9,876,638,872.5,634.5,870.8z"/>
	<path d="M520.5,930.2c-0.1,2.1-0.3,4.2-0.4,6.3c-0.1,1.2,0,2.8-0.9,3.8c-0.9,1-1.7,0.8-2.3,0.2c-1.2,2.4-2.5,4.8-3.7,7.2
		c-0.3,0.6-1,0-1.2-0.4c-0.9-2.3-1.8-4.6-2.7-6.9c-0.6,1.3-1.2,2.5-1.8,3.8c-0.6,1.4-1.4-0.5-1.4-1.2c-0.1-0.5-0.3-0.8-0.5-1.1
		c-2,14.2-3.4,28.4-4.2,42.6c-0.1,1.7-1.5,1.3-1.7-0.2c-0.8-8.6-1.5-17.3-2.3-25.9c-0.6-7.2-0.6-15.1-4.8-21.4
		c-0.4,3.4-1.3,6.7-2.7,9.9c-0.7,1.5-1.6-0.6-1.6-1.3c-0.1-5.9-1.5-11.6-4-17c-0.5,0.7-1.2,1.2-2.2,1.5c-0.5,0.1-0.9-0.7-1-1
		c-1.9-8.9-3.9-18.6-0.7-27.5c2.6-7.2,8.8-13.8,17.2-14.5c0.2,0,0.3,0,0.4,0.1c4.2-0.8,8.7,0.4,12.4,2.7c6,3.6,9,9.6,10.3,16.1
		C522.2,913.8,521.1,922.1,520.5,930.2z M517.9,902.4c-1.7-4.7-5.7-8.9-10.5-10.9c-4.6-2.4-11.1-2.2-15.5,0.3
		c-0.2,0.1-0.4,0.2-0.5,0.4c-4.4,2.4-7.7,6.6-9.4,11.2c-2.8,7.6-1.2,15.7,0.3,23.4c0.5-0.2,0.9-0.6,1-1.1c0.2-1,0.9-1.1,1.4-0.2
		c2.7,5.1,4.4,10.5,5,16.1c0.8-2.4,1.3-4.8,1.4-7.3c0-0.7,0.5-1.7,1.2-0.8c5.1,6.2,5.6,14.5,6.3,22.1c0.6,6.1,1.1,12.2,1.6,18.3
		c0.9-11.5,2.2-23,3.8-34.4c0.1-0.5,0.4-1,1-0.7c0.9,0.5,1.4,1.2,1.8,2c0.5-1.2,1.1-2.3,1.6-3.5c0.3-0.7,1-0.6,1.2,0.1
		c0.9,2.3,1.9,4.6,2.8,6.9c1.2-2.3,2.4-4.6,3.6-6.9c0.4-0.8,0.8-0.1,1.1,0.7c0.8,0.8,1.2-1.9,1.2-2c0-0.6,0.1-1.2,0.1-1.8
		c0.1-1.6,0.2-3.3,0.3-4.9c0.2-3,0.4-6.1,0.6-9.1C519.8,914.2,520,908,517.9,902.4z"/>
	<path d="M512.7,911.8c-0.5,2.1-1.5,5.7-3.3,7.1c-1.4,1.2-2.6-0.7-3.4-2.3c-1.3,3.4-0.1,7.5-1.4,10.9c-0.3,0.8-1,0.5-1.3-0.1
		c-0.2-0.6-0.5-1.1-0.8-1.7c-0.4,3.3-1.2,6.5-2.8,9.5c-0.5,1-1.3-0.7-1.3-1.1c-0.7-5.4-1.5-10.8-2.2-16.2c-0.3,0.6-0.6,1.1-1,1.7
		c-0.5,0.7-1.1-0.2-1.2-0.6c-0.1-0.4-0.2-0.8-0.3-1.2c-0.7,1.8-1.4,3.7-2.1,5.6c-0.3,1.1-1.2-0.2-1.3-0.7c-0.2-2.8-0.3-5.6-0.2-8.4
		c-2,0.1-3-2-2.5-3.8c-0.4-0.3-0.7-0.8-0.7-1.5c-0.2-4.9,2.5-9.9,7.2-12.3c4.8-2.4,10.3-1.4,14.1,1.9
		C512.3,901.9,513.8,906.9,512.7,911.8z M504.5,899.2c-7-2.7-15.5,2.5-15.8,9.6c0,0,0.1-0.1,0.1-0.1c0.7-0.6,1.5,1.8,0.7,2.4
		c-0.2,0.8,0.2,1,1.3,0.4c0.9-0.4,1.1,1.2,1,1.7c-0.2,1.8-0.3,3.6-0.2,5.3c0.5-1.4,1.1-2.9,1.8-4.3c0.4-0.7,1,0.3,1.1,0.6
		c0.1,0.5,0.3,1,0.4,1.4c0.5-0.8,0.8-1.7,1.2-2.6c0.4-1.2,1.3,0.2,1.4,0.8c0.7,5.3,1.5,10.6,2.2,15.9c0.9-2.8,1.2-5.7,1.7-8.7
		c0.1-0.9,1-1.1,1.4-0.2c0.3,0.8,0.6,1.5,1,2.3c0.6-3.8-0.4-7.5,1.6-11.2c0.3-0.5,0.9-0.3,1.1,0.1c0.2,0.3,1.5,2.9,1.7,2.9
		c0.6-0.1,1.2-1.7,1.4-2.1c0.9-1.8,1.7-3.8,1.7-5.9C511.3,904,508.1,900.6,504.5,899.2z"/>
	<path d="M576.7,721.2c-6.4-4.6-16.5-4.7-18.7,4.3c0,0.2-0.1,0.4-0.1,0.6c-1.1,3.4-0.7,7.3,1.2,10.5c4.1,6.7,13.3,7.1,18.6,1.5
		C582.4,733.1,582.4,725.3,576.7,721.2z M575.6,734.3c-3,2.6-7.2,3.5-10.9,1.9c-5.3-2.4-6.4-8.6-1.3-11.9c0,0,0,0,0.1,0
		c2.4-1,5.4-1,7.7-0.2c1.7,0.5,3.3,1.4,4.7,2.4c0.7,0.5,2.2,1.6,2.4,2.4C578.7,730.7,577,733.2,575.6,734.3z"/>
	<path d="M579.6,766.7c-1.7-2.9-4.6-5.2-8.1-4.7c-2.2,0.3-4,1.3-5.6,2.6c-0.1,0-0.1,0-0.2,0.1c-1.6,1-2.9,2.5-3.8,4.2
		c0,0-0.1,0.1-0.1,0.1c-0.1,0.2-0.2,0.4-0.3,0.7c-1.5,3.4-1.4,7.5,0.1,10.8c2.7,5.7,10.5,7.4,15.4,3.4
		C581.9,780,582.5,771.9,579.6,766.7z M575.7,779.2c-2.8,2.1-7.2,2-9.9-0.1c-2.8-2-2.9-5.2-1-7.4c0.4-0.4,0.9-0.8,1.4-1.2
		c0.1-0.1,0.2-0.1,0.3-0.2c0.1-0.1,0.2-0.2,0.3-0.3c2.4-1.9,5.3-3.1,8.2-1.6C579.3,770.6,579.5,776.4,575.7,779.2z"/>
	<path d="M777.1,607.6c-1.8-1.8-3.5-3.7-5.1-5.8c-11.6-7-26.3-10.2-39.2-10.5c-0.6,0-1.1,0.3-1.5,0.8c-0.2-6-0.6-12.1-1.1-18.1
		c0-0.5-0.1-1-0.1-1.5c-3.2-28-6.6-56-6.6-84.2c-1.2-18.3-2.9-36.6-4.8-54.8c-1.1-10.2-2.2-20.3-3.5-30.5c1.9-4.9-0.9-13.7-2.3-17.7
		c-3.3-24.5-7.4-48.9-12.4-73c-2.2-10.6-4.7-21.3-7.5-31.9c0.3-0.2,0.5-0.3,0.8-0.5c34.1-21.4,48.5-63.9,44-102.6
		c-2.6-22.3-11.1-43.8-23.1-62.7c-11.5-18.1-26.4-36.1-45.4-46.6c-22-12.1-49.7-11.9-73.7-6.9c-22.6,4.7-44,15.1-59.2,32.7
		c-0.7,0.8-1,2.7-0.8,4.4c-7.4-1.4-14.9-2.3-22.4-2.4c-19.8-0.4-39.3,3.7-58.3,9c-7.1,2-14.1,4.1-21,6.5c-11-1.4-21.9-2.8-32.9-4.1
		c-1.9-0.2-1.9,5.1-0.4,5.6c3.5,1.3,7,2.7,10.6,4c-9.9-0.8-19.9-1.3-29.8-1.4c-1.6,0-1.7,2.7-1.1,4.4c-3.1,0-6.3,0.1-9.4,0.2
		c-2,0-1.9,5.4,0,5.6c3.9,0.5,7.7,1.4,11.4,2.6c-12.2,1.1-24.4,2.2-36.6,3.4c-1.9,0.2-2,5.1-0.4,5.6c4.7,1.6,9.4,3.3,14.1,4.9
		c-0.6,0.7-1.2,1.3-1.8,2c-0.9,1-1.1,4.7,0.7,5c2.9,0.4,5.8,1,8.7,1.5c-13.5,12.8-24.9,27.7-33.8,44.2
		c-13.2,24.4-20.2,51.2-22.1,78.6c-11.8,7.1-15.8,22.1-13.6,35.1c1.7,10,7.5,23.9,17.5,29.2c1.4,8.8,3,17.6,4.8,26.4
		c-13.1,5.3-27.4,3.3-38.6-6c-12.7-10.5-19.9-27.3-22.3-43.3c-4.9-32.5,7.6-68,27.2-93.8c10.6-14,24.7-25.8,42.3-29.4
		c3.4-0.7,3-10.1,0-9.5c-35.8,6.9-58.1,43.7-68.8,75.7c-11.5,34.4-11.8,79.4,14.7,107.4c11.9,12.6,32.6,20.3,47.7,9.9
		c7.1,35.2,14.9,70.5,14.2,105.7c-14-3.8-28.6-6.1-42.8-9c-15.3-3.1-30.6-6.4-45.9-9.3c-1.1-3.9-3-7.5-5.9-10.2
		c-0.2-0.2-0.4-0.3-0.6-0.5c-7.4-20-14.6-39.5-18.7-60.4c1.3-2.4,1.1-5.6,0.4-8.1c-0.9-2.8-2.7-7.8-5.5-9c-3.1-1.3-8.6,0.4-12.5,1.5
		c-0.1-0.2-0.1-0.5-0.2-0.7c-2.2-4.7-4.1-9.5-5.4-14.6c2.4-0.5,5.3-1,6.7-2.7c2.1-2.5,1.1-7.7-0.2-12.2c0.1-0.1,0.2-0.2,0.4-0.3
		c2.9-3.9,5.4-8.3,6.5-13.1c0-0.2,0.1-0.5,0.1-0.7c1.6,2,3.5,3.4,5.1,2.2c1.5-1.1,2-4.3,2.6-5.9c1.3-3.7,2.7-7.5,4-11.3
		c1.4-4,5.8-11.3,4-15.7c-1.8-4.4-9.2-7.5-13.1-9.6c-0.7-0.4-1.3,0.6-1.5,1.2c-2.3,9.7-4.1,19.5-5.8,29.3c-0.2,1.1,0.2,2.2,0.7,2.8
		c0,0.5,0,1,0.2,1.2c0.4,0.7,1.1,1.8,1.9,3.1c-0.1,0.1-0.2,0.2-0.2,0.3c-1.8,3.9-3.4,7.7-5.9,11.2c-0.2,0.2-0.3,0.5-0.4,0.8
		c-0.3-0.7-0.5-1.4-0.7-1.9c-1.3-4-2.6-11.3-7.5-11.3c-3.2,0-7.2,1.7-10.6,2.8c0,0,0,0,0,0c-0.2-2.3-0.8-4.5-1.3-6.7
		c5.1-1,5-8.7,0.4-11.2c-0.4-5.5-2.9-11.4-4.4-16.6c-0.1-0.3-0.2-0.5-0.3-0.7c3.1-0.7,7.1-1.6,9-3.6c1.8-2,1.1-5,0.5-7.3
		c-1.3-4.7-3.1-9.3-4.8-13.9c-0.9-2.3-2.2-7.8-4.9-8.8c-1.8-0.7-5.1,0.6-7,0.9c-2.7,0.5-5.3,0.9-7.9,1.7c-0.8,0.2-1.1,2-0.9,3.3
		c-1,0.1-2,2-1.8,3.9c0.6,4.7,1.3,9.4,2.3,14c0.6,2.9,1.1,9.3,3.4,11.4c2.2,2,7.2-0.3,9.7-1c0.1,0,0.3-0.1,0.4-0.1
		c-0.5,1-0.7,2.4-0.4,3.3c0.8,2.6,1.5,5.1,2.3,7.7c0.5,1.5,1.4,3.3,1.9,5.1c0,0,0,0,0,0c-0.3,0-0.5,0.1-0.7,0.4
		c-0.8,0.1-1.5,0.3-2.3,1.3c-0.9,1.1-1.3,2.6-1.3,4c-0.1,2.9,1.3,5.6,4.1,6.3c-0.1,0.8,0,1.6,0.2,2.2c0.4,1.8,0.7,3.6,1.2,5.4
		c-3.8,1-7.6,2.1-11.4,3.2c-3.8,1.1-7.6,2.4-11.4,3.7c-1.4-3.7-4.3-7-7.3-9.6c1.2-1.4,1.6-3.5,1.2-5.3c-0.6-2.7-2.6-3.7-4.8-3.5
		c-2.2-4.6-4.2-9.2-5.7-14c-0.1-0.3-0.2-0.5-0.3-0.6c0.6-0.4,1.2-0.7,1.7-0.9c2.7-1.3,4.6-2.3,5.2-5.3c0.6-3.5-1.4-7-2.8-10.1
		c-2.1-4.5-4.2-9.2-6.9-13.3c-2-3.1-3.1-2.5-6.2-0.9c-4.4,2.3-9,4.6-12.9,7.7c-0.9,0.7-1.2,4.2-0.1,4.8c0,0.4,0.1,0.8,0.3,1.1
		c2.8,4.5,5.6,8.9,8.4,13.4c1.1,1.7,2.8,6.4,5.2,6.9c1.6,0.3,4-0.9,6.2-2.1c-0.2,0.7-0.3,1.6-0.1,2.1c1.3,4.2,2.9,8.4,4.9,12.3
		c-0.3,0.4-0.5,1.2-0.5,2c-1,3.5,0.6,8,4.3,7.4c-0.1,1.1-0.1,2.7,0.7,3.4c1.6,1.4,3.2,3,4.5,4.8c0.3,0.4,0.6,0.8,0.9,1.3
		c-2,0.7-4,1.6-5.2,3.2c-1.2,1.5-1.5,3.3-1.3,5.1c0.3,2.7,2.7,4.2,3.2,6.7c0.3,1.7,1.1,1.8,1.6,1.2c1.5,3.6,2.9,7.2,4.4,10.7
		c1,2.3,1.5,5.5,4.4,5.7c1.3,0.1,3.2-1.4,4.5-2.1c0,0.7,0.1,1.3,0.2,1.7c1.2,4.6,3.1,9.4,6.1,13.2c-1.3,0.4-2.5,0.8-3.8,1.2
		c-2.4,0.8-1.9,6.1-1,7.7c2.6,4.6,5.2,9.3,8.7,13.3c0.1,0.2,0.3,0.3,0.4,0.4c6.1,19.6,14,39.7,25.5,56.8c-1.8,5.5-1.8,11.5,0.8,16.8
		c0.3,1,0.7,1.6,1.1,1.9c0.5,0.8,1,1.5,1.6,2.2c1.1,1.3,2.3,2.5,3.6,3.5c2.9,3.9,7,6.5,12.6,4.9c0.2,0,0.3-0.1,0.4-0.2
		c6.6,0.4,13.3-1.7,18-6.3c0.2,0.6,0.6,1,1,1.1c14.4,4.5,29.7,7.1,44.4,10.2c15.2,3.3,30.6,5.6,45.9,8.4c0.4,0.1,0.8-0.1,1.1-0.4
		c-1.1,7-2.6,14-4.6,21c-0.3,1-0.6,2-0.9,3c-0.1,0-0.3,0.1-0.5,0.2c-1.3,5-3.3,9.7-6.6,13.9c-3.8,8.7-9,16.9-14.4,24.7
		c-0.2,0.3-0.3,0.7-0.5,1c-0.2,0.5-0.4,1.2-0.5,1.9c-9.2,15.3-17.8,31.1-24,47.8c-5.6-23.9-11-47.7-14.2-72.1
		c7.7-5.4,9.8-16.2,6.3-25.3c-2.4-6-7.2-10.4-12.8-12.3c-6.1-0.9-12.8,1-18.8,4.1c-4.3,4.8-6.4,11.5-5.4,18.4
		c1.2,8,6.3,14.7,13.2,17.3c2,13.2,5.7,26.4,8.6,39.5l6.7,30c0.1,1.1,0.2,2.1,0.3,3.2c0,0-0.1,0-0.1,0c-0.5,0.2-1.1,0.4-1.6,0.5
		c-0.2,0.1-0.3,0.3-0.5,0.4c-0.1,0.1-0.2,0.3-0.3,0.5c-0.3,0.1-0.5,0.3-0.8,0.4c-0.2,0.1-0.4,0.2-0.5,0.4c-3.9,1.7-7.8,3.8-10.7,6.8
		c-3.7,3.8-3.5,9.5-3.9,14.5c-0.5,5.7-1.2,11.5-0.8,17.2c0.2,3.3,1,6.6,1.7,9.9c-0.1,1.2-0.2,2.5-0.3,3.7
		c1.6,17.3,5.6,34.4,9.6,51.2c6.1,25.4,15.7,49.5,33.4,69.2c17.8,19.8,40.1,33.3,64.3,42.3c-0.6,4.9-1.9,10.5,2.6,13.6
		c6.6,4.6,15.3,7.4,22.8,10c7.4,2.5,15.1,4.6,22.9,5.8c2.9,0.5,5.9,1.3,8-1.3c2-2.5,2.9-6.9,3.6-9.9c0.1-0.5,0.1-1.5-0.1-2.5
		c5.4,1.1,10.9,2.1,16.3,3c0.2,0.2,0.4,0.4,0.6,0.6c0,0,0.1,0,0.1,0c0.4,0,0.9,0,1.3-0.1c0-0.1,0.1-0.1,0.1-0.2
		c0.7,0.1,1.5,0.3,2.2,0.4c1.1,0.2,2.2,0.3,3.2,0.5c3,0.6,6,1.2,9,1.5c6.2,1,12.4,1.8,18.7,2.3c-0.1,3.6,0,7.7,1.4,11
		c1.3,3,3.4,3.2,6.4,3.5c9.9,1.1,19.9,1.3,29.8,1c4.8-0.1,9.6-0.3,14.4-0.7c3.5-0.3,8.8,0.1,11.9-1.9c3.7-2.6,3.6-8.9,2.8-14.2
		c12.7-1.6,25.2-3.9,37.6-6.9c7.2-1.8,14.5-3.8,21.6-6c0.2,0.5,0.5,0.9,0.7,1.4c1.6,3.1,3.1,6.4,5.1,9.1c1.8,2.5,3.7,2.5,6.5,1.9
		c8.3-1.9,16.5-4.8,24.6-7.2c4.3-1.3,8.7-2.6,13-3.9c2.4-0.7,5.6-1.1,6.9-3.5c1-2,0.7-4.5,0.2-6.5c-0.6-2.9-1.4-5.7-2.3-8.5
		c10.6-4.5,21-9.7,30.9-15.6c0.3-0.1,0.5-0.1,0.8-0.2c3.1-2,6.2-4.1,9.2-6.2c0.4-0.3,0.8-0.4,1.2-0.5c0.1-0.1,0.1-0.3,0.2-0.4
		c14.2-9.7,27.4-21,38.9-34.1c17.5-19.8,30.3-43.3,37.2-68.8c7.7-28.5,8.5-58.1,12.5-87.2c0.2-0.2,0.4-0.4,0.6-0.5
		C778,615.4,777.5,611.5,777.1,607.6z M215.3,297.1c3.1,1.7,6.7,3.6,9,6c1.7,1.7,1.1,1.2,0.1,3.8c-0.8,2.2-1.5,4.4-2.3,6.6
		c-1.4,4.1-2.8,8.2-4.3,12.3c-0.3,1.6-1.1,2.9-2.5,3.8c-0.4-0.5-0.8-0.9-1.2-1.4c-1.4-0.9-2.8-3.3-3.9-5
		C211.9,314.4,213.6,305.8,215.3,297.1z M175.1,291.5c-1,0.3-4.3,1.6-5.3,1.3c-1.5-0.4-1.3-1.2-1.7-2.8c-1.5-6.5-2.6-13.1-3.4-19.7
		c0-0.2-0.1-0.4-0.1-0.6c3.2-0.2,6.3-0.9,9.4-1.5c2.7-0.5,4-1.5,5.9,1.3c0.8,1.2,1.2,3.1,1.7,4.5c1,2.7,1.9,5.5,2.8,8.3
		c0.3,0.9,1.8,4,1.7,4.9c0.2,0.1,0.3,0.2,0.5,0.4c-0.6,0.3-1.2,0.6-1.8,0.8C181.8,289.7,178.3,290.6,175.1,291.5z M138.2,302.4
		c-2.2,1.1-3.1,1.4-5-0.6c-2.1-2.1-3.7-5.8-5.3-8.3c-1.5-2.4-3-4.7-4.5-7.1c4.3-2.7,11.7-8.2,14.8-5.4c1.8,1.5,2.8,5.6,3.8,7.7
		c0.9,1.8,4.1,6.5,4,8.5c0,0.5,0,0.7,0.1,0.8c-0.2,0-0.5,0.2-1,0.7c-0.8,0.7-2.2,1.2-3.1,1.7C140.8,301.1,139.5,301.8,138.2,302.4z
		 M147.5,325.2c1.1-0.1,2.4-0.2,3,0.3C151.1,326.1,146.8,326.1,147.5,325.2z M731.6,600.4c0.4,0.4,0.8,0.6,1.3,0.6
		c8.9,0.4,17.5,2.1,25.9,5.4c3.9,1.5,7.5,3.4,11,5.5c-12,8.5-25,15.6-38.6,21.5C731.7,622.4,731.8,611.4,731.6,600.4z M645.6,71.5
		c21.1,4.1,37.3,17.3,50.9,33.4c13,15.4,23.8,33.1,30.1,52.3c6,18.1,8.2,37.9,3.5,56.6c-4.2,16.9-12.9,32.6-25.4,44.7
		c-3.1,3-6.4,5.7-9.8,8.1c-0.1,0.2-0.3,0.3-0.5,0.4c-0.3,0.2-0.6,0.3-0.8,0.5c-1.2,0.8-2.4,1.5-3.6,2.2c0-0.1,0-0.2-0.1-0.2
		c-0.4,0.2-0.7,0.4-1.1,0.5c-2.1,1.5-4.3,2.8-6.6,4c-0.5,0.3-1.1,0.3-1.6,0.2c-22.9,9.2-49.6,6.7-71.3-7.4
		c-36-23.3-43.6-71.4-21.3-106.8c0.4-0.6,0.6-1.2,0.8-2c5.2-8.5,11.2-16.3,17.1-24.3c0.8-1.1,1-4.3,0.5-6.4
		c-1.9,0.5-3.7,1.1-5.5,1.9c-0.6,0.3-1.1,0.6-1.7,0.8c0,0-0.1,0.1-0.1,0.1c0,0,0-0.1,0-0.1c-0.2,0.1-0.5,0.1-0.7,0.1
		c-2.3,0-4.2-2.3-5.7-4.5c-1.9-1.4-3.7-3-5.6-4.6c-3.5-2.8-7.4-5.1-11.1-7.6c-0.2-0.1-0.4-0.3-0.7-0.4c-0.9-0.6-1.9-1.3-2.8-2
		c-0.1-0.1-0.3-0.2-0.4-0.3c-9.9-4.7-20.3-8.5-30.9-11C566.6,73.1,610.3,64.6,645.6,71.5z M307.7,321.9c-4.7-6.6-10.1-23.8-4.4-31.9
		c0.3-4.5,4-7.1,7.8-9.5c3.6-2.3,8-2.1,11.3,0.2c0.2,0,0.4,0.1,0.6,0.1c9.4,2,14.4,12.4,15.6,22.7c1,4.5,0.9,9.2-0.6,13.3
		c-0.1,0.4-0.2,0.8-0.3,1.2c-1.8,6-6.5,11.3-12.9,12.5C317.7,331.9,311.7,327.5,307.7,321.9z M232.4,447.6c-1.8-0.5-3.7-0.7-5.6-0.7
		c-2.8-8-6.3-15.8-9.2-23.7c-3.1-8.4-6-16.8-8.7-25.3c2.2-0.7,5.4-1.5,8.1-2.5C220.5,412.8,225.1,431,232.4,447.6z M221.4,447.5
		c-2,0.5-3.9,1.3-5.7,2.3c-0.4-0.4-0.8-0.4-1.3-0.1c-0.4,0.3-0.8,0.6-1.2,0.9c-3.4-7.8-7.4-15.5-10.8-23.3c-3.4-8-6.5-16.2-9.4-24.4
		c3.8-1.1,7.6-2.3,11.3-3.6c0,0.5,0.1,0.9,0.2,1.3c3,9.3,6.1,18.6,9.5,27.8C216.4,434.8,218.7,441.3,221.4,447.5z M201.1,377
		c-1.1,0.3-2.2,0.6-3.3,0.9c-2.1-5.1-4.5-10.1-6.9-15c1.6-0.5,3.2-0.9,4.9-1.4c0,0.8,0.1,1.7,0.2,2.3
		C197.1,368.5,198.8,372.9,201.1,377z M188.8,366.7c1.9,4.1,3.8,8.2,5.9,12.1c-4.3,1.3-8.5,2.6-12.7,4c-2.9-4.8-5.3-9.7-6.7-15.2
		c0-0.1,0-0.1-0.1-0.2c3-1,6.1-1.9,9.2-2.8c1.4-0.4,2.7-0.8,4.1-1.1C188.2,364.6,188.4,365.9,188.8,366.7z M181.4,319.2
		c-1.2-0.7-0.8-1.2-0.1-1.5c0.8,0.1,2,0.3,2.4,0.7C185.1,319.8,182.2,319.7,181.4,319.2z M161.7,366.8c-1.6-1.2-2.6-6.4-3.3-8.4
		c-1.1-2.8-2.2-5.5-3.4-8.3c-0.6-1.6-1.4-0.8-1.8,0.5c-0.2-0.4-0.3-0.7-0.4-1.1c-1-3.5,3.2-3.9,5.7-4.8c6.4-2.4,12.9-4.7,19.5-6.7
		c3.5-1.1,7-2,10.5-2.9c2.7-0.7,6.6-2.6,8.9-0.9c1.7,1.3,2.8,7.2,3.5,9.4c0.9,3,2.1,6.5,2.4,9.8c-1.9,1-5.2,1.3-7,1.8
		c-2.2,0.6-4.4,1.1-6.6,1.7c-5,1.4-9.9,3-14.7,4.9C172.7,362.7,163.7,368.3,161.7,366.8z M169.8,369.5
		C169.8,369.5,169.8,369.5,169.8,369.5c0.8-0.4,1.7-0.7,2.6-1c-0.1,0.9,0,1.8,0.2,2.4c1.2,4.6,3,9.2,5.7,13.2
		c-0.4,0.1-0.8,0.3-1.2,0.4c0-0.1-0.1-0.2-0.1-0.2C173.7,379.5,171.1,375.1,169.8,369.5z M177.5,397.6c-0.6-1.1-1.3-2.1-1.9-3.2
		c7.1-2,14.2-4,21.2-6.2c4.5-1.4,9-2.9,13.7-3.8c1.2-0.2,4.5-1.3,5.5-0.9c0.5,0.3,1.1,1.1,1.5,2.1c-2.3,0.8-6.7,2-7.7,2.3
		c-3.2,1.1-6.4,2.2-9.7,3.2c-7.2,2.2-14.4,4.1-21.7,5.9C178,397.2,177.7,397.4,177.5,397.6z M206.8,457.8c-0.3,0-0.6,0.1-0.8,0.4
		c-8.9-17.2-17.5-34.1-23.7-52.4c1.8-0.5,3.6-0.9,5.4-1.4c0,0.1,0,0.1,0,0.2c3.2,9.4,6.8,18.6,10.7,27.7c3.2,7.5,6.5,15.4,10.5,22.6
		C208.1,455.8,207.4,456.8,206.8,457.8z M239.6,478.9c-5.6,6.3-15.5,8-23.2,5c-0.2-0.1-0.5-0.2-0.7-0.3c-4.5-3.9-7.3-10.8-6.3-16.4
		c0.1-0.2,0.2-0.4,0.4-0.6c4.7-9.9,16-11.2,25.2-6.9C242.7,463.3,245.5,472.2,239.6,478.9z M332.7,499.4c-15-2.9-29.9-6.5-45-9.4
		c-13.9-2.7-28-6.3-42.1-8.2c1.5-3.1,2.3-6.5,2.5-10.1c14.7,2.7,29.4,5.3,44,8.3c14.4,3,28.9,6.9,43.5,9.2
		c-0.2,4.2-0.6,8.4-1.1,12.6C334.3,500.6,333.7,499.6,332.7,499.4z M307.5,583.7c1.6-4.3,4.3-8.4,6.6-12.4c2.2-4,4.5-8,6.9-11.9
		c1.3-2.8,2.7-5.6,4.2-8.4c0.8-1.5,1.7-2.9,2.5-4.3c1.1-2.4,2.3-4.9,3.5-7.3c19.4-54.6,6.2-114.7-4.5-171.1c0.1-2-0.2-4.2-1-5.3
		c-1-5.5-2-11-2.9-16.4c-0.4-2.2-0.7-4.4-1.1-6.6c0.3,0,0.7,0.1,1,0.1c15.2,0.4,22.3-16.3,22.7-29.1c0.3-13-4-29.3-16-36.3
		c-3.6-2.1-7.7-2.8-11.6-2.3c1-13,3.2-25.8,7.2-38.5c9.5-30.5,27.8-58.4,52.6-78.7c0.6-0.5,1.3-1,2-1.6c6,1.4,12,2.9,18,4.4
		c1.6,0.4,1.9-4.8,0.4-5.3c-11.4-3.8-23.3-6.1-35.1-8.1c0.4-0.4,0.8-0.9,1.2-1.3c0.8-0.9,1.2-4.5-0.3-5c-1.8-0.6-3.6-1.3-5.4-1.9
		c11.7-1.1,23.4-2.2,35.1-3.4c1.9-0.2,1.8-4.8,0.4-5.5c-2-1-4-1.9-6.1-2.7c0.4-0.8,0.4-2.1,0.1-3.2c14.4,0.4,28.8,1.4,43.1,3
		c1.8,0.2,1.8-4.8,0.4-5.3c-2.1-0.8-4.1-1.6-6.2-2.4c2.5,0.1,5,0.2,7.5,0.4c7.9,1,15.7,1.9,23.6,2.9c1,0.1,1.5-1.4,1.4-3
		c7.3-1.9,14.6-3.5,21.8-4.8c33.5-6.1,66.7-1.2,96.8,14.7c5.1,4,10.1,8.1,15.2,12.1c-2.6,3.4-4.9,6.9-6.8,10.6
		c-0.1,0.1-0.1,0.1-0.2,0.2c-21.8,33.4-21.5,83,6,113.4c23.8,26.3,63.9,35.9,95.9,20.8c0.8,2.9,1.6,5.8,2.3,8.8
		c6.6,26.5,11.4,53.5,15.4,80.6c0.8,2.2,1.5,4.4,2.3,6.7c1.5,4.8,4.1,9.3,5.1,14.2c0.5,2.6-2.2,5.3-4.8,3.7
		c-1.2-0.8-2.5-1.5-3.8-2.2c-1.1,0.1-2.1,0.6-3,1.7c-1.2,1.4-0.9,4.3-2,5.4c-1.6,1.7-5.1-1.9-7-2.3c-2-0.4-3.6,0.2-5.1,1.4
		c-2,1.5-2.9,3.8-3.8,6c-1,2.5-1.7,5.5-5,3.4c-1.7-1.1-2.9-4.6-3.5-6.4c-1.8-5.2-4.7,1.3-3.6,4.2c1.5,4.1,6.9,16.7,12.5,10.1
		c2.6-3.1,2.5-10.2,7.4-10.4c3.3-0.1,5.8,4.3,9.3,2c2.3-1.6,2.1-6.8,4.9-6.9c1.7-0.1,3,0.9,4.5,1.6c0.1,0.4,0.1,0.8,0.2,1.2
		c4.7,37,7.9,74.2,10,111.5c-0.1,0.5-0.1,1-0.1,1.6c0.1,1.7,0.3,3.4,0.5,5.2c0.1,1.6,0.2,3.1,0.3,4.7c0,0.5,0,1,0.1,1.4
		c0.9,9.2,1.6,18.5,2.3,27.8c0.2,1.8,0.5,3.5,0.6,5.3c0.1,0.1,0.1,0.1,0.2,0.2c2.3,23.9,2.9,48,1.6,71.9
		c-13.6,5.5-27.6,10.2-41.6,14.3c-35,10.4-71.2,16.6-107.5,20.3c-35.8,3.6-71.8,4.6-107.8,4.2c-0.8-6.4-1.5-13-2.5-19.4
		c28.3,4.9,58.7-7.3,81.1-23.9c26-19.3,46.5-48.3,53.3-80.2c0.5-2.1,0.9-5.9-1-7.5c-1.8-1.6-3.2,0.1-3.8,2
		c-7.7,26.8-22.3,50.6-43.8,68.6c-21.7,18.3-50.8,31.3-79.6,29.5c-14.5-0.9-29.1-6-38.4-17.7c-7.3-9.2-11.6-22.4-7-33.7
		c10.5-26.3,48.9-21.7,71-29.2c28.8-9.7,48.1-37.5,50-67.3c0.1-1.4-0.5-4.7-2.4-4.7c-2,0-2.3,3.4-2.4,4.7
		c-1.9,30.8-26.8,55.4-56.2,61c-14,2.7-28.6,2.9-42,8.2c-12.2,4.8-21.3,14.6-24.1,27.4c-2.8,12.6-0.3,26.6,6.4,37.7
		c5.4,9.1,13.2,15.7,22.4,20.1c0.2,0.9,0.4,1.9,0.6,2.8c-0.2,0.9-0.3,1.9-0.2,3c1,6.2,2.1,12.3,3.1,18.5c-23.5-0.5-47-1.6-70.4-4
		c-0.4-12.5-1.5-25.1-2.8-37.5c-0.7-6.6-1.4-13.1-2.3-19.7c-0.4-2.9-0.6-5.9-1-8.8c-0.3-3.4-0.6-6.8-0.9-10.2c0-0.1,0-0.2,0-0.3
		c7.8-5.4,9.6-14.7,5.7-23.4c-4.1-9.1-15.4-15.2-23.1-6.2c-0.3,0.4-0.6,1.2-0.7,2.3c-9,6-5.6,22.7,3.4,28.4
		c0.7,13.3,1.6,26.6,3,39.8c0.9,8.8,1.7,17.9,3.1,26.8c0.1,2,0.3,4,0.4,6c0,0.3,0,0.6,0.1,1c-1.5-0.2-3-0.4-4.5-0.6
		c-27.7-3.9-55.2-10.4-81-21.1C285.1,624.6,295.8,603.7,307.5,583.7z M462.3,675.1c-1.8,0-3.6-0.1-5.3-0.1c-0.6-7.4-1.6-14.7-3-22
		c1.5,0.5,3.1,1,4.6,1.4c0,0.1,0,0.2,0,0.3C459.3,661.6,460.6,668.4,462.3,675.1z M376.5,580.7c0.7,4.2-1.5,8.6-5.8,10.1
		c-3.3,1.1-6.6-0.1-9-2.3c-0.7-0.4-1.3-0.9-1.8-1.4c-3.3-1.4-5.5-4.6-5.5-8.4c0-2.6,1.2-4.9,2.9-6.6c0.3-0.4,0.6-0.8,0.9-1.2
		c0.6-0.6,1.2-1.2,1.9-1.6c1-0.8,2.3-1.4,3.6-1.6c0.2,0,0.4-0.1,0.5-0.1c1.5-0.7,2.9-0.9,4.2-0.6c1.3-0.1,2.6,0.2,3.9,0.9
		c3.2,1.9,4.5,7.1,3.9,10.9C376.5,579.4,376.6,580,376.5,580.7z M368.9,596.9c0.1,6.2,1.5,12.3,2.4,18.4c0.9,6.5,1.8,13,2.5,19.5
		c0.1,0.5,0.1,0.9,0.2,1.4c1,11.4,2,22.8,3,34.1c-1.8-0.2-3.5-0.4-5.3-0.6c-0.5-6.2-1.4-12.4-2.3-18.5c-1.2-18-2.6-36-4.7-54
		C366.1,597.4,367.5,597.3,368.9,596.9z M241.7,535.4c-2.9-5.5-0.6-10.9,3.7-14.2c7.1-3.1,15.7-2.7,21.4,3c3.4,3.4,6.3,8.8,3,13.3
		c-2.1,2.8-5.4,4.7-8.8,5.5C254,544.8,245.3,542.2,241.7,535.4z M262.7,586.7c-2.6-11.4-4.5-23.3-7.6-34.7c2.1,0.2,4.3,0,6.6-0.7
		c0.7-0.2,1.3-0.4,1.9-0.6c2.6,20.5,5.9,41.4,11,61.7c-0.3,1.4-0.1,3.1,0.2,4.1c1.4,4.8,2.5,9.7,3.8,14.5c-0.2,0.6-0.4,1.2-0.7,1.8
		c-0.5,1.9-1,3.7-1.5,5.6c-0.3,1.1-0.5,2.1-0.7,3.2c-0.3-0.8-0.6-1.7-0.9-2.5c0.1-1.6-0.2-3.2-0.7-4.6c-2.2-5.6-3.5-11.4-3.9-17.4
		c-0.1-0.9-0.5-2.2-1.2-3C266.8,605,264.8,595.9,262.7,586.7z M267.8,634c0.7,2.6,1.6,5.1,2.6,7.6c0.2,0.6,0.6,1,0.9,1.2
		c0.1,0.2,0.1,0.4,0.2,0.6c-3.9-1.8-7.7-3.7-11.6-5.7C262.4,636.2,265,635,267.8,634z M408.5,861.6c-2.5,1.6-5.7,0.4-8.5-0.1
		c-5.9-1.1-11.8-2.4-17.6-4.1c-5.1-1.5-10.1-3.3-15-5.4c-2.4-1-5.1-1.9-7.2-3.3c-2.9-1.9-2.4-4.1-2.1-7.2c9.7,3.5,19.8,6.3,29.9,8.5
		c8,2.1,16,4,24.1,5.7C411.1,857.9,410.6,860.2,408.5,861.6z M528.2,870.7c-1.8,1.2-6.8,0.9-8.8,1.1c-6.1,0.6-12.1,1-18.2,1.1
		c-5.8,0.1-11.5,0-17.3-0.2c-3.1-0.1-6.5-0.1-9.6-0.5c-1.2-0.2-3-0.1-3.9-1.3c-0.9-1.1-0.7-4.4-0.6-6.3c2.8,0.2,5.7,0.4,8.5,0.5
		c17.1,0.8,34.2,0.2,51.2-1.7C529.7,866.3,529.9,869.5,528.2,870.7z M512,848.6c-23.9,2.6-48.2,3.1-72.2,0.9
		c0.1,0.1,0.1,0.1,0.1,0.2c-2.4-0.3-4.8-0.5-7.2-0.7c-1.6-0.3-3.2-0.5-4.9-0.8c0,0,0.1,0,0.1-0.1c-20.7-2.8-41.1-7.9-60.6-15.9
		c-6.9-2.1-13.7-4.5-20.4-7.3C316.3,779,312,723.6,309.7,669.5c-0.1-2.4-2.1-2.4-2,0c2.4,51.2,4.5,108.6,33.3,152.8
		c-9.9-4.6-19.3-10-28.3-16.6c-22.5-16.5-38.3-38.3-46.7-64.9c-4.7-14.9-8.3-30.4-11.1-45.8c-0.7-3.9-1.4-7.8-1.9-11.8
		c0.3-3.7-0.1-7.2-0.9-10.8c-0.1-0.5-0.2-1-0.3-1.5c-0.5-8.6-0.4-17.3,1-26c0.1-0.6,0.1-1.2,0-1.7c6.8,3.9,13.7,7.5,20.7,10.7
		c0,0.2,0,0.4-0.1,0.7c0.5,0,1.1,0.2,1.6,0.5c0.5,0.3,1,0.6,1.6,0.9c0.9,0.3,1.7,0.5,2.5,0.8c0-0.1,0-0.2,0-0.3
		c0.8,0.4,1.7,0.7,2.5,1c4,1.2,8,2.5,12,3.8c1.1,0.3,1.7,1,2.1,1.7c49.6,17.8,103.6,22.1,156.1,23.8c25.5,0.8,51.1,0.9,76.6,0
		c0,0.1,0,0.2,0,0.4c6.1,52.2,11.7,104.4,18.4,156.5C535.3,845.7,523.6,847.4,512,848.6z M592.2,836.1c-11,2.4-22.2,4.2-33.4,5.5
		c-3.2,0.6-6.5,1.2-9.7,1.7c-5.4-52.3-12.1-104.4-18.2-156.6c47.5-1.9,94.9-7.6,140.9-19.8c14.9-4,29.6-8.6,44.1-14
		c0.6,7.1,0.3,14.1,0.3,21.2c-7.9,2.9-16,5.3-24.2,7.4c-29.5,7.6-59.8,11-90,14.3c-1.4,0.2-1.8,2.7-1.3,4.4
		c-0.6,22.9,0.3,45.8,0.1,68.7c-0.1,11.4-0.4,22.8-1.3,34.2c-0.9,10.8-2.8,21.4-4.5,32.1C594,835.5,593.1,835.8,592.2,836.1z
		 M644.2,844.2c-5.8,0.8-12,3.5-17.7,5.2c-5.6,1.7-11.1,3.3-16.7,5c-4.3,1.3-7.8,3.2-10.9-1c-1-1.3-1.9-2.9-2.7-4.5
		c0.3-0.1,0.5-0.2,0.8-0.3c2.2-0.5,4.4-1,6.6-1.5c13.6-3.3,27.1-7.6,40.1-12.9c0.5,2.3,1.1,4.5,1.7,6.8c0.1,0.3,0.7,1.9,0.9,2.9
		C645.7,843.8,644.3,844.1,644.2,844.2z M762.6,687.3c-4.4,23.5-13.9,45.2-28.1,64.5c-1.7,2.3-3.5,4.6-5.3,6.8
		c-1.9-2-5.6-2.5-8.3-3.4c-0.2-0.2-0.5-0.3-0.7-0.4c-1.6-0.5-2.3-0.1-3.2,1.4c-1.8,3-2,6.7-4.1,9.8c-2.2,3.2-5.1,5.6-8.4,7.6
		c-1.2,0.7-1.2,3.7-0.4,4.9c0.3,1.6,0.6,3.2,0.9,4.7c-4.2,3.6-8.6,7.1-13.2,10.3c0.1-4.1,0.1-8.1-0.2-12.1c-0.1-1.2-0.3-3.9-1.9-4.1
		c-4.2-2-7.7-4.5-10.8-7.8c-1.4-1.8-2.6-3.9-3.5-6.2c-0.2-0.6-1-1.3-1.7-0.9c-7.1,4.1-14.2,8.4-21.3,12.5c-4.2,2.4-12,4.8-13.8,9.8
		c-3.4,9.1,6.7,21.4,13.2,26.6c1.6,1.3,3.3,2.4,5,3.3c-16.7,8-34.4,13.9-52.6,17.5c-1.5,0.5-3,1.1-4.6,1.6c4.6-20,4.9-41.5,5.1-61.7
		c0.2-23.5-0.7-46.9-0.2-70.4c29.9-3.2,59.9-6.6,89-14.3c25.5-6.8,52.7-16.8,73.6-33.5C766,664.9,764.7,676.2,762.6,687.3z
		 M767.9,647c0,0-0.1,0-0.1,0.1c-11.6,7.6-22.9,14.9-35.6,20.6c-4.3,2-8.8,3.7-13.2,5.4c0.7-7,0.2-14.3-0.5-21.2
		c1.5-0.6,2.9-1.1,4.4-1.7c0,0.1,0,0.1,0,0.2c5.4-2.7,11-5.1,16.6-7.2c10.8-4.9,21.3-10.5,30.9-17.5
		C769.4,632.8,768.7,639.9,767.9,647z"/>
	<path d="M302,684.8c-0.5-1.3-1.8-1.7-3.1-1.4c-1.8-0.2-2.4,2.1-2.2,3.3c0.3,1.4,1.9,2.6,3.5,1.9C301.7,688,302.5,686.1,302,684.8z
		 M300.3,687.5c-0.8,0.4-1.9,0.2-2.6-0.4c-0.9-0.9-0.4-2.8,1.2-2.6c0.1,0,0.2-0.1,0.3-0.3c0.6-0.1,1.1,0,1.6,0.3
		C302.1,685.4,301.5,686.9,300.3,687.5z"/>
	<path d="M524,699.8c-0.5-1.3-1.8-1.7-3.1-1.4c-1.8-0.2-2.4,2.1-2.2,3.3c0.3,1.4,1.9,2.6,3.5,1.9C523.7,703,524.5,701.1,524,699.8z
		 M522.3,702.5c-0.8,0.4-1.9,0.2-2.6-0.4c-0.9-0.9-0.4-2.8,1.2-2.6c0.1,0,0.2-0.1,0.3-0.3c0.6-0.1,1.1,0,1.6,0.3
		C524.1,700.4,523.5,701.9,522.3,702.5z"/>
	<path d="M519.2,346.7c-0.5-1.3-1.8-1.7-3.1-1.4c-1.8-0.2-2.4,2.1-2.2,3.3c0.3,1.4,1.9,2.6,3.5,1.9
		C518.9,349.9,519.7,348,519.2,346.7z M517.5,349.4c-0.8,0.4-1.9,0.2-2.6-0.4c-0.9-0.9-0.4-2.8,1.2-2.6c0.1,0,0.2-0.1,0.3-0.3
		c0.6-0.1,1.1,0,1.6,0.3C519.3,347.3,518.6,348.8,517.5,349.4z"/>
	<path d="M530.6,217c-0.5-1.3-1.8-1.7-3.1-1.4c-1.8-0.2-2.4,2.1-2.2,3.3c0.3,1.4,1.9,2.6,3.5,1.9C530.3,220.2,531.2,218.4,530.6,217
		z M528.9,219.7c-0.8,0.4-1.9,0.2-2.6-0.4c-0.9-0.9-0.4-2.8,1.2-2.6c0.1,0,0.2-0.1,0.3-0.3c0.6-0.1,1.1,0,1.6,0.3
		C530.7,217.6,530.1,219.2,528.9,219.7z"/>
	<path d="M421.2,219.8c-0.5-1.3-1.8-1.7-3.1-1.4c-1.8-0.2-2.4,2.1-2.2,3.3c0.3,1.4,1.9,2.6,3.5,1.9
		C420.9,223,421.7,221.1,421.2,219.8z M419.5,222.5c-0.8,0.4-1.9,0.2-2.6-0.4c-0.9-0.9-0.4-2.8,1.2-2.6c0.1,0,0.2-0.1,0.3-0.3
		c0.6-0.1,1.1,0,1.6,0.3C421.3,220.4,420.7,221.9,419.5,222.5z"/>
	<path d="M414.5,325.8c-0.5-1.3-1.8-1.7-3.1-1.4c-1.8-0.2-2.4,2.1-2.2,3.3c0.3,1.4,1.9,2.6,3.5,1.9
		C414.3,329.1,415.1,327.2,414.5,325.8z M412.9,328.6c-0.8,0.4-1.9,0.2-2.6-0.4c-0.9-0.9-0.4-2.8,1.2-2.6c0.1,0,0.2-0.1,0.3-0.3
		c0.6-0.1,1.1,0,1.6,0.3C414.7,326.4,414,328,412.9,328.6z"/>
	<path d="M526.8,740.8c-0.5-1.3-1.8-1.7-3.1-1.4c-1.8-0.2-2.4,2.1-2.2,3.3c0.3,1.4,1.9,2.6,3.5,1.9
		C526.5,744,527.3,742.1,526.8,740.8z M525.1,743.5c-0.8,0.4-1.9,0.2-2.6-0.4c-0.9-0.9-0.4-2.8,1.2-2.6c0.1,0,0.2-0.1,0.3-0.3
		c0.6-0.1,1.1,0,1.6,0.3C526.9,741.4,526.2,742.9,525.1,743.5z"/>
	<path d="M712.3,665.6c-0.5-1.3-1.8-1.7-3.1-1.4c-1.8-0.2-2.4,2.1-2.2,3.3c0.3,1.4,1.9,2.6,3.5,1.9
		C712,668.8,712.8,666.9,712.3,665.6z M710.6,668.3c-0.8,0.4-1.9,0.2-2.6-0.4c-0.9-0.9-0.4-2.8,1.2-2.6c0.1,0,0.2-0.1,0.3-0.3
		c0.6-0.1,1.1,0,1.6,0.3C712.4,666.2,711.8,667.7,710.6,668.3z"/>
	<path d="M533.4,787.6c-0.5-1.3-1.8-1.7-3.1-1.4c-1.8-0.2-2.4,2.1-2.2,3.3c0.3,1.4,1.9,2.6,3.5,1.9C533.1,790.8,534,789,533.4,787.6
		z M531.7,790.4c-0.8,0.4-1.9,0.2-2.6-0.4c-0.9-0.9-0.4-2.8,1.2-2.6c0.1,0,0.2-0.1,0.3-0.3c0.6-0.1,1.1,0,1.6,0.3
		C533.6,788.2,532.9,789.8,531.7,790.4z"/>
	<path d="M542.4,832.4c-0.5-1.3-1.8-1.7-3.1-1.4c-1.8-0.2-2.4,2.1-2.2,3.3c0.3,1.4,1.9,2.6,3.5,1.9
		C542.1,835.6,543,833.7,542.4,832.4z M540.7,835.1c-0.8,0.4-1.9,0.2-2.6-0.4c-0.9-0.9-0.4-2.8,1.2-2.6c0.1,0,0.2-0.1,0.3-0.3
		c0.6-0.1,1.1,0,1.6,0.3C542.6,833,541.9,834.5,540.7,835.1z"/>
	<path d="M330.3,807.3c-0.5-1.3-1.8-1.7-3.1-1.4c-1.8-0.2-2.4,2.1-2.2,3.3c0.3,1.4,1.9,2.6,3.5,1.9
		C330.1,810.5,330.9,808.6,330.3,807.3z M328.7,810c-0.8,0.4-1.9,0.2-2.6-0.4c-0.9-0.9-0.4-2.8,1.2-2.6c0.1,0,0.2-0.1,0.3-0.3
		c0.6-0.1,1.1,0,1.6,0.3C330.5,807.9,329.8,809.4,328.7,810z"/>
	<path d="M316.8,773.3c-0.5-1.3-1.8-1.7-3.1-1.4c-1.8-0.2-2.4,2.1-2.2,3.3c0.3,1.4,1.9,2.6,3.5,1.9
		C316.6,776.5,317.4,774.6,316.8,773.3z M315.2,776c-0.8,0.4-1.9,0.2-2.6-0.4c-0.9-0.9-0.4-2.8,1.2-2.6c0.1,0,0.2-0.1,0.3-0.3
		c0.6-0.1,1.1,0,1.6,0.3C317,773.9,316.3,775.4,315.2,776z"/>
	<path d="M306.8,734c-0.5-1.3-1.8-1.7-3.1-1.4c-1.8-0.2-2.4,2.1-2.2,3.3c0.3,1.4,1.9,2.6,3.5,1.9C306.6,737.2,307.4,735.4,306.8,734
		z M305.2,736.8c-0.8,0.4-1.9,0.2-2.6-0.4c-0.9-0.9-0.4-2.8,1.2-2.6c0.1,0,0.2-0.1,0.3-0.3c0.6-0.1,1.1,0,1.6,0.3
		C307,734.6,306.3,736.2,305.2,736.8z"/>
</g>
</svg>
